<?xml version="1.0" encoding="UTF-8"?>
<svg width="200px" height="200px" viewBox="0 0 200 200" version="1.1" xmlns="http://www.w3.org/2000/svg" xmlns:xlink="http://www.w3.org/1999/xlink">
    <!-- Generator: Sketch 41 (35326) - http://www.bohemiancoding.com/sketch -->
    <title>default_avatar_v</title>
    <desc>Created with Sketch.</desc>
    <defs>
        <circle id="path-1" cx="100" cy="100" r="100"></circle>
    </defs>
    <g id="Page-1" stroke="none" stroke-width="1" fill="none" fill-rule="evenodd">
        <g id="default_avatar_v">
            <g id="Group">
                <mask id="mask-2" fill="white">
                    <use xlink:href="#path-1"></use>
                </mask>
                <use id="Oval" fill="#EEEEEE" xlink:href="#path-1"></use>
                <path d="M88.9610266,154 C82.6031369,141.582319 76.1489861,127.048447 69.6047845,110.403042 C63.060583,93.7607414 56.8579531,75.6263942 51,56 L80.4372624,56 C81.6839987,60.8441065 83.1512041,66.0934411 84.8357731,71.743346 C86.5187896,77.3963561 88.2654626,83.108365 90.0757921,88.885583 C91.8845691,94.6581432 93.6917934,100.280101 95.5021229,105.745247 C97.3124525,111.211946 99.09173,116.18026 100.838403,120.65019 C102.45621,116.18026 104.202883,111.211946 106.072212,105.745247 C107.94154,100.280101 109.781369,94.6581432 111.590146,88.885583 C113.39737,83.108365 115.144043,77.3963561 116.82706,71.743346 C118.508523,66.0934411 119.977281,60.8441065 121.222465,56 L149.931559,56 C144.075158,75.6263942 137.877186,93.7607414 131.337643,110.403042 C124.799651,127.048447 118.351711,141.582319 112.000032,154 L88.9610266,154 Z" id="Fill-1" fill="#1A1918" opacity="0.100000001" mask="url(#mask-2)"></path>
            </g>
        </g>
    </g>
</svg>
