<?xml version="1.0" encoding="UTF-8"?>
<!DOCTYPE svg  PUBLIC '-//W3C//DTD SVG 1.1//EN'  'http://www.w3.org/Graphics/SVG/1.1/DTD/svg11.dtd'>
<svg enable-background="new 0 0 596 154" version="1.1" viewBox="0 0 596 154" xml:space="preserve" xmlns="http://www.w3.org/2000/svg">
<path d="m45.208 151.19c-7.572-14.789-15.247-32.091-23.024-51.917-7.778-19.825-15.175-41.397-22.184-64.762h35.048c1.479 5.916 3.224 12.17 5.236 18.766l6.256 20.408 6.479 20.055c2.159 6.506 4.275 12.422 6.345 17.745l6.211-17.745 6.566-20.055 6.255-20.408c2.013-6.713 3.757-12.969 5.236-18.766h34.161c-6.979 23.365-14.373 44.958-22.183 64.783-7.809 19.825-15.485 37.107-23.018 51.896h-27.384zm189.7-3.995c-7.15 1.916-14.409 3.397-21.738 4.437-9.247 1.427-18.595 2.123-27.95 2.086-8.431 0.256-16.833-1.1-24.756-3.993-6.094-2.277-11.49-6.099-15.661-11.09-3.97-5.064-6.772-10.942-8.208-17.215-1.706-7.268-2.526-14.716-2.44-22.181v-64.728h33.042v61.001c-0.486 7.94 1.039 15.877 4.436 23.07 2.811 4.731 8.061 7.099 15.751 7.099 2.365 0 4.88-0.118 7.541-0.354 2.662-0.236 5.028-0.487 7.109-0.754v-90.062h33.042l-0.177 112.69 9e-3 -3e-3zm29.947-141.75 33.043-5.323v34.384h39.928v27.505h-39.918v41.038c-0.268 5.773 1.003 11.515 3.682 16.637 2.426 4.141 7.335 6.211 14.729 6.211 3.69-0.018 7.372-0.359 11.002-1.021 3.525-0.585 6.987-1.506 10.337-2.751l4.438 25.733c-4.325 1.734-8.775 3.144-13.311 4.215-5.899 1.288-11.929 1.884-17.967 1.774-7.56 0.216-15.089-1.019-22.182-3.638-5.508-2.148-10.401-5.659-14.198-10.203-3.677-4.643-6.215-10.083-7.41-15.882-1.476-6.776-2.189-13.696-2.13-20.631l-0.045-98.045 2e-3 -3e-3zm258.6 145.74c-7.571-14.789-15.247-32.091-23.025-51.906-7.777-19.815-15.172-41.407-22.182-64.783h35.048c1.479 5.916 3.224 12.17 5.236 18.766l6.256 20.408 6.479 20.054c2.159 6.507 4.275 12.422 6.344 17.746l6.211-17.746 6.566-20.054 6.257-20.408c2.01-6.713 3.74-12.969 5.19-18.766h34.161c-6.979 23.365-14.374 44.957-22.183 64.783-7.81 19.825-15.483 37.117-23.024 51.906h-27.334zm-160.11-3.995c7.15 1.916 14.41 3.397 21.739 4.437 9.247 1.427 18.594 2.123 27.95 2.086 8.431 0.256 16.833-1.1 24.755-3.993 6.104-2.303 11.501-6.155 15.66-11.18 3.972-5.062 6.774-10.94 8.208-17.213 1.707-7.269 2.526-14.717 2.44-22.183v-64.638h-33.097v61.001c0.486 7.94-1.038 15.877-4.436 23.07-2.81 4.731-8.061 7.099-15.75 7.099-2.366 0-4.881-0.118-7.542-0.354s-5.026-0.487-7.1-0.754v-90.062h-32.83v112.69l3e-3 -3e-3z" fill="#1A1918"/>
</svg>
