<svg xmlns="http://www.w3.org/2000/svg" width="22" height="28" viewBox="0 0 22 28"><path d="M21.891 24.172l-.094.094c-1.172 1.172-2.531 2.094-4.047 2.734-1.578.656-3.234 1-4.953 1s-3.391-.344-4.953-1c-1.516-.641-2.891-1.563-4.047-2.734-1.172-1.156-2.094-2.516-2.734-4.031-.391-.953-.703-1.937-.844-2.953-.063-.438.547-.531.75-.562.484-.078.812-.047.875.313l.016.063c.063.313.219 1.25.719 2.484.516 1.281 1.313 2.469 2.375 3.531 1.016 1.016 2.203 1.813 3.531 2.375 1.359.578 2.812.875 4.312.875 1.484 0 2.938-.297 4.312-.875 1.313-.562 2.5-1.359 3.516-2.375l.094-.094c.109-.109.234-.141.391-.094.141.031.313.156.516.344.5.516.391.766.266.906zm-7.375-9.61l-1.031 1.031.984.984c.109.109.313.344-.109.766-.172.172-.344.266-.5.266-.109 0-.203-.047-.297-.156l-.969-.953-1.031 1.031c-.031.031-.109.078-.234.078-.141 0-.313-.078-.484-.25l-.031-.031c-.109-.094-.281-.266-.281-.453 0-.094.047-.172.125-.266l1.031-1.016-1.031-1.031c-.172-.172-.094-.391.219-.703.187-.187.344-.281.484-.281.078 0 .141.031.203.078l1.016 1.031 1.016-1.016c.172-.172.453-.094.75.203.187.187.391.453.172.688zm7.359.891c0 1.234-.25 2.438-.719 3.563-.469 1.094-1.125 2.063-1.969 2.906s-1.828 1.5-2.922 1.969c-1.125.484-2.328.719-3.563.719s-2.438-.234-3.563-.719c-1.094-.469-2.078-1.125-2.922-1.969s-1.5-1.813-1.953-2.906c-.094-.203-.234-.594-.234-.625h-.016c-.141-.438.484-.625.672-.688.453-.141.797-.203.938.187.375 1 .953 1.969 1.516 2.609h.016v-5.328c.031-1.313.578-2.641 1.594-3.625 1.047-1.031 2.453-1.609 3.953-1.609 3.063 0 5.547 2.469 5.547 5.5 0 3.063-2.5 5.547-5.547 5.547-.609 0-1.062-.047-1.75-.25-.078-.031-.438-.187-.203-.953.063-.203.25-.797.688-.672.031 0 .797.187 1.203.187 2.172 0 3.875-1.687 3.875-3.844 0-1.016-.406-1.969-1.125-2.672-.719-.719-1.687-1.109-2.734-1.109-1.078 0-2.063.438-2.781 1.25-.625.703-1 1.641-1 2.5v6.453c1.125.688 2.422 1.047 3.781 1.047 2 0 3.937-.797 5.328-2.188 1.406-1.406 2.188-3.297 2.188-5.281 0-2-.781-3.875-2.203-5.297-1.406-1.406-3.281-2.188-5.297-2.188s-3.906.781-5.313 2.188c-.016.016-.906.938-1.203 1.359l-.031.031c-.187.266-.359.516-1.141.344-.391-.094-.812-.328-.812-.672v-10.625c0-.281.219-.594.594-.594h13.703c.469 0 .469.656.469.859 0 .219 0 .859-.469.859h-12.672v7.547h.016c.875-.922 2.391-1.891 3.281-2.266 1.109-.469 2.359-.719 3.609-.719 1.234 0 2.438.234 3.563.719 1.094.469 2.078 1.125 2.922 1.969s1.5 1.813 1.969 2.906c.469 1.141.719 2.328.719 3.578zm-.484-9.078c.297.266.094.547-.203.891-.187.187-.391.406-.609.406-.094 0-.172-.031-.25-.109-1.125-.969-2.141-1.625-3.234-2.078-1.359-.594-2.812-.875-4.312-.875-1.328 0-2.781.266-4.094.766-.406.156-.625-.375-.703-.578-.094-.25-.141-.453-.125-.594.031-.156.109-.266.25-.313 1.281-.562 3.031-.891 4.672-.891 1.703 0 3.375.344 4.937 1 1.437.609 2.609 1.359 3.672 2.375z"/></svg>