<svg xmlns="http://www.w3.org/2000/svg" width="25" height="28" viewBox="0 0 25 28"><path d="M24 14v2c0 1.062-.703 2-1.828 2h-11l4.578 4.594c.375.359.594.875.594 1.406s-.219 1.047-.594 1.406l-1.172 1.188c-.359.359-.875.578-1.406.578s-1.047-.219-1.422-.578l-10.172-10.187c-.359-.359-.578-.875-.578-1.406s.219-1.047.578-1.422l10.172-10.156c.375-.375.891-.594 1.422-.594s1.031.219 1.406.594l1.172 1.156c.375.375.594.891.594 1.422s-.219 1.047-.594 1.422l-4.578 4.578h11c1.125 0 1.828.938 1.828 2z"/></svg>