<svg xmlns="http://www.w3.org/2000/svg" width="34" height="28" viewBox="0 0 34 28"><path d="M27 7l-6 11h12zm-20 0l-6 11h12zm12.828-3c-.297.844-.984 1.531-1.828 1.828v20.172h9.5c.281 0 .5.219.5.5v1c0 .281-.219.5-.5.5h-21c-.281 0-.5-.219-.5-.5v-1c0-.281.219-.5.5-.5h9.5v-20.172c-.844-.297-1.531-.984-1.828-1.828h-7.672c-.281 0-.5-.219-.5-.5v-1c0-.281.219-.5.5-.5h7.672c.422-1.172 1.516-2 2.828-2s2.406.828 2.828 2h7.672c.281 0 .5.219.5.5v1c0 .281-.219.5-.5.5h-7.672zm-2.828.25c.688 0 1.25-.562 1.25-1.25s-.562-1.25-1.25-1.25-1.25.562-1.25 1.25.562 1.25 1.25 1.25zm17 13.75c0 3.219-4.453 4.5-7 4.5s-7-1.281-7-4.5c0-.609 5.453-10.266 6.125-11.484.172-.313.516-.516.875-.516s.703.203.875.516c.672 1.219 6.125 10.875 6.125 11.484zm-20 0c0 3.219-4.453 4.5-7 4.5s-7-1.281-7-4.5c0-.609 5.453-10.266 6.125-11.484.172-.313.516-.516.875-.516s.703.203.875.516c.672 1.219 6.125 10.875 6.125 11.484z"/></svg>