<svg xmlns="http://www.w3.org/2000/svg" width="24" height="28" viewBox="0 0 24 28"><path d="M19.5 2c2.484 0 4.5 2.016 4.5 4.5v15c0 2.484-2.016 4.5-4.5 4.5h-15c-2.484 0-4.5-2.016-4.5-4.5v-15c0-2.484 2.016-4.5 4.5-4.5h15zm-11.703 5.734h-5.797v12.297h5.969c2.234 0 4.328-1.062 4.328-3.563 0-1.547-.734-2.688-2.234-3.125 1.094-.531 1.672-1.328 1.672-2.562 0-2.453-1.828-3.047-3.937-3.047zm-.344 4.969h-2.75v-2.875h2.547c.969 0 1.859.266 1.859 1.406 0 1.047-.688 1.469-1.656 1.469zm.141 5.235h-2.891v-3.391h2.953c1.188 0 1.937.516 1.937 1.766s-.891 1.625-2 1.625zm10.156.5c-1.437 0-2.188-.844-2.188-2.266h6.422c.016-.156.016-.313.016-.469 0-2.625-1.547-4.828-4.344-4.828-2.703 0-4.562 2.047-4.562 4.719 0 2.781 1.75 4.672 4.562 4.672 2.141 0 3.516-.953 4.172-2.984h-2.156c-.234.75-1.188 1.156-1.922 1.156zm-.156-5.719c1.219 0 1.828.734 1.937 1.906h-3.969c.078-1.172.859-1.906 2.031-1.906zm-2.532-4.156h4.984v1.203h-4.984v-1.203z"/></svg>