<svg xmlns="http://www.w3.org/2000/svg" width="32" height="28" viewBox="0 0 32 28"><path d="M24.344 13.312c.797 4.656 2.844 7.156 4.656 8.687 0 1.094-.906 2-2 2h-7c0 2.203-1.797 4-4 4s-3.984-1.781-4-3.984zm-8.344 13.438c.141 0 .25-.109.25-.25s-.109-.25-.25-.25c-1.234 0-2.25-1.016-2.25-2.25 0-.141-.109-.25-.25-.25s-.25.109-.25.25c0 1.516 1.234 2.75 2.75 2.75zm15.656-25c.172.219.156.531-.047.719l-29.25 25.344c-.203.172-.531.156-.703-.063l-1.313-1.5c-.172-.219-.156-.531.047-.703l2.906-2.516c-.187-.313-.297-.656-.297-1.031 2.312-1.953 5-5.453 5-13 0-3 2.484-6.281 6.625-6.891-.078-.187-.125-.391-.125-.609 0-.828.672-1.5 1.5-1.5s1.5.672 1.5 1.5c0 .219-.047.422-.125.609 2.688.391 4.672 1.906 5.734 3.75l6.531-5.672c.203-.172.531-.156.703.063z"/></svg>