<svg xmlns="http://www.w3.org/2000/svg" width="24" height="28" viewBox="0 0 24 28"><path d="M13.25 13.594c0-.891-1.094-1.5-1.844-1.047-.891.422-.891 1.859.016 2.234.812.484 1.953-.25 1.828-1.188zm1.25-.25c.172 1.375-.906 2.719-2.281 2.844s-2.672-1-2.734-2.391c-.047-1.031.594-2.031 1.531-2.453 1.469-.656 3.281.406 3.484 2zm2.687-6.11c-.688.703-1.734.797-2.656.906-1.672.219-3.375.203-5.063 0-.922-.125-1.937-.234-2.656-.906.438-.625 1.219-.75 1.922-.859 2.109-.375 4.266-.359 6.375-.016.75.109 1.594.234 2.078.875zm.657 11.657c0-.375.391-1.016-.141-1.172-3.359 2.219-8.047 2.219-11.422 0l-.187.094-.078.187c.187 1.094.359 2.203.641 3.281.641 1.109 2.016 1.484 3.187 1.687 2.219.406 4.672.281 6.687-.828 1.172-.656.984-2.141 1.313-3.25zm2.031-10.829c.063-.375.141-.828-.125-1.172-.594-.75-1.531-1.109-2.422-1.375-2.469-.719-5.078-.812-7.609-.562-1.203.109-2.406.313-3.531.719-.844.328-1.984.766-2.125 1.766.281 2.344.734 4.641 1.125 6.969.125.656.125 1.437.719 1.906 1.266.969 2.875 1.391 4.438 1.563 2.312.25 4.766.078 6.875-.984.594-.313 1.281-.719 1.406-1.437.438-2.453.859-4.906 1.25-7.391zm4.125-1.562v15c0 2.484-2.016 4.5-4.5 4.5h-15c-2.484 0-4.5-2.016-4.5-4.5v-15c0-2.484 2.016-4.5 4.5-4.5h15c2.484 0 4.5 2.016 4.5 4.5z"/></svg>