<svg xmlns="http://www.w3.org/2000/svg" width="26" height="28" viewBox="0 0 26 28"><path d="M25.609 7.469c.391.562.5 1.297.281 2.016l-4.297 14.156c-.391 1.328-1.766 2.359-3.109 2.359h-14.422c-1.594 0-3.297-1.266-3.875-2.891-.25-.703-.25-1.391-.031-1.984.031-.313.094-.625.109-1l-.094-.641c.063-.375.391-.641.641-1.062.469-.781 1-2.047 1.172-2.859v-.906c.078-.297.375-.516.531-.797.422-.719.969-2.109 1.047-2.844.031-.328-.125-.688-.031-.938.109-.359.453-.516.688-.828.375-.516 1-2 1.094-2.828.031-.266-.125-.531-.078-.812.063-.297.438-.609.688-.969.656-.969.781-3.109 2.766-2.547l-.016.047c.266-.063.531-.141.797-.141h11.891c.734 0 1.391.328 1.781.875.406.562.5 1.297.281 2.031l-4.281 14.156c-.734 2.406-1.141 2.938-3.125 2.938h-13.578c-.203 0-.453.047-.594.234-.125.187-.141.328-.016.672.313.906 1.391 1.094 2.25 1.094h14.422c.578 0 1.25-.328 1.422-.891l4.688-15.422c.094-.297.094-.609.078-.891.359.141.688.359.922.672zm-16.625.031c-.094.281.063.5.344.5h9.5c.266 0 .562-.219.656-.5l.328-1c.094-.281-.063-.5-.344-.5h-9.5c-.266 0-.562.219-.656.5zm-1.296 4c-.094.281.063.5.344.5h9.5c.266 0 .562-.219.656-.5l.328-1c.094-.281-.063-.5-.344-.5h-9.5c-.266 0-.562.219-.656.5z"/></svg>