<svg xmlns="http://www.w3.org/2000/svg" width="22" height="28" viewBox="0 0 22 28"><path d="M21 0c.547 0 1 .453 1 1v26c0 .547-.453 1-1 1h-20c-.547 0-1-.453-1-1v-26c0-.547.453-1 1-1h20zm-13 4.5v1c0 .281.219.5.5.5h1c.281 0 .5-.219.5-.5v-1c0-.281-.219-.5-.5-.5h-1c-.281 0-.5.219-.5.5zm0 4v1c0 .281.219.5.5.5h1c.281 0 .5-.219.5-.5v-1c0-.281-.219-.5-.5-.5h-1c-.281 0-.5.219-.5.5zm0 4v1c0 .281.219.5.5.5h1c.281 0 .5-.219.5-.5v-1c0-.281-.219-.5-.5-.5h-1c-.281 0-.5.219-.5.5zm0 4v1c0 .281.219.5.5.5h1c.281 0 .5-.219.5-.5v-1c0-.281-.219-.5-.5-.5h-1c-.281 0-.5.219-.5.5zm-2 5v-1c0-.281-.219-.5-.5-.5h-1c-.281 0-.5.219-.5.5v1c0 .281.219.5.5.5h1c.281 0 .5-.219.5-.5zm0-4v-1c0-.281-.219-.5-.5-.5h-1c-.281 0-.5.219-.5.5v1c0 .281.219.5.5.5h1c.281 0 .5-.219.5-.5zm0-4v-1c0-.281-.219-.5-.5-.5h-1c-.281 0-.5.219-.5.5v1c0 .281.219.5.5.5h1c.281 0 .5-.219.5-.5zm0-4v-1c0-.281-.219-.5-.5-.5h-1c-.281 0-.5.219-.5.5v1c0 .281.219.5.5.5h1c.281 0 .5-.219.5-.5zm0-4v-1c0-.281-.219-.5-.5-.5h-1c-.281 0-.5.219-.5.5v1c0 .281.219.5.5.5h1c.281 0 .5-.219.5-.5zm8 20v-3c0-.281-.219-.5-.5-.5h-5c-.281 0-.5.219-.5.5v3c0 .281.219.5.5.5h5c.281 0 .5-.219.5-.5zm0-8v-1c0-.281-.219-.5-.5-.5h-1c-.281 0-.5.219-.5.5v1c0 .281.219.5.5.5h1c.281 0 .5-.219.5-.5zm0-4v-1c0-.281-.219-.5-.5-.5h-1c-.281 0-.5.219-.5.5v1c0 .281.219.5.5.5h1c.281 0 .5-.219.5-.5zm0-4v-1c0-.281-.219-.5-.5-.5h-1c-.281 0-.5.219-.5.5v1c0 .281.219.5.5.5h1c.281 0 .5-.219.5-.5zm0-4v-1c0-.281-.219-.5-.5-.5h-1c-.281 0-.5.219-.5.5v1c0 .281.219.5.5.5h1c.281 0 .5-.219.5-.5zm4 16v-1c0-.281-.219-.5-.5-.5h-1c-.281 0-.5.219-.5.5v1c0 .281.219.5.5.5h1c.281 0 .5-.219.5-.5zm0-4v-1c0-.281-.219-.5-.5-.5h-1c-.281 0-.5.219-.5.5v1c0 .281.219.5.5.5h1c.281 0 .5-.219.5-.5zm0-4v-1c0-.281-.219-.5-.5-.5h-1c-.281 0-.5.219-.5.5v1c0 .281.219.5.5.5h1c.281 0 .5-.219.5-.5zm0-4v-1c0-.281-.219-.5-.5-.5h-1c-.281 0-.5.219-.5.5v1c0 .281.219.5.5.5h1c.281 0 .5-.219.5-.5zm0-4v-1c0-.281-.219-.5-.5-.5h-1c-.281 0-.5.219-.5.5v1c0 .281.219.5.5.5h1c.281 0 .5-.219.5-.5z"/></svg>