<svg xmlns="http://www.w3.org/2000/svg" width="22" height="28" viewBox="0 0 22 28"><path d="M6 20.5v1c0 .266-.234.5-.5.5h-1c-.266 0-.5-.234-.5-.5v-1c0-.266.234-.5.5-.5h1c.266 0 .5.234.5.5zm0-4v1c0 .266-.234.5-.5.5h-1c-.266 0-.5-.234-.5-.5v-1c0-.266.234-.5.5-.5h1c.266 0 .5.234.5.5zm4 0v1c0 .266-.234.5-.5.5h-1c-.266 0-.5-.234-.5-.5v-1c0-.266.234-.5.5-.5h1c.266 0 .5.234.5.5zm-4-4v1c0 .266-.234.5-.5.5h-1c-.266 0-.5-.234-.5-.5v-1c0-.266.234-.5.5-.5h1c.266 0 .5.234.5.5zm12 8v1c0 .266-.234.5-.5.5h-1c-.266 0-.5-.234-.5-.5v-1c0-.266.234-.5.5-.5h1c.266 0 .5.234.5.5zm-4-4v1c0 .266-.234.5-.5.5h-1c-.266 0-.5-.234-.5-.5v-1c0-.266.234-.5.5-.5h1c.266 0 .5.234.5.5zm-4-4v1c0 .266-.234.5-.5.5h-1c-.266 0-.5-.234-.5-.5v-1c0-.266.234-.5.5-.5h1c.266 0 .5.234.5.5zm-4-4v1c0 .266-.234.5-.5.5h-1c-.266 0-.5-.234-.5-.5v-1c0-.266.234-.5.5-.5h1c.266 0 .5.234.5.5zm12 8v1c0 .266-.234.5-.5.5h-1c-.266 0-.5-.234-.5-.5v-1c0-.266.234-.5.5-.5h1c.266 0 .5.234.5.5zm-4-4v1c0 .266-.234.5-.5.5h-1c-.266 0-.5-.234-.5-.5v-1c0-.266.234-.5.5-.5h1c.266 0 .5.234.5.5zm-4-4v1c0 .266-.234.5-.5.5h-1c-.266 0-.5-.234-.5-.5v-1c0-.266.234-.5.5-.5h1c.266 0 .5.234.5.5zm-4-4v1c0 .266-.234.5-.5.5h-1c-.266 0-.5-.234-.5-.5v-1c0-.266.234-.5.5-.5h1c.266 0 .5.234.5.5zm12 8v1c0 .266-.234.5-.5.5h-1c-.266 0-.5-.234-.5-.5v-1c0-.266.234-.5.5-.5h1c.266 0 .5.234.5.5zm-4-4v1c0 .266-.234.5-.5.5h-1c-.266 0-.5-.234-.5-.5v-1c0-.266.234-.5.5-.5h1c.266 0 .5.234.5.5zm-4-4v1c0 .266-.234.5-.5.5h-1c-.266 0-.5-.234-.5-.5v-1c0-.266.234-.5.5-.5h1c.266 0 .5.234.5.5zm8 4v1c0 .266-.234.5-.5.5h-1c-.266 0-.5-.234-.5-.5v-1c0-.266.234-.5.5-.5h1c.266 0 .5.234.5.5zm-4-4v1c0 .266-.234.5-.5.5h-1c-.266 0-.5-.234-.5-.5v-1c0-.266.234-.5.5-.5h1c.266 0 .5.234.5.5zm4 0v1c0 .266-.234.5-.5.5h-1c-.266 0-.5-.234-.5-.5v-1c0-.266.234-.5.5-.5h1c.266 0 .5.234.5.5zm-4 21.5h6v-24h-18v24h6v-3.5c0-.266.234-.5.5-.5h5c.266 0 .5.234.5.5v3.5zm8-25v26c0 .547-.453 1-1 1h-20c-.547 0-1-.453-1-1v-26c0-.547.453-1 1-1h20c.547 0 1 .453 1 1z"/></svg>