<svg xmlns="http://www.w3.org/2000/svg" width="26" height="28" viewBox="0 0 26 28"><path d="M6 24c0-1.109-.891-2-2-2s-2 .891-2 2 .891 2 2 2 2-.891 2-2zm6 0c0-1.109-.891-2-2-2s-2 .891-2 2 .891 2 2 2 2-.891 2-2zm-6-6c0-1.109-.891-2-2-2s-2 .891-2 2 .891 2 2 2 2-.891 2-2zm12 6c0-1.109-.891-2-2-2s-2 .891-2 2 .891 2 2 2 2-.891 2-2zm-6-6c0-1.109-.891-2-2-2s-2 .891-2 2 .891 2 2 2 2-.891 2-2zm-6-6c0-1.109-.891-2-2-2s-2 .891-2 2 .891 2 2 2 2-.891 2-2zm12 6c0-1.109-.891-2-2-2s-2 .891-2 2 .891 2 2 2 2-.891 2-2zm-6-6c0-1.109-.891-2-2-2s-2 .891-2 2 .891 2 2 2 2-.891 2-2zm12 12v-6c0-1.094-.906-2-2-2-1.094 0-2 .906-2 2v6c0 1.094.906 2 2 2 1.094 0 2-.906 2-2zm-6-12c0-1.109-.891-2-2-2s-2 .891-2 2 .891 2 2 2 2-.891 2-2zm6-5v-4c0-.547-.453-1-1-1h-20c-.547 0-1 .453-1 1v4c0 .547.453 1 1 1h20c.547 0 1-.453 1-1zm0 5c0-1.109-.891-2-2-2s-2 .891-2 2 .891 2 2 2 2-.891 2-2zm2-10v24c0 1.094-.906 2-2 2h-22c-1.094 0-2-.906-2-2v-24c0-1.094.906-2 2-2h22c1.094 0 2 .906 2 2z"/></svg>