<svg xmlns="http://www.w3.org/2000/svg" width="26" height="28" viewBox="0 0 26 28"><path d="M18 17.5v1c0 .281-.219.5-.5.5h-9c-.281 0-.5-.219-.5-.5v-1c0-.281.219-.5.5-.5h9c.281 0 .5.219.5.5zm-16 8.5h22v-16h-22v16zm6-19v-4.5c0-.281-.219-.5-.5-.5h-1c-.281 0-.5.219-.5.5v4.5c0 .281.219.5.5.5h1c.281 0 .5-.219.5-.5zm12 0v-4.5c0-.281-.219-.5-.5-.5h-1c-.281 0-.5.219-.5.5v4.5c0 .281.219.5.5.5h1c.281 0 .5-.219.5-.5zm6-1v20c0 1.094-.906 2-2 2h-22c-1.094 0-2-.906-2-2v-20c0-1.094.906-2 2-2h2v-1.5c0-1.375 1.125-2.5 2.5-2.5h1c1.375 0 2.5 1.125 2.5 2.5v1.5h6v-1.5c0-1.375 1.125-2.5 2.5-2.5h1c1.375 0 2.5 1.125 2.5 2.5v1.5h2c1.094 0 2 .906 2 2z"/></svg>