<svg xmlns="http://www.w3.org/2000/svg" width="26" height="28" viewBox="0 0 26 28"><path d="M17.359 21.641l-.719.719c-.187.187-.5.187-.703 0l-2.938-2.953-2.938 2.953c-.203.187-.516.187-.703 0l-.719-.719c-.187-.187-.187-.5 0-.703l2.953-2.938-2.953-2.938c-.187-.203-.187-.516 0-.703l.719-.719c.187-.187.5-.187.703 0l2.938 2.938 2.938-2.938c.203-.187.516-.187.703 0l.719.719c.187.187.187.5 0 .703l-2.938 2.938 2.938 2.938c.187.203.187.516 0 .703zm-15.359 4.359h22v-16h-22v16zm6-19v-4.5c0-.281-.219-.5-.5-.5h-1c-.281 0-.5.219-.5.5v4.5c0 .281.219.5.5.5h1c.281 0 .5-.219.5-.5zm12 0v-4.5c0-.281-.219-.5-.5-.5h-1c-.281 0-.5.219-.5.5v4.5c0 .281.219.5.5.5h1c.281 0 .5-.219.5-.5zm6-1v20c0 1.094-.906 2-2 2h-22c-1.094 0-2-.906-2-2v-20c0-1.094.906-2 2-2h2v-1.5c0-1.375 1.125-2.5 2.5-2.5h1c1.375 0 2.5 1.125 2.5 2.5v1.5h6v-1.5c0-1.375 1.125-2.5 2.5-2.5h1c1.375 0 2.5 1.125 2.5 2.5v1.5h2c1.094 0 2 .906 2 2z"/></svg>