<svg xmlns="http://www.w3.org/2000/svg" width="24" height="28" viewBox="0 0 24 28"><path d="M17 14c0 .328-.156.625-.422.812l-7 5c-.297.219-.703.25-1.031.078-.344-.172-.547-.516-.547-.891v-10c0-.375.203-.719.547-.891.328-.172.734-.141 1.031.078l7 5c.266.187.422.484.422.812zm3 7.5v-15c0-.281-.219-.5-.5-.5h-15c-.281 0-.5.219-.5.5v15c0 .281.219.5.5.5h15c.281 0 .5-.219.5-.5zm4-15v15c0 2.484-2.016 4.5-4.5 4.5h-15c-2.484 0-4.5-2.016-4.5-4.5v-15c0-2.484 2.016-4.5 4.5-4.5h15c2.484 0 4.5 2.016 4.5 4.5z"/></svg>