<svg xmlns="http://www.w3.org/2000/svg" width="26" height="28" viewBox="0 0 26 28"><path d="M20 11c0-.547-.453-1-1-1-.266 0-.516.109-.703.297l-2.297 2.281v-4.578c0-.547-.453-1-1-1s-1 .453-1 1v4.578l-2.297-2.281c-.187-.187-.438-.297-.703-.297-.547 0-1 .453-1 1 0 .266.109.516.297.703l4 4c.187.187.438.297.703.297s.516-.109.703-.297l4-4c.187-.187.297-.438.297-.703zm-10 13c0 1.109-.891 2-2 2s-2-.891-2-2 .891-2 2-2 2 .891 2 2zm14 0c0 1.109-.891 2-2 2s-2-.891-2-2 .891-2 2-2 2 .891 2 2zm2-17v8c0 .5-.375.938-.891 1l-16.312 1.906c.063.344.203.734.203 1.094s-.219.688-.375 1h14.375c.547 0 1 .453 1 1s-.453 1-1 1h-16c-.547 0-1-.453-1-1 0-.484.734-1.687.953-2.141l-2.766-12.859h-3.187c-.547 0-1-.453-1-1s.453-1 1-1h4c1.062 0 1.078 1.25 1.234 2h18.766c.547 0 1 .453 1 1z"/></svg>