<svg xmlns="http://www.w3.org/2000/svg" width="24" height="28" viewBox="0 0 24 28"><path d="M21.5 14l2.156 2.109c.297.281.406.703.313 1.094-.109.391-.422.703-.812.797l-2.938.75.828 2.906c.109.391 0 .812-.297 1.094-.281.297-.703.406-1.094.297l-2.906-.828-.75 2.938c-.094.391-.406.703-.797.812l-.297.031c-.297 0-.594-.125-.797-.344l-2.109-2.156-2.109 2.156c-.281.297-.703.406-1.094.313-.406-.109-.703-.422-.797-.812l-.75-2.938-2.906.828c-.391.109-.812 0-1.094-.297-.297-.281-.406-.703-.297-1.094l.828-2.906-2.938-.75c-.391-.094-.703-.406-.812-.797-.094-.391.016-.812.313-1.094l2.156-2.109-2.156-2.109c-.297-.281-.406-.703-.313-1.094.109-.391.422-.703.812-.797l2.938-.75-.828-2.906c-.109-.391 0-.812.297-1.094.281-.297.703-.406 1.094-.297l2.906.828.75-2.938c.094-.391.406-.703.797-.797.391-.109.812 0 1.094.297l2.109 2.172 2.109-2.172c.281-.297.688-.406 1.094-.297.391.094.703.406.797.797l.75 2.938 2.906-.828c.391-.109.812 0 1.094.297.297.281.406.703.297 1.094l-.828 2.906 2.938.75c.391.094.703.406.812.797.094.391-.016.812-.313 1.094z"/></svg>