<svg xmlns="http://www.w3.org/2000/svg" width="26" height="28" viewBox="0 0 26 28"><path d="M22.75 19c0-.406-.156-.781-.438-1.062l-3.25-3.25c-.281-.281-.672-.438-1.062-.438-.453 0-.812.172-1.125.5.516.516 1.125.953 1.125 1.75 0 .828-.672 1.5-1.5 1.5-.797 0-1.234-.609-1.75-1.125-.328.313-.516.672-.516 1.141 0 .391.156.781.438 1.062l3.219 3.234c.281.281.672.422 1.062.422s.781-.141 1.062-.406l2.297-2.281c.281-.281.438-.656.438-1.047zm-10.984-11.016c0-.391-.156-.781-.438-1.062l-3.219-3.234c-.281-.281-.672-.438-1.062-.438s-.781.156-1.062.422l-2.297 2.281c-.281.281-.438.656-.438 1.047 0 .406.156.781.438 1.062l3.25 3.25c.281.281.672.422 1.062.422.453 0 .812-.156 1.125-.484-.516-.516-1.125-.953-1.125-1.75 0-.828.672-1.5 1.5-1.5.797 0 1.234.609 1.75 1.125.328-.313.516-.672.516-1.141zm13.984 11.016c0 1.188-.484 2.344-1.328 3.172l-2.297 2.281c-.844.844-1.984 1.297-3.172 1.297-1.203 0-2.344-.469-3.187-1.328l-3.219-3.234c-.844-.844-1.297-1.984-1.297-3.172 0-1.234.5-2.406 1.375-3.266l-1.375-1.375c-.859.875-2.016 1.375-3.25 1.375-1.188 0-2.344-.469-3.187-1.313l-3.25-3.25c-.859-.859-1.313-1.984-1.313-3.187 0-1.188.484-2.344 1.328-3.172l2.297-2.281c.844-.844 1.984-1.297 3.172-1.297 1.203 0 2.344.469 3.187 1.328l3.219 3.234c.844.844 1.297 1.984 1.297 3.172 0 1.234-.5 2.406-1.375 3.266l1.375 1.375c.859-.875 2.016-1.375 3.25-1.375 1.188 0 2.344.469 3.187 1.313l3.25 3.25c.859.859 1.313 1.984 1.313 3.187z"/></svg>