<svg xmlns="http://www.w3.org/2000/svg" width="26" height="28" viewBox="0 0 26 28"><path d="M22 14.531v4.969c0 2.484-2.016 4.5-4.5 4.5h-13c-2.484 0-4.5-2.016-4.5-4.5v-13c0-2.484 2.016-4.5 4.5-4.5h13c.625 0 1.25.125 1.828.391.141.063.25.203.281.359.031.172-.016.328-.141.453l-.766.766c-.094.094-.234.156-.359.156l-.141-.031c-.234-.063-.469-.094-.703-.094h-13c-1.375 0-2.5 1.125-2.5 2.5v13c0 1.375 1.125 2.5 2.5 2.5h13c1.375 0 2.5-1.125 2.5-2.5v-3.969c0-.125.047-.25.141-.344l1-1c.109-.109.234-.156.359-.156l.187.047c.187.078.313.25.313.453zm3.609-7.64l-12.719 12.719c-.5.5-1.281.5-1.781 0l-6.719-6.719c-.5-.5-.5-1.281 0-1.781l1.719-1.719c.5-.5 1.281-.5 1.781 0l4.109 4.109 10.109-10.109c.5-.5 1.281-.5 1.781 0l1.719 1.719c.5.5.5 1.281 0 1.781z"/></svg>