<svg xmlns="http://www.w3.org/2000/svg" width="24" height="28" viewBox="0 0 24 28"><path d="M20.062 11.469c0-.266-.094-.531-.281-.719l-1.422-1.406c-.187-.187-.438-.297-.703-.297s-.516.109-.703.297l-6.375 6.359-3.531-3.531c-.187-.187-.438-.297-.703-.297s-.516.109-.703.297l-1.422 1.406c-.187.187-.281.453-.281.719s.094.516.281.703l5.656 5.656c.187.187.453.297.703.297.266 0 .531-.109.719-.297l8.484-8.484c.187-.187.281-.438.281-.703zm3.938 2.531c0 6.625-5.375 12-12 12s-12-5.375-12-12 5.375-12 12-12 12 5.375 12 12z"/></svg>