<svg xmlns="http://www.w3.org/2000/svg" width="28" height="28" viewBox="0 0 28 28"><path d="M26 25.5v-17c0-.266-.234-.5-.5-.5h-17c-.266 0-.5.234-.5.5v17c0 .266.234.5.5.5h17c.266 0 .5-.234.5-.5zm2-17v17c0 1.375-1.125 2.5-2.5 2.5h-17c-1.375 0-2.5-1.125-2.5-2.5v-17c0-1.375 1.125-2.5 2.5-2.5h17c1.375 0 2.5 1.125 2.5 2.5zm-6-6v2.5h-2v-2.5c0-.266-.234-.5-.5-.5h-17c-.266 0-.5.234-.5.5v17c0 .266.234.5.5.5h2.5v2h-2.5c-1.375 0-2.5-1.125-2.5-2.5v-17c0-1.375 1.125-2.5 2.5-2.5h17c1.375 0 2.5 1.125 2.5 2.5z"/></svg>