<svg xmlns="http://www.w3.org/2000/svg" width="30" height="28" viewBox="0 0 30 28"><path d="M9.641 21.859l-.781.781c-.203.203-.516.203-.719 0l-7.281-7.281c-.203-.203-.203-.516 0-.719l7.281-7.281c.203-.203.516-.203.719 0l.781.781c.203.203.203.516 0 .719l-6.141 6.141 6.141 6.141c.203.203.203.516 0 .719zm9.234-16.672l-5.828 20.172c-.078.266-.359.422-.609.344l-.969-.266c-.266-.078-.422-.359-.344-.625l5.828-20.172c.078-.266.359-.422.609-.344l.969.266c.266.078.422.359.344.625zm10.266 10.172l-7.281 7.281c-.203.203-.516.203-.719 0l-.781-.781c-.203-.203-.203-.516 0-.719l6.141-6.141-6.141-6.141c-.203-.203-.203-.516 0-.719l.781-.781c.203-.203.516-.203.719 0l7.281 7.281c.203.203.203.516 0 .719z"/></svg>