<svg xmlns="http://www.w3.org/2000/svg" width="24" height="28" viewBox="0 0 24 28"><path d="M16 14c0-2.203-1.797-4-4-4s-4 1.797-4 4 1.797 4 4 4 4-1.797 4-4zm8-1.703v3.469c0 .234-.187.516-.438.562l-2.891.438c-.172.5-.359.969-.609 1.422.531.766 1.094 1.453 1.672 2.156.094.109.156.25.156.391s-.047.25-.141.359c-.375.5-2.484 2.797-3.016 2.797-.141 0-.281-.063-.406-.141l-2.156-1.687c-.453.234-.938.438-1.422.594-.109.953-.203 1.969-.453 2.906-.063.25-.281.438-.562.438h-3.469c-.281 0-.531-.203-.562-.469l-.438-2.875c-.484-.156-.953-.344-1.406-.578l-2.203 1.672c-.109.094-.25.141-.391.141s-.281-.063-.391-.172c-.828-.75-1.922-1.719-2.578-2.625-.078-.109-.109-.234-.109-.359 0-.141.047-.25.125-.359.531-.719 1.109-1.406 1.641-2.141-.266-.5-.484-1.016-.641-1.547l-2.859-.422c-.266-.047-.453-.297-.453-.562v-3.469c0-.234.187-.516.422-.562l2.906-.438c.156-.5.359-.969.609-1.437-.531-.75-1.094-1.453-1.672-2.156-.094-.109-.156-.234-.156-.375s.063-.25.141-.359c.375-.516 2.484-2.797 3.016-2.797.141 0 .281.063.406.156l2.156 1.672c.453-.234.938-.438 1.422-.594.109-.953.203-1.969.453-2.906.063-.25.281-.438.562-.438h3.469c.281 0 .531.203.562.469l.438 2.875c.484.156.953.344 1.406.578l2.219-1.672c.094-.094.234-.141.375-.141s.281.063.391.156c.828.766 1.922 1.734 2.578 2.656.078.094.109.219.109.344 0 .141-.047.25-.125.359-.531.719-1.109 1.406-1.641 2.141.266.5.484 1.016.641 1.531l2.859.438c.266.047.453.297.453.562z"/></svg>