<svg xmlns="http://www.w3.org/2000/svg" width="32" height="28" viewBox="0 0 32 28"><path d="M32 13.984c0 .438-.313.797-.719.875l-3.203 5.563c.031.094.047.187.047.281 0 .422-.297.781-.703.859l-3.016 5.266c.031.078.047.156.047.25 0 .484-.391.891-.891.891-.25 0-.484-.109-.641-.281h-6.25c-.156.187-.406.313-.672.313s-.516-.125-.672-.313h-6.234c-.156.187-.391.313-.672.313-.484 0-.891-.391-.891-.891 0-.109.031-.219.063-.313l-3.016-5.234c-.406-.078-.703-.438-.703-.859 0-.109.016-.187.047-.281l-3.219-5.563c-.406-.094-.703-.453-.703-.875 0-.438.313-.797.734-.875l3.109-5.375-.016-.094c0-.359.219-.656.531-.797l3.266-5.672c-.031-.078-.063-.187-.063-.281 0-.5.406-.891.891-.891.281 0 .516.125.688.328h6.188c.156-.203.391-.328.672-.328s.516.125.672.328h6.219c.172-.203.406-.328.688-.328.484 0 .891.391.891.891 0 .094-.031.187-.063.281l3.234 5.594c.469.016.859.406.859.875 0 .156-.047.297-.109.422l2.922 5.063c.391.078.688.438.688.859zm-15.391 12.485h6.078l-5.344-5.531h-2.234l-5.344 5.531h5.625c.156-.141.375-.25.609-.25s.453.109.609.25zm-14.859-12.688l.016.203-.031.234 3.25 5.625.234.094 2.938-3.109v-5.422l-2.922-3.031c-.141.094-.297.141-.453.156zm13.656-12.25h-6.062l2.969 3.125 8.656-3.125h-4.375c-.156.156-.359.25-.594.25s-.438-.094-.594-.25zm10.985 18.938l.078-.172-1-1.062-.266 1.234h1.188zm-1.657 0l.344-1.641-3.938-4.156-4.625 4.797.984 1h7.234zm-1.375 5.75l.25-.438 1.016-4.844h-6.672l5.203 5.359.203-.078zm-14.328.25h.078l5.344-5.531h-5.828v5.234l.063.094c.141.047.25.109.344.203zm-.406-6h6.281l1-1.031-4.828-5.016-2.453 2.594v3.453zm-3.016 0h2.547v-2.953l-2.625 2.766.078.187zm-.015-12.891l.016.063c0 .172-.047.328-.125.453l2.672 2.766v-4.203zm3.031-1.094v4.859l2.391 2.453 4.641-4.906-3.484-3.687zm.062-4.75l-.063.125v4.125l3.203-1.156-2.984-3.141-.156.047zm13.922-.203h-.25l-9.703 3.5 3.328 3.516zm-6.625 7.688l-4.641 4.922 4.859 4.984 4.625-4.797zm-5.234 4.875l-2.125-2.203v4.438zm5.469 5.687l-.656.688h1.328zm5.25-5.437l3.719 3.922 2.063-9.75-.047-.078-.016-.016zm5.375-6.25c-.078-.125-.125-.281-.125-.453v-.031l-3.375-5.875-.203-.078-6.828 7.234 4.844 5.109zm-18.688-1.938v-3.484l-2.547 4.406zm0 14.781h-2.547l2.547 4.422v-4.422zm16.953 0l-.75 3.547 2.031-3.547h-1.281zm1.907-1.093l3.234-5.641-.031-.219.047-.25-2.672-4.625-2.016 9.562 1.203 1.281.234-.109z"/></svg>