<svg xmlns="http://www.w3.org/2000/svg" width="24" height="28" viewBox="0 0 24 28"><path d="M17.969 16.781v1.703c0 2.203-3.516 3.016-5.719 3.016-4.281 0-7.5-3.266-7.5-7.578 0-4.234 3.187-7.422 7.422-7.422 1.547 0 5.594.547 5.594 3.031v1.703c0 .141-.109.25-.25.25h-1.844c-.141 0-.25-.109-.25-.25v-1.094c0-.984-1.891-1.437-3.172-1.437-2.922 0-4.953 2.109-4.953 5.141 0 3.141 2.125 5.437 5.078 5.437 1.125 0 3.25-.422 3.25-1.406v-1.094c0-.141.109-.25.234-.25h1.859c.125 0 .25.109.25.25zm-5.969-12.781c-5.516 0-10 4.484-10 10s4.484 10 10 10 10-4.484 10-10-4.484-10-10-10zm12 10c0 6.625-5.375 12-12 12s-12-5.375-12-12 5.375-12 12-12 12 5.375 12 12z"/></svg>