<svg xmlns="http://www.w3.org/2000/svg" width="28" height="28" viewBox="0 0 28 28"><path d="M26.5 6c.828 0 1.5.672 1.5 1.5v19c0 .828-.672 1.5-1.5 1.5h-15c-.828 0-1.5-.672-1.5-1.5v-4.5h-8.5c-.828 0-1.5-.672-1.5-1.5v-10.5c0-.828.484-1.984 1.062-2.562l6.375-6.375c.578-.578 1.734-1.062 2.562-1.062h6.5c.828 0 1.5.672 1.5 1.5v5.125c.609-.359 1.391-.625 2-.625h6.5zm-8.5 3.328l-4.672 4.672h4.672v-4.672zm-10-6l-4.672 4.672h4.672v-4.672zm3.062 10.11l4.937-4.937v-6.5h-6v6.5c0 .828-.672 1.5-1.5 1.5h-6.5v10h8v-4c0-.828.484-1.984 1.062-2.562zm14.938 12.562v-18h-6v6.5c0 .828-.672 1.5-1.5 1.5h-6.5v10h14z"/></svg>