<svg xmlns="http://www.w3.org/2000/svg" width="28" height="28" viewBox="0 0 28 28"><path d="M15 14c.547 0 1 .453 1 1s-.453 1-1 1-1-.453-1-1 .453-1 1-1zm4.688 1l7.922 6.219c.281.203.422.547.391.875-.047.344-.25.641-.547.797l-2 1c-.141.078-.297.109-.453.109-.172 0-.344-.047-.484-.125l-10.781-6.047-1.719 1.031-.187.078c.141.484.203 1 .156 1.516-.141 1.609-1.219 3.141-2.938 4.234-1.328.844-2.859 1.313-4.328 1.313-1.406 0-2.594-.422-3.469-1.219-.891-.828-1.344-2.016-1.234-3.234.141-1.594 1.219-3.141 2.922-4.234 1.328-.844 2.875-1.313 4.344-1.313.875 0 1.672.172 2.359.484.094-.141.203-.25.344-.344l1.906-1.141-1.906-1.141c-.141-.094-.25-.203-.344-.344-.688.313-1.484.484-2.359.484-1.469 0-3.016-.469-4.344-1.313-1.703-1.094-2.781-2.641-2.922-4.234-.109-1.219.344-2.406 1.234-3.219.875-.812 2.063-1.234 3.469-1.234 1.469 0 3 .469 4.328 1.313 1.719 1.078 2.797 2.625 2.938 4.234.047.516-.016 1.031-.156 1.516l.187.078 1.719 1.031 10.781-6.047c.141-.078.313-.125.484-.125.156 0 .313.031.453.109l2 1c.297.156.5.453.547.797.031.328-.109.672-.391.875zm-10.641-4.062c.953-.875.359-2.453-1.328-3.516-.953-.609-2.063-.922-3-.922-.719 0-1.359.187-1.766.562-.953.875-.359 2.453 1.328 3.516.953.609 2.047.922 3 .922.719 0 1.359-.187 1.766-.562zm-1.328 11.64c1.687-1.062 2.281-2.641 1.328-3.516-.406-.375-1.047-.562-1.766-.562-.953 0-2.047.313-3 .922-1.687 1.062-2.281 2.641-1.328 3.516.406.375 1.047.562 1.766.562.938 0 2.047-.313 3-.922zm2.781-9.578l1.5.906v-.172c0-.359.203-.688.516-.875l.219-.125-1.234-.734-.406.406-.344.359-.109.094zm3.5 3.5l1.5.5 11.5-9-2-1-12 6.734v1.766l-2.5 1.5.141.125.109.094.344.375.406.406zm11 6.5l2-1-8.125-6.375-2.766 2.156c-.047.063-.125.078-.203.109z"/></svg>