<svg xmlns="http://www.w3.org/2000/svg" width="28" height="28" viewBox="0 0 28 28"><path d="M6 8.5v9c0 .266-.234.5-.5.5-.125 0-.266-.047-.359-.141l-4.5-4.5c-.094-.094-.141-.234-.141-.359s.047-.266.141-.359l4.5-4.5c.094-.094.234-.141.359-.141.266 0 .5.234.5.5zm22 12v3c0 .266-.234.5-.5.5h-27c-.266 0-.5-.234-.5-.5v-3c0-.266.234-.5.5-.5h27c.266 0 .5.234.5.5zm0-6v3c0 .266-.234.5-.5.5h-17c-.266 0-.5-.234-.5-.5v-3c0-.266.234-.5.5-.5h17c.266 0 .5.234.5.5zm0-6v3c0 .266-.234.5-.5.5h-17c-.266 0-.5-.234-.5-.5v-3c0-.266.234-.5.5-.5h17c.266 0 .5.234.5.5zm0-6v3c0 .266-.234.5-.5.5h-27c-.266 0-.5-.234-.5-.5v-3c0-.266.234-.5.5-.5h27c.266 0 .5.234.5.5z"/></svg>