<svg xmlns="http://www.w3.org/2000/svg" width="32" height="28" viewBox="0 0 32 28"><path d="M3.313 12l9.734 10.391-4.688-10.391h-5.047zm12.687 12.063l5.453-12.063h-10.906zm-7.594-14.063l3.187-6h-4.094l-4.5 6h5.406zm10.547 12.391l9.734-10.391h-5.047zm-8.281-12.391h10.656l-3.187-6h-4.281zm12.922 0h5.406l-4.5-6h-4.094zm2.203-7.594l6 8c.297.375.266.922-.063 1.281l-15 16c-.187.203-.453.313-.734.313s-.547-.109-.734-.313l-15-16c-.328-.359-.359-.906-.063-1.281l6-8c.187-.266.484-.406.797-.406h18c.313 0 .609.141.797.406z"/></svg>