<svg xmlns="http://www.w3.org/2000/svg" width="16" height="28" viewBox="0 0 16 28"><path d="M15.281 18.516c0 3.187-2.281 5.703-5.594 6.25v2.734c0 .281-.219.5-.5.5h-2.109c-.266 0-.5-.219-.5-.5v-2.734c-3.656-.516-5.656-2.703-5.734-2.797-.156-.187-.172-.453-.031-.641l1.609-2.109c.078-.109.219-.172.359-.187s.281.031.375.141c.031.016 2.219 2.109 4.984 2.109 1.531 0 3.187-.812 3.187-2.578 0-1.5-1.844-2.234-3.953-3.078-2.812-1.109-6.312-2.516-6.312-6.438 0-2.875 2.25-5.25 5.516-5.875v-2.812c0-.281.234-.5.5-.5h2.109c.281 0 .5.219.5.5v2.75c3.172.359 4.859 2.078 4.922 2.141.156.172.187.406.078.594l-1.266 2.281c-.078.141-.203.234-.359.25-.156.031-.297-.016-.422-.109-.016-.016-1.906-1.687-4.25-1.687-1.984 0-3.359.984-3.359 2.406 0 1.656 1.906 2.391 4.125 3.25 2.875 1.109 6.125 2.375 6.125 6.141z"/></svg>