<svg xmlns="http://www.w3.org/2000/svg" width="26" height="28" viewBox="0 0 26 28"><path d="M20 21c0-.547-.453-1-1-1s-1 .453-1 1 .453 1 1 1 1-.453 1-1zm4 0c0-.547-.453-1-1-1s-1 .453-1 1 .453 1 1 1 1-.453 1-1zm2-3.5v5c0 .828-.672 1.5-1.5 1.5h-23c-.828 0-1.5-.672-1.5-1.5v-5c0-.828.672-1.5 1.5-1.5h7.266l2.109 2.125c.578.562 1.328.875 2.125.875s1.547-.313 2.125-.875l2.125-2.125h7.25c.828 0 1.5.672 1.5 1.5zm-5.078-8.891c.156.375.078.812-.219 1.094l-7 7c-.187.203-.453.297-.703.297s-.516-.094-.703-.297l-7-7c-.297-.281-.375-.719-.219-1.094.156-.359.516-.609.922-.609h4v-7c0-.547.453-1 1-1h4c.547 0 1 .453 1 1v7h4c.406 0 .766.25.922.609z"/></svg>