<svg xmlns="http://www.w3.org/2000/svg" width="24" height="28" viewBox="0 0 24 28"><path d="M16 23.438c-.156-.906-.75-4.031-2.188-7.781l-.063.016s-6.078 2.125-8.047 6.406l-.234-.172c1.781 1.453 4.047 2.344 6.531 2.344 1.422 0 2.766-.297 4-.812zm-2.891-9.485c-.25-.578-.531-1.156-.828-1.734-5.281 1.578-10.344 1.453-10.516 1.453l-.016.328c0 2.625 1 5.031 2.625 6.844 2.797-4.984 8.328-6.766 8.328-6.766l.406-.125zm-1.671-3.312c-1.781-3.156-3.672-5.719-3.813-5.906-2.859 1.344-4.984 3.984-5.656 7.156.266 0 4.547.047 9.469-1.25zm10.687 4.984c-.219-.063-3.078-.969-6.391-.453 1.344 3.703 1.891 6.719 2 7.328 2.297-1.547 3.922-4.016 4.391-6.875zm-12.578-11.578l-.031.016.031-.016zm9.219 2.265c-1.797-1.594-4.172-2.562-6.766-2.562-.828 0-1.641.109-2.422.297.156.203 2.094 2.75 3.844 5.969 3.859-1.437 5.313-3.656 5.344-3.703zm3.484 7.579c-.031-2.422-.891-4.656-2.328-6.406-.031.031-1.672 2.406-5.719 4.062.234.484.469.984.688 1.484l.219.531c3.531-.453 7.016.313 7.141.328zm1.75.109c0 6.625-5.375 12-12 12s-12-5.375-12-12 5.375-12 12-12 12 5.375 12 12z"/></svg>