<svg xmlns="http://www.w3.org/2000/svg" width="32" height="28" viewBox="0 0 32 28"><path d="M14 18.937c0 1.141-.75 2.063-1.672 2.063h-6.656c-.922 0-1.672-.922-1.672-2.063 0-2.063.5-4.438 2.562-4.438.625.625 1.484 1 2.438 1s1.813-.375 2.438-1c2.063 0 2.562 2.375 2.562 4.438zm-2-6.937c0 1.656-1.344 3-3 3s-3-1.344-3-3 1.344-3 3-3 3 1.344 3 3zm16 6.5v1c0 .281-.219.5-.5.5h-11c-.281 0-.5-.219-.5-.5v-1c0-.281.219-.5.5-.5h11c.281 0 .5.219.5.5zm-6-4v1c0 .281-.219.5-.5.5h-5c-.281 0-.5-.219-.5-.5v-1c0-.281.219-.5.5-.5h5c.281 0 .5.219.5.5zm6 0v1c0 .281-.219.5-.5.5h-3c-.281 0-.5-.219-.5-.5v-1c0-.281.219-.5.5-.5h3c.281 0 .5.219.5.5zm0-4v1c0 .281-.219.5-.5.5h-11c-.281 0-.5-.219-.5-.5v-1c0-.281.219-.5.5-.5h11c.281 0 .5.219.5.5zm2 13v-17.5h-28v17.5c0 .266.234.5.5.5h27c.266 0 .5-.234.5-.5zm2-19v19c0 1.375-1.125 2.5-2.5 2.5h-27c-1.375 0-2.5-1.125-2.5-2.5v-19c0-1.375 1.125-2.5 2.5-2.5h27c1.375 0 2.5 1.125 2.5 2.5z"/></svg>