<svg xmlns="http://www.w3.org/2000/svg" width="28" height="28" viewBox="0 0 28 28"><path d="M28 10.219v15.281c0 1.375-1.125 2.5-2.5 2.5h-23c-1.375 0-2.5-1.125-2.5-2.5v-15.281c0-.141.063-.281.172-.375 1.641-1.437 1.656-1.609 9.812-7.562.984-.719 2.719-2.281 4.016-2.281s3.047 1.578 4.016 2.281c8.156 5.953 8.172 6.125 9.812 7.562.109.094.172.234.172.375zm-8.813 9.14c2.438-1.766 4.141-3 5.391-3.938.219-.156.266-.469.094-.688l-.594-.812c-.172-.219-.484-.266-.703-.094-1.234.906-2.922 2.156-5.359 3.906-.969.703-2.719 2.266-4.016 2.266s-3.047-1.563-4.016-2.266c-2.438-1.766-4.125-3-5.359-3.906-.219-.172-.531-.125-.703.094l-.594.812c-.172.219-.125.531.094.688 1.25.938 2.953 2.172 5.391 3.938 1.219.875 3.141 2.641 5.187 2.641 2.063 0 4.031-1.797 5.187-2.641z"/></svg>