<svg xmlns="http://www.w3.org/2000/svg" width="24" height="28" viewBox="0 0 24 28"><path d="M19.5 2c2.484 0 4.5 2.016 4.5 4.5v15c0 2.484-2.016 4.5-4.5 4.5h-15c-2.484 0-4.5-2.016-4.5-4.5v-15c0-2.484 2.016-4.5 4.5-4.5h15zm.5 16.5v-6.813c-.297.328-.625.625-1 .859-1.469.969-2.984 1.875-4.438 2.875-.734.516-1.641 1.078-2.562 1.078-.922 0-1.828-.562-2.562-1.078l-4.438-2.891c-.359-.234-.641-.578-1-.844v6.813c0 .828.672 1.5 1.5 1.5h13c.828 0 1.5-.672 1.5-1.5zm0-8.953c0-.844-.625-1.547-1.5-1.547h-13c-.828 0-1.5.672-1.5 1.5 0 .844.875 1.766 1.531 2.203 1.375.922 2.797 1.781 4.172 2.688.594.391 1.578 1.109 2.297 1.109s1.703-.719 2.297-1.109c1.391-.906 2.781-1.797 4.172-2.719.609-.406 1.531-1.344 1.531-2.125z"/></svg>