<svg xmlns="http://www.w3.org/2000/svg" width="28" height="28" viewBox="0 0 28 28"><path d="M14 1c-7.172 0-13 5.828-13 13s5.828 13 13 13 13-5.828 13-13-5.828-13-13-13zm0-1c7.734 0 14 6.266 14 14s-6.266 14-14 14-14-6.266-14-14 6.266-14 14-14zm-6.25 13c.141 0 .25.109.25.25v7.5c0 .141-.109.25-.25.25h-.5c-.141 0-.25-.109-.25-.25v-7.5c0-.141.109-.25.25-.25h.5zm6.25 1c1.109 0 2 .891 2 2 0 .734-.406 1.375-1 1.719v1.781c0 .281-.219.5-.5.5h-1c-.281 0-.5-.219-.5-.5v-1.781c-.594-.344-1-.984-1-1.719 0-1.109.891-2 2-2zm0-12c6.625 0 12 5.375 12 12s-5.375 12-12 12-12-5.375-12-12 5.375-12 12-12zm-5.5 7.5v1.5c0 .281.219.5.5.5h1c.281 0 .5-.219.5-.5v-1.5c0-1.937 1.563-3.5 3.5-3.5s3.5 1.563 3.5 3.5v1.5c0 .281.219.5.5.5h1c.281 0 .5-.219.5-.5v-1.5c0-3.031-2.469-5.5-5.5-5.5s-5.5 2.469-5.5 5.5zm13.5 11.5v-8c0-.547-.453-1-1-1h-14c-.547 0-1 .453-1 1v8c0 .547.453 1 1 1h14c.547 0 1-.453 1-1z"/></svg>