<svg xmlns="http://www.w3.org/2000/svg" width="28" height="28" viewBox="0 0 28 28"><path d="M22 14.5v5c0 2.484-2.016 4.5-4.5 4.5h-13c-2.484 0-4.5-2.016-4.5-4.5v-13c0-2.484 2.016-4.5 4.5-4.5h11c.281 0 .5.219.5.5v1c0 .281-.219.5-.5.5h-11c-1.375 0-2.5 1.125-2.5 2.5v13c0 1.375 1.125 2.5 2.5 2.5h13c1.375 0 2.5-1.125 2.5-2.5v-5c0-.281.219-.5.5-.5h1c.281 0 .5.219.5.5zm6-13.5v8c0 .547-.453 1-1 1-.266 0-.516-.109-.703-.297l-2.75-2.75-10.187 10.187c-.094.094-.234.156-.359.156s-.266-.063-.359-.156l-1.781-1.781c-.094-.094-.156-.234-.156-.359s.063-.266.156-.359l10.187-10.187-2.75-2.75c-.187-.187-.297-.438-.297-.703 0-.547.453-1 1-1h8c.547 0 1 .453 1 1z"/></svg>