<svg xmlns="http://www.w3.org/2000/svg" width="28" height="28" viewBox="0 0 28 28"><path d="M8.672 20.859l1.219-2.203c-1.813-1.313-2.891-3.422-2.891-5.656 0-1.234.328-2.453.953-3.516-2.438 1.25-4.469 3.219-5.953 5.516 1.625 2.516 3.922 4.625 6.672 5.859zm6.078-11.859c0-.406-.344-.75-.75-.75-2.609 0-4.75 2.141-4.75 4.75 0 .406.344.75.75.75s.75-.344.75-.75c0-1.797 1.469-3.25 3.25-3.25.406 0 .75-.344.75-.75zm5.672-2.984l-.016.141c-3.297 5.891-6.563 11.813-9.859 17.703l-.766 1.391c-.094.156-.266.25-.438.25-.281 0-1.766-.906-2.094-1.094-.156-.094-.25-.25-.25-.438 0-.25.531-1.094.688-1.359-3.031-1.375-5.578-3.719-7.375-6.531-.203-.313-.313-.688-.313-1.078 0-.375.109-.766.313-1.078 3.094-4.75 7.922-7.922 13.687-7.922.938 0 1.891.094 2.812.266l.844-1.516c.094-.156.25-.25.438-.25.281 0 1.75.906 2.078 1.094.156.094.25.25.25.422zm.578 6.984c0 2.906-1.797 5.5-4.5 6.531l4.375-7.844c.078.438.125.875.125 1.313zm7 2c0 .406-.109.734-.313 1.078-.484.797-1.094 1.563-1.703 2.266-3.063 3.516-7.281 5.656-11.984 5.656l1.156-2.063c4.547-.391 8.406-3.156 10.844-6.937-1.156-1.797-2.641-3.375-4.406-4.594l.984-1.75c1.937 1.297 3.891 3.25 5.109 5.266.203.344.313.672.313 1.078z"/></svg>