<svg xmlns="http://www.w3.org/2000/svg" width="24" height="28" viewBox="0 0 24 28"><path d="M22.937 7.438c.156.156.297.344.438.562h-7.375v-7.375c.219.141.406.281.562.438zm-7.437 2.562h8.5v16.5c0 .828-.672 1.5-1.5 1.5h-21c-.828 0-1.5-.672-1.5-1.5v-25c0-.828.672-1.5 1.5-1.5h12.5v8.5c0 .828.672 1.5 1.5 1.5zm2.5 11.5v-1c0-.281-.219-.5-.5-.5h-11c-.281 0-.5.219-.5.5v1c0 .281.219.5.5.5h11c.281 0 .5-.219.5-.5zm0-4v-1c0-.281-.219-.5-.5-.5h-11c-.281 0-.5.219-.5.5v1c0 .281.219.5.5.5h11c.281 0 .5-.219.5-.5zm0-4v-1c0-.281-.219-.5-.5-.5h-11c-.281 0-.5.219-.5.5v1c0 .281.219.5.5.5h11c.281 0 .5-.219.5-.5z"/></svg>