<svg xmlns="http://www.w3.org/2000/svg" width="22" height="28" viewBox="0 0 22 28"><path d="M8 3c0-.547-.453-1-1-1s-1 .453-1 1 .453 1 1 1 1-.453 1-1zm14-.5v5c0 .156-.063.297-.187.391-.094.078-.203.109-.313.109l-.109-.016-7-1.5c-.219-.047-.391-.25-.391-.484h-4v1.594c2.281.469 4 2.484 4 4.906v12.5c0 .547-.453 1-1 1h-8c-.547 0-1-.453-1-1v-12.5c0-2.234 1.469-4.141 3.5-4.766v-1.734h-.5c-3.313 0-5.094 3.422-5.109 3.453-.172.344-.531.547-.891.547-.156 0-.313-.031-.453-.109-.484-.25-.688-.844-.438-1.344.078-.156 1.641-3.187 4.781-4.203-.234-.391-.391-.844-.391-1.344 0-1.375 1.125-2.5 2.5-2.5s2.5 1.125 2.5 2.5c0 .359-.078.688-.219 1h4.719c0-.234.172-.438.391-.484l7-1.5.109-.016c.109 0 .219.031.313.109.125.094.187.234.187.391z"/></svg>