<svg xmlns="http://www.w3.org/2000/svg" width="24" height="28" viewBox="0 0 24 28"><path d="M20.656 14c0 .406-.016.797-.078 1.188l-3.687-.219 3.5 1.219c-.203.797-.516 1.531-.906 2.203l-3.344-1.609 2.766 2.469c-.469.641-1.031 1.203-1.672 1.687l-2.453-2.781 1.609 3.359c-.672.406-1.406.703-2.188.922l-1.234-3.563.219 3.75c-.391.063-.781.094-1.188.094-.391 0-.797-.031-1.188-.094l.219-3.719-1.219 3.531c-.781-.203-1.516-.516-2.188-.922l1.609-3.359-2.453 2.781c-.641-.469-1.203-1.047-1.687-1.687l2.781-2.469-3.344 1.625c-.391-.688-.703-1.422-.906-2.203l3.5-1.234-3.703.219c-.047-.391-.078-.781-.078-1.188s.031-.812.078-1.203l3.719.219-3.516-1.234c.203-.781.516-1.516.906-2.188l3.344 1.625-2.766-2.484c.484-.641 1.047-1.203 1.672-1.687l2.469 2.781-1.609-3.359c.672-.391 1.406-.703 2.188-.906l1.203 3.5-.203-3.687c.375-.063.781-.094 1.172-.094.406 0 .797.031 1.188.094l-.219 3.703 1.219-3.516c.781.203 1.516.516 2.188.922l-1.609 3.344 2.469-2.781c.625.484 1.188 1.047 1.672 1.687l-2.766 2.484 3.328-1.625c.406.672.703 1.422.906 2.203l-3.5 1.219 3.703-.219c.063.391.078.797.078 1.203zm.469 0c0-5.078-4.094-9.188-9.125-9.188-5.047 0-9.125 4.109-9.125 9.188 0 5.063 4.078 9.172 9.125 9.172 5.031 0 9.125-4.109 9.125-9.172zm1.141-5.984v11.969l-10.266 5.984-10.266-5.984v-11.969l10.266-5.984zm-10.266 18.843l11.062-6.438v-12.859l-11.062-6.422-11.062 6.422v12.859zm12-19.859v14l-12 7-12-7v-14l12-7z"/></svg>