<svg xmlns="http://www.w3.org/2000/svg" width="29" height="28" viewBox="0 0 29 28"><path d="M26 16.328v-9.625c-1.25.672-3 1.422-4.781 1.422-.828 0-1.594-.156-2.266-.5-1.672-.828-3.484-1.625-5.656-1.625-2.016 0-4.484.984-6.297 1.984v9.359c2.063-.953 4.688-1.766 6.766-1.766 2.406 0 3.969.797 5.641 1.625l.438.219c.438.219.969.344 1.578.344 1.734 0 3.609-.922 4.578-1.437zm-21-12.328c0 .734-.406 1.375-1 1.719v19.781c0 .281-.219.5-.5.5h-1c-.281 0-.5-.219-.5-.5v-19.781c-.594-.344-1-.984-1-1.719 0-1.109.891-2 2-2s2 .891 2 2zm23 1v11.922c0 .375-.219.719-.547.891l-.266.141c-1 .531-3.359 1.813-5.766 1.813-.922 0-1.75-.187-2.469-.547l-.438-.219c-1.578-.797-2.828-1.422-4.75-1.422-2.25 0-5.422 1.172-7.25 2.281-.156.094-.344.141-.516.141s-.344-.047-.5-.125c-.313-.187-.5-.516-.5-.875v-11.594c0-.344.187-.672.484-.859 1-.594 4.531-2.547 7.812-2.547 2.609 0 4.734.953 6.531 1.828.406.203.875.297 1.391.297 1.844 0 3.875-1.172 4.844-1.75l.484-.266c.313-.156.672-.141.969.031.297.187.484.516.484.859z"/></svg>