<svg xmlns="http://www.w3.org/2000/svg" width="26" height="28" viewBox="0 0 26 28"><path d="M10 15.75v-3.5c0-.141-.109-.25-.25-.25h-1.5c-.141 0-.25.109-.25.25v3.5c0 .141.109.25.25.25h1.5c.141 0 .25-.109.25-.25zm8 0v-3.5c0-.141-.109-.25-.25-.25h-1.5c-.141 0-.25.109-.25.25v3.5c0 .141.109.25.25.25h1.5c.141 0 .25-.109.25-.25zm8 .5v11.75h-10v-5c0-1.656-1.344-3-3-3s-3 1.344-3 3v5h-10v-11.75c0-.141.109-.25.25-.25h1.5c.141 0 .25.109.25.25v1.75h2v-9.75c0-.141.109-.25.25-.25h1.5c.141 0 .25.109.25.25v1.75h2v-1.75c0-.141.109-.25.25-.25h1.5c.141 0 .25.109.25.25v1.75h2v-1.75c0-.328.438-.25.641-.25v-6.109c-.297-.141-.5-.453-.5-.781 0-.469.391-.859.859-.859s.859.391.859.859c0 .328-.203.641-.5.781v.266c.422-.094.859-.156 1.297-.156.641 0 1.25.234 1.781.234.484 0 1.031-.234 1.313-.234.141 0 .25.109.25.25v3.281c0 .375-1.266.438-1.516.438l-1.719-.234c-.469 0-.953.078-1.406.187v2.078c.203 0 .641-.078.641.25v1.75h2v-1.75c0-.141.109-.25.25-.25h1.5c.141 0 .25.109.25.25v1.75h2v-1.75c0-.141.109-.25.25-.25h1.5c.141 0 .25.109.25.25v9.75h2v-1.75c0-.141.109-.25.25-.25h1.5c.141 0 .25.109.25.25z"/></svg>