<svg xmlns="http://www.w3.org/2000/svg" width="20" height="28" viewBox="0 0 20 28"><path d="M15.625 6.781l.578-3.031c.109-.5-.266-.891-.688-.891h-11.125c-.5 0-.844.453-.844.844v17.203c0 .047.047.063.094.016 4.094-4.922 4.547-5.5 4.547-5.5.469-.547.656-.641 1.344-.641h3.734c.516 0 .812-.438.859-.688s.484-2.531.578-2.984-.328-.922-.75-.922h-4.594c-.609 0-1.047-.438-1.047-1.047v-.656c0-.609.438-1.031 1.047-1.031h5.406c.375 0 .797-.344.859-.672zm3.547-3.468c-.578 2.812-2.312 11.703-2.469 12.344-.187.734-.469 2.016-2.25 2.016h-4.234c-.172 0-.187-.016-.344.156 0 0-.109.125-6.656 7.719-.516.594-1.359.484-1.672.359s-.859-.5-.859-1.531v-22.031c0-.906.562-2.344 2.469-2.344h13.875c2.031 0 2.578 1.156 2.141 3.313zm0 0l-2.469 12.344c.156-.641 1.891-9.531 2.469-12.344z"/></svg>