<svg xmlns="http://www.w3.org/2000/svg" width="30" height="28" viewBox="0 0 30 28"><path d="M13 17v-2c0-.281-.219-.5-.5-.5h-3v-3c0-.281-.219-.5-.5-.5h-2c-.281 0-.5.219-.5.5v3h-3c-.281 0-.5.219-.5.5v2c0 .281.219.5.5.5h3v3c0 .281.219.5.5.5h2c.281 0 .5-.219.5-.5v-3h3c.281 0 .5-.219.5-.5zm9 1c0-1.109-.891-2-2-2s-2 .891-2 2 .891 2 2 2 2-.891 2-2zm4-4c0-1.109-.891-2-2-2s-2 .891-2 2 .891 2 2 2 2-.891 2-2zm4 2c0 4.422-3.578 8-8 8-2.031 0-3.875-.766-5.281-2h-3.437c-1.406 1.234-3.25 2-5.281 2-4.422 0-8-3.578-8-8s3.578-8 8-8h14c4.422 0 8 3.578 8 8z"/></svg>