<svg xmlns="http://www.w3.org/2000/svg" width="28" height="28" viewBox="0 0 28 28"><path d="M27.672 24c0 .531-.219 1.047-.578 1.406l-1.672 1.687c-.375.359-.891.578-1.422.578s-1.047-.219-1.406-.578l-5.672-5.688c-.375-.359-.594-.875-.594-1.406 0-.594.25-1.078.672-1.5l-4-4-1.969 1.969c-.141.141-.328.219-.531.219s-.391-.078-.531-.219c.469.469.906.812.906 1.531 0 .406-.156.766-.438 1.062-.531.562-1.094 1.313-1.937 1.313-.391 0-.781-.156-1.062-.438l-6.375-6.375c-.281-.281-.438-.672-.438-1.062 0-.844.75-1.406 1.313-1.937.297-.281.656-.438 1.062-.438.719 0 1.062.438 1.531.906-.141-.141-.219-.328-.219-.531s.078-.391.219-.531l5.437-5.437c.141-.141.328-.219.531-.219s.391.078.531.219c-.469-.469-.906-.812-.906-1.531 0-.406.156-.766.438-1.062.531-.562 1.094-1.313 1.937-1.313.391 0 .781.156 1.062.438l6.375 6.375c.281.281.438.672.438 1.062 0 .844-.75 1.406-1.313 1.937-.297.281-.656.438-1.062.438-.719 0-1.062-.438-1.531-.906.141.141.219.328.219.531s-.078.391-.219.531l-1.969 1.969 4 4c.422-.422.906-.672 1.5-.672.531 0 1.047.219 1.422.578l5.672 5.672c.359.375.578.891.578 1.422z"/></svg>