<svg xmlns="http://www.w3.org/2000/svg" width="16" height="28" viewBox="0 0 16 28"><path d="M15.937 17.766v5.734c0 .281-.219.5-.5.5h-14.938c-.281 0-.5-.219-.5-.5v-2.344c0-.266.219-.5.5-.5h1.516v-5.984h-1.484c-.281 0-.5-.219-.5-.5v-2.047c0-.281.219-.5.5-.5h1.484v-3.484c0-3.563 2.875-6.141 6.844-6.141 3.125 0 5.141 1.875 5.234 1.953.187.172.203.469.047.672l-1.609 1.984c-.094.109-.203.172-.344.187-.125.016-.266-.031-.359-.109-.016-.016-1.359-1.078-2.938-1.078-1.766 0-2.953 1.062-2.953 2.656v3.359h4.766c.281 0 .5.219.5.5v2.047c0 .281-.219.5-.5.5h-4.766v5.922h6.469v-2.828c0-.281.219-.5.5-.5h2.531c.281 0 .5.219.5.5z"/></svg>