<svg xmlns="http://www.w3.org/2000/svg" width="24" height="28" viewBox="0 0 24 28"><path d="M14.5 21.187v-11.188h-5v11.188c0 .547.453.812 1 .812h3c.547 0 1-.266 1-.812zm-7.125-13.187h3.047l-1.969-2.516c-.172-.203-.547-.484-1.078-.484-.828 0-1.5.672-1.5 1.5s.672 1.5 1.5 1.5zm10.75-1.5c0-.828-.672-1.5-1.5-1.5-.531 0-.906.281-1.078.484l-1.953 2.516h3.031c.828 0 1.5-.672 1.5-1.5zm5.875 4v5c0 .281-.219.5-.5.5h-1.5v6.5c0 .828-.672 1.5-1.5 1.5h-17c-.828 0-1.5-.672-1.5-1.5v-6.5h-1.5c-.281 0-.5-.219-.5-.5v-5c0-.281.219-.5.5-.5h6.875c-1.937 0-3.5-1.563-3.5-3.5s1.563-3.5 3.5-3.5c1.047 0 2.016.438 2.625 1.203l2 2.578 2-2.578c.609-.766 1.578-1.203 2.625-1.203 1.937 0 3.5 1.563 3.5 3.5s-1.563 3.5-3.5 3.5h6.875c.281 0 .5.219.5.5z"/></svg>