<svg xmlns="http://www.w3.org/2000/svg" width="26" height="28" viewBox="0 0 26 28"><path d="M10 19c0 1.141-.594 3-2 3s-2-1.859-2-3 .594-3 2-3 2 1.859 2 3zm10 0c0 1.141-.594 3-2 3s-2-1.859-2-3 .594-3 2-3 2 1.859 2 3zm2.5 0c0-2.391-1.453-4.5-4-4.5-1.031 0-2.016.187-3.047.328-.812.125-1.625.172-2.453.172s-1.641-.047-2.453-.172c-1.016-.141-2.016-.328-3.047-.328-2.547 0-4 2.109-4 4.5 0 4.781 4.375 5.516 8.188 5.516h2.625c3.813 0 8.188-.734 8.188-5.516zm3.5-2.75c0 1.734-.172 3.578-.953 5.172-2.063 4.172-7.734 4.578-11.797 4.578-4.125 0-10.141-.359-12.281-4.578-.797-1.578-.969-3.437-.969-5.172 0-2.281.625-4.438 2.125-6.188-.281-.859-.422-1.766-.422-2.656 0-1.172.266-2.344.797-3.406 2.469 0 4.047 1.078 5.922 2.547 1.578-.375 3.203-.547 4.828-.547 1.469 0 2.953.156 4.375.5 1.859-1.453 3.437-2.5 5.875-2.5.531 1.062.797 2.234.797 3.406 0 .891-.141 1.781-.422 2.625 1.5 1.766 2.125 3.938 2.125 6.219z"/></svg>