<svg xmlns="http://www.w3.org/2000/svg" width="28" height="28" viewBox="0 0 28 28"><path d="M6.891 10.5c.313 0 .625.156.812.406 2.734 3.734 4.641 7.734 5.656 12.094h-6.969c-1.25-4.344-3.094-8.313-5.734-11.703-.25-.328 0-.797.406-.797h5.828zm8.734 5.578c-.516 2.109-1.172 4.156-1.953 6.141-.828-3.266-2.156-6.328-4-9.281.406-2.266.641-4.594.688-7.016 2.203 3.547 3.953 6.922 5.266 10.156zm1.547-11.078c4.672 6.438 8.141 14.375 8.891 23h-7.047c-.516-8.344-4.359-16.25-8.641-23h6.797zm10.828 9c0 4.344-.594 8.906-1.578 12.688-.688-5.781-2.594-11.531-5.609-16.922-.266-3.156-.828-6.219-1.656-9.125-.078-.328.156-.641.484-.641h5.609c.438 0 .844.297.953.719 1.188 4.219 1.797 8.687 1.797 13.281z"/></svg>