<svg xmlns="http://www.w3.org/2000/svg" width="28" height="28" viewBox="0 0 28 28"><path d="M20.172 7.438c-.5-.562-1.313.391-.875.906.422.516 1.813.141.875-.906zm-6.188 3.843c-.172.172-.438.172-.594 0-.172-.156-.172-.422 0-.578.156-.172.422-.172.594 0 .156.156.156.422 0 .578zm2.578 1.156l-.547.547c-.25.266-.672.266-.938 0l-.594-.594c-.25-.266-.25-.672 0-.938l.547-.547c.25-.25.672-.25.938 0l.594.609c.25.25.25.672 0 .922zm-1.703-2.031c-.156.156-.422.156-.594 0-.156-.172-.156-.438 0-.594.172-.172.438-.172.594 0 .172.156.172.422 0 .594zm6.297-1.531c-.703 1.328-2.547 1.875-3.672 1.078-1.125-.812-1.906-2.438-.672-3.844 1.219-1.406 2.297-.969 3.375.047.672.641 1.656 1.406.969 2.719zm3.141 7.531c.141-.906-1.156-.938-1.437-1.453-.766-1.359-1.563-2.078-3.078-1.719.656-.453 1.328-.344 1.328-.344.016-.359 0-.734-.531-1.406.219-.703.016-1.266.016-1.266.875-.484 1.516-1.375 1.641-2.438.203-1.75-1.062-3.344-2.812-3.547-1.25-.141-2.469.438-3.063 1.453-1.313 2.266.078 4 1.266 4.594-.812-.078-1.937-.672-2.266-1.937-.375-1.453.156-2.812.5-3.469 0 0-.25-.328-.453-.5 0 0-.781 0-1.391.297.672-.859 1.422-.812 1.422-.812 0-.359-.031-.844-.203-1.219-.313-.641-1.406-.734-1.828.234l.063-.109c-.281.672-.063 3.156.953 4.922-.141.078-.516.344-.734.562-1.219.547-3.172 3.406-3.172 3.406-1.594.609-4.375 2.875-4 4.5.016.172.078.313.172.422-.156.125-.313.281-.469.469-.672.781-.297 1.984 1 1.375.891-.406 1.687-1.141 2.063-1.719 0 0-.328-.281-.938-.25 1.563-.375 1.953-.531 2.625-.516.453.219.453-1.937.453-1.937 0-.828-.125-1.75-.625-2.344.703.688 1.641 1.844 1.578 3.422-.047 1.031-.859 1.297-.859 1.297-.516.938-2.438 3.719-1.719 5.984 0 0-.547-.844-.578-1.25-.984 1.094-2.641 2.953-1.406 3.641 1.5.828 6.156-5 7.141-8.031 1.953-1.172 3.125-2.672 3.609-3.672 1.25 2.484 5.406 5.359 5.734 3.359zm3.734-2.406c0 7.734-6.281 14-14.016 14s-14.016-6.266-14.016-14 6.281-14 14.016-14 14.016 6.266 14.016 14z"/></svg>