<svg xmlns="http://www.w3.org/2000/svg" width="24" height="28" viewBox="0 0 24 28"><path d="M20 25c0-.547-.453-1-1-1s-1 .453-1 1 .453 1 1 1 1-.453 1-1zm2-11.938c0-1.766-.719-2.953-2.609-2.953-.297 0-.594.031-.875.078-.359-.656-1.25-1.016-1.969-1.016-.375 0-.75.094-1.078.281-.5-.531-1.125-.828-1.859-.828-.5 0-1.234.219-1.609.547v-5.172c0-1.078-.922-2-2-2-1.062 0-2 .953-2 2v9c-.984 0-2-1.5-4-1.5-1.5 0-2 1.172-2 2.5 0 .438 1.813 1.234 2.172 1.406.344.187.688.375 1.016.578.828.516 1.547 1.109 2.266 1.75 1.141 1 2.547 2.109 2.547 3.766v.5h10v-.5c0-2.734 2-5.406 2-8.437zm2-.078c0 1.75-.484 3.406-1.078 5.031-.344.953-.922 2.5-.922 3.484v4.5c0 1.109-.891 2-2 2h-10c-1.109 0-2-.891-2-2v-4.5c0-.75-1.344-1.813-1.859-2.266-.641-.562-1.281-1.094-2.016-1.563-1.453-.906-4.125-1.578-4.125-3.672 0-2.484 1.359-4.5 4-4.5.688 0 1.359.109 2 .344v-5.844c0-2.156 1.828-4 3.984-4 2.188 0 4.016 1.813 4.016 4v2.641c.656.047 1.281.25 1.859.578.219-.031.453-.047.672-.047 1 0 2 .328 2.781.938 2.953-.031 4.688 1.984 4.688 4.875z"/></svg>