<svg xmlns="http://www.w3.org/2000/svg" width="24" height="28" viewBox="0 0 24 28"><path d="M12 6c-1.109 0-2 .891-2 2v2h-.5v-1.453c0-.984-.75-1.797-1.75-1.797-.969 0-1.75.781-1.75 1.75v6.703l-.5-.469v-2.688c0-.984-.75-1.797-1.75-1.797-.969 0-1.75.781-1.75 1.75v3.5c0 .484.203.938.547 1.281l4.844 4.625c.453.453.609.969.609 1.594 0 .547.453 1 1 1h10c.547 0 1-.453 1-1v-.391c0-.406.047-.812.156-1.203l1.687-6.813c.109-.391.156-.797.156-1.203v-3.844c0-.984-.75-1.797-1.75-1.797-.969 0-1.75.781-1.75 1.75v.5h-.5v-1.953c0-.828-.562-1.594-1.391-1.766l-.359-.031c-.969 0-1.75.781-1.75 1.75v2h-.5v-1.906c0-1.047-.75-1.969-1.797-2.078l-.203-.016zm0-2c.844 0 1.656.266 2.328.781.578-.344 1.25-.531 1.922-.531 1.234 0 2.375.594 3.078 1.609.297-.078.609-.109.922-.109 2.094 0 3.75 1.719 3.75 3.797v3.844c0 .562-.078 1.141-.203 1.687l-1.703 6.813c-.094.375-.094.734-.094 1.109 0 1.656-1.344 3-3 3h-10c-1.781 0-3-1.422-3-3.141l-4.813-4.625c-.734-.703-1.188-1.703-1.188-2.734v-3.5c0-2.063 1.687-3.75 3.75-3.75l.25.016c.125-1.984 1.781-3.516 3.75-3.516.531 0 1.047.109 1.531.328.734-.703 1.703-1.078 2.719-1.078z"/></svg>