<svg xmlns="http://www.w3.org/2000/svg" width="28" height="28" viewBox="0 0 28 28"><path d="M15.484 16l1-4h-3.969l-1 4h3.969zm12-7.875l-.875 3.5c-.063.219-.25.375-.484.375h-5.109l-1 4h4.859c.156 0 .297.078.391.187.094.125.141.281.094.438l-.875 3.5c-.047.219-.25.375-.484.375h-5.109l-1.266 5.125c-.063.219-.266.375-.484.375h-3.5c-.156 0-.313-.078-.406-.187-.094-.125-.125-.281-.094-.438l1.219-4.875h-3.969l-1.266 5.125c-.063.219-.266.375-.484.375h-3.516c-.141 0-.297-.078-.391-.187-.094-.125-.125-.281-.094-.438l1.219-4.875h-4.859c-.156 0-.297-.078-.391-.187-.094-.125-.125-.281-.094-.438l.875-3.5c.063-.219.25-.375.484-.375h5.109l1-4h-4.859c-.156 0-.297-.078-.391-.187-.094-.125-.141-.281-.094-.438l.875-3.5c.047-.219.25-.375.484-.375h5.109l1.266-5.125c.063-.219.266-.375.5-.375h3.5c.141 0 .297.078.391.187.094.125.125.281.094.438l-1.219 4.875h3.969l1.266-5.125c.063-.219.266-.375.5-.375h3.5c.141 0 .297.078.391.187.094.125.125.281.094.438l-1.219 4.875h4.859c.156 0 .297.078.391.187.094.125.125.281.094.438z"/></svg>