<svg xmlns="http://www.w3.org/2000/svg" width="24" height="28" viewBox="0 0 24 28"><path d="M16.25 19c0 .688-.562 1.25-1.25 1.25s-1.25-.562-1.25-1.25.562-1.25 1.25-1.25 1.25.562 1.25 1.25zm4 0c0 .688-.562 1.25-1.25 1.25s-1.25-.562-1.25-1.25.562-1.25 1.25-1.25 1.25.562 1.25 1.25zm1.75 2.5v-5c0-.266-.234-.5-.5-.5h-19c-.266 0-.5.234-.5.5v5c0 .266.234.5.5.5h19c.266 0 .5-.234.5-.5zm-19.219-7.5h18.438l-2.453-7.531c-.078-.266-.375-.469-.656-.469h-12.219c-.281 0-.578.203-.656.469zm21.219 2.5v5c0 1.375-1.125 2.5-2.5 2.5h-19c-1.375 0-2.5-1.125-2.5-2.5v-5c0-.422.125-.781.25-1.172l3.078-9.469c.359-1.094 1.406-1.859 2.562-1.859h12.219c1.156 0 2.203.766 2.562 1.859l3.078 9.469c.125.391.25.75.25 1.172z"/></svg>