<svg xmlns="http://www.w3.org/2000/svg" width="24" height="28" viewBox="0 0 24 28"><path d="M22 2c0 5.781-2.766 9.969-5.828 12 3.063 2.031 5.828 6.219 5.828 12h1.5c.281 0 .5.219.5.5v1c0 .281-.219.5-.5.5h-23c-.281 0-.5-.219-.5-.5v-1c0-.281.219-.5.5-.5h1.5c0-5.781 2.766-9.969 5.828-12-3.063-2.031-5.828-6.219-5.828-12h-1.5c-.281 0-.5-.219-.5-.5v-1c0-.281.219-.5.5-.5h23c.281 0 .5.219.5.5v1c0 .281-.219.5-.5.5h-1.5zm-8.344 11.062c3.156-1.188 6.344-5.359 6.344-11.062h-16c0 5.703 3.187 9.875 6.344 11.062.391.141.656.516.656.938s-.266.797-.656.938c-1.344.5-2.703 1.563-3.813 3.063h10.938c-1.109-1.5-2.469-2.562-3.813-3.063-.391-.141-.656-.516-.656-.938s.266-.797.656-.938z"/></svg>