<svg xmlns="http://www.w3.org/2000/svg" width="24" height="28" viewBox="0 0 24 28"><path d="M22 2c0 5.781-2.766 9.969-5.828 12 3.063 2.031 5.828 6.219 5.828 12h1.5c.281 0 .5.219.5.5v1c0 .281-.219.5-.5.5h-23c-.281 0-.5-.219-.5-.5v-1c0-.281.219-.5.5-.5h1.5c0-5.781 2.766-9.969 5.828-12-3.063-2.031-5.828-6.219-5.828-12h-1.5c-.281 0-.5-.219-.5-.5v-1c0-.281.219-.5.5-.5h23c.281 0 .5.219.5.5v1c0 .281-.219.5-.5.5h-1.5zm-2 0h-16c0 .688.047 1.359.141 2h15.719c.094-.641.141-1.313.141-2zm0 24c0-5.609-3.094-9.75-6.203-11h-3.594c-3.109 1.25-6.203 5.391-6.203 11h16z"/></svg>