<svg xmlns="http://www.w3.org/2000/svg" width="24" height="28" viewBox="0 0 24 28"><path d="M14.406 12.453v2.844c0 .562.109 1.078-.594 1.062v-4.828c.688 0 .594.359.594.922zm4.938 1.5v1.891c0 .313.094.828-.359.828-.094 0-.172-.047-.219-.141-.125-.297-.063-2.547-.063-2.578 0-.219-.063-.734.281-.734.422 0 .359.422.359.734zm-16.532 3.688h1.906v-7.375h-1.906v7.375zm6.782 0h1.656v-7.375h-2.484l-.438 3.453c-.156-1.156-.313-2.312-.5-3.453h-2.469v7.375h1.672v-4.875l.703 4.875h1.188l.672-4.984v4.984zm6.64-4.766c0-.469.016-.969-.078-1.406-.25-1.297-1.813-1.203-2.828-1.203h-1.422v7.375c4.969 0 4.328.344 4.328-4.766zm4.953 3.078v-2.078c0-1-.047-1.734-1.281-1.734-.516 0-.859.156-1.203.531v-2.406h-1.828v7.375h1.719l.109-.469c.328.391.688.562 1.203.562 1.141 0 1.281-.875 1.281-1.781zm2.813-11.453v19c0 1.375-1.125 2.5-2.5 2.5h-19c-1.375 0-2.5-1.125-2.5-2.5v-19c0-1.375 1.125-2.5 2.5-2.5h19c1.375 0 2.5 1.125 2.5 2.5z"/></svg>