<svg xmlns="http://www.w3.org/2000/svg" width="24" height="28" viewBox="0 0 24 28"><path d="M16 14c0-2.203-1.797-4-4-4s-4 1.797-4 4 1.797 4 4 4 4-1.797 4-4zm2.156 0c0 3.406-2.75 6.156-6.156 6.156s-6.156-2.75-6.156-6.156 2.75-6.156 6.156-6.156 6.156 2.75 6.156 6.156zm1.688-6.406c0 .797-.641 1.437-1.437 1.437s-1.437-.641-1.437-1.437.641-1.437 1.437-1.437 1.437.641 1.437 1.437zm-7.844-3.438c-1.75 0-5.5-.141-7.078.484-.547.219-.953.484-1.375.906s-.688.828-.906 1.375c-.625 1.578-.484 5.328-.484 7.078s-.141 5.5.484 7.078c.219.547.484.953.906 1.375s.828.688 1.375.906c1.578.625 5.328.484 7.078.484s5.5.141 7.078-.484c.547-.219.953-.484 1.375-.906s.688-.828.906-1.375c.625-1.578.484-5.328.484-7.078s.141-5.5-.484-7.078c-.219-.547-.484-.953-.906-1.375s-.828-.688-1.375-.906c-1.578-.625-5.328-.484-7.078-.484zm12 9.844c0 1.656.016 3.297-.078 4.953-.094 1.922-.531 3.625-1.937 5.031s-3.109 1.844-5.031 1.937c-1.656.094-3.297.078-4.953.078s-3.297.016-4.953-.078c-1.922-.094-3.625-.531-5.031-1.937s-1.844-3.109-1.937-5.031c-.094-1.656-.078-3.297-.078-4.953s-.016-3.297.078-4.953c.094-1.922.531-3.625 1.937-5.031s3.109-1.844 5.031-1.937c1.656-.094 3.297-.078 4.953-.078s3.297-.016 4.953.078c1.922.094 3.625.531 5.031 1.937s1.844 3.109 1.937 5.031c.094 1.656.078 3.297.078 4.953z"/></svg>