<svg xmlns="http://www.w3.org/2000/svg" width="32" height="28" viewBox="0 0 32 28"><path d="M22.859 13c0 .734-.594 1.344-1.344 1.344h-10.969c-.75 0-1.344-.609-1.344-1.344s.594-1.344 1.344-1.344h10.969c.75 0 1.344.609 1.344 1.344zm3.344 0c0-.922-.125-1.797-.359-2.656h-15.344c-.75 0-1.344-.594-1.344-1.328 0-.75.594-1.344 1.344-1.344h14.187c-1.797-2.922-5.016-4.859-8.672-4.859-5.625 0-10.203 4.562-10.203 10.187 0 .922.125 1.797.359 2.656h15.344c.75 0 1.344.594 1.344 1.328 0 .75-.594 1.344-1.344 1.344h-14.187c1.797 2.922 5.016 4.859 8.687 4.859 5.609 0 10.187-4.562 10.187-10.187zm5.797-3.984c0 .734-.594 1.328-1.344 1.328h-2.047c.172.859.266 1.75.266 2.656 0 7.094-5.766 12.875-12.859 12.875-5.203 0-9.688-3.094-11.719-7.547h-2.953c-.75 0-1.344-.594-1.344-1.344 0-.734.594-1.328 1.344-1.328h2.063c-.172-.859-.266-1.75-.266-2.656 0-7.094 5.766-12.875 12.875-12.875 5.187 0 9.672 3.094 11.703 7.547h2.938c.75 0 1.344.594 1.344 1.344z"/></svg>