<svg xmlns="http://www.w3.org/2000/svg" width="16" height="28" viewBox="0 0 16 28"><path d="M0 25.969l.266-1.328c1-.313 2.078-.438 3.016-.922.359-.453.531-1.031.641-1.578.203-1.062 3.609-16.391 3.563-17.641v-.391c-.859-.469-1.906-.344-2.844-.5l.297-1.609c2.016.094 4.062.25 6.094.25 1.656 0 3.313-.156 4.969-.25-.063.469-.172.938-.297 1.391-1.078.375-2.219.547-3.281.969-.344.844-.422 1.766-.578 2.656-.75 4.047-1.75 8.094-2.578 12.109-.156.75-.922 3.859-.859 4.516l.016.281c.953.219 1.922.328 2.891.484-.031.516-.125 1.031-.25 1.547l-1.016.047c-.891 0-1.813-.297-2.703-.313-1.078-.016-2.156-.031-3.219-.031-1.391 0-2.75.234-4.125.313z"/></svg>