<svg xmlns="http://www.w3.org/2000/svg" width="32" height="28" viewBox="0 0 32 28"><path d="M28.125 12.063c2.266.938 3.875 3.156 3.875 5.734 0 3.422-2.828 6.203-6.297 6.203l-.344-.016h-19.016c-3.5-.203-6.344-2.875-6.344-6.344 0-2.328 1.266-4.359 3.156-5.469-.125-.406-.187-.828-.187-1.281 0-2.391 1.953-4.328 4.391-4.328 1 0 1.937.344 2.688.906 1.531-3.156 4.781-5.344 8.578-5.344 5.266 0 9.516 4.203 9.516 9.375l-.016.562zm-20.812 4.156c0 2.641 2.078 4.125 4.562 4.125 1.531 0 2.641-.484 3.75-1.547-.453-.562-.953-1.109-1.422-1.672-.641.625-1.344 1.016-2.25 1.016-1.109 0-2.063-.734-2.063-1.891 0-1.141.953-1.891 2.031-1.891 3.437 0 4.172 6 9.172 6 2.438 0 4.5-1.531 4.5-4.094 0-2.594-2.078-4.109-4.547-4.109-1.531 0-2.672.438-3.766 1.516.5.547.969 1.125 1.453 1.687.625-.609 1.328-1 2.219-1 1.031 0 2.063.734 2.063 1.828 0 1.203-.875 1.969-2.047 1.969-3.328 0-4.219-6-9.094-6-2.422 0-4.562 1.484-4.562 4.062z"/></svg>