<svg xmlns="http://www.w3.org/2000/svg" width="26" height="28" viewBox="0 0 26 28"><path d="M13 8c0-1.656-1.344-3-3-3s-3 1.344-3 3c0 .453.109.891.297 1.297-.406-.187-.844-.297-1.297-.297-1.656 0-3 1.344-3 3s1.344 3 3 3 3-1.344 3-3c0-.453-.109-.891-.297-1.297.406.187.844.297 1.297.297 1.656 0 3-1.344 3-3zm13.297 11c0 .359-1.437 1.797-1.797 1.797-.406 0-1.672-1.469-2-1.797l-1.5 1.5 3.437 3.437c.281.281.438.672.438 1.062 0 .875-1 1.875-1.875 1.875-.391 0-.781-.156-1.062-.438l-10.484-10.484c-1.641 1.219-3.641 2.047-5.703 2.047-3.406 0-5.75-2.359-5.75-5.75 0-5.125 5.125-10.25 10.25-10.25 3.391 0 5.75 2.344 5.75 5.75 0 2.063-.828 4.062-2.047 5.703l5.547 5.547 1.5-1.5c-.328-.328-1.797-1.594-1.797-2 0-.359 1.437-1.797 1.797-1.797.125 0 .266.063.359.156.578.578 4.937 4.688 4.937 5.141z"/></svg>