<svg xmlns="http://www.w3.org/2000/svg" width="24" height="28" viewBox="0 0 24 28"><path d="M3.703 22.094h3.609v-10.844h-3.609v10.844zm3.844-14.188c-.016-1.062-.781-1.875-2.016-1.875s-2.047.812-2.047 1.875c0 1.031.781 1.875 2 1.875h.016c1.266 0 2.047-.844 2.047-1.875zm9.141 14.188h3.609v-6.219c0-3.328-1.781-4.875-4.156-4.875-1.937 0-2.797 1.078-3.266 1.828h.031v-1.578h-3.609s.047 1.016 0 10.844h3.609v-6.062c0-.313.016-.641.109-.875.266-.641.859-1.313 1.859-1.313 1.297 0 1.813.984 1.813 2.453v5.797zm7.312-15.594v15c0 2.484-2.016 4.5-4.5 4.5h-15c-2.484 0-4.5-2.016-4.5-4.5v-15c0-2.484 2.016-4.5 4.5-4.5h15c2.484 0 4.5 2.016 4.5 4.5z"/></svg>