<svg xmlns="http://www.w3.org/2000/svg" width="24" height="28" viewBox="0 0 24 28"><path d="M5.156 23.984l3.156 3.344-.531-3.687-3.375-3.328zm3.531 3.532l4.281-3.406-.172-3.828-4.688 3.359zm-4.859-9.969l3.547 3.328-.75-5.109-3.828-3.187zm3.906 3.5l4.953-3.344-.219-5.063-5.5 3.125zm5.438.172l1.484 1.25-.031-3.734-1.609-1.234c0 .125.063.344-.063.438l-1.219.812 1.328 1.094c.156.125.109 1.188.109 1.375zm-11.016-11.75l4 3.125-1.062-7.266-4.359-2.703zm16.172 10.359l.234-3.656-3.594 2.562.031 3.75zm-11.812-7.109l5.828-3.031-.297-6.891-6.609 2.547zm13.328 5.703l.313-3.641-3.531-2.219-.031 1.641 2.25 1.484c.047.031.078.094.063.141l-.109 1.859zm2.984-2.172l.469-3.469-2.797 2-.313 3.563zm-2.937 2.609l-1.109-.766-.125 1.828-.063.125-3.656 2.922c-.063.047-.156.047-.219 0l-1.531-1.297.109 2.516-.063.125-4.578 3.656-.094.031-.125-.047-3.563-3.781c-.078-.078-.844-3.938-.922-4.328-.016-.063.031-.141.078-.172l.953-.578c-.187-.172-1.453-1.281-1.484-1.437l-1.125-5.484c-.016-.063.016-.141.094-.187l1.469-.703c-.25-.187-2.063-1.5-2.109-1.687l-1.5-7.281c-.016-.094.031-.172.109-.203l6.766-2.109.125.016 4.953 2.391c.047.031.094.094.094.141l.313 7.234c0 .063-.031.125-.094.156l-1.844.953 1.969 1.328c.047.016.078.078.078.125l.078 1.922 1.891-1.156c.047-.031.125-.031.172 0l1.313.875.047-1.719c0-.047.031-.109.078-.141l3.219-1.969c.063-.031.125-.031.172 0l3.828 2.109.078.109c.031.109-.484 3.625-.531 3.984l-.063.109-2.984 2.391c-.063.047-.141.047-.203 0z"/></svg>