<svg xmlns="http://www.w3.org/2000/svg" width="28" height="28" viewBox="0 0 28 28"><path d="M6 18.5v1c0 .266-.234.5-.5.5h-1c-.266 0-.5-.234-.5-.5v-1c0-.266.234-.5.5-.5h1c.266 0 .5.234.5.5zm0-4v1c0 .266-.234.5-.5.5h-1c-.266 0-.5-.234-.5-.5v-1c0-.266.234-.5.5-.5h1c.266 0 .5.234.5.5zm0-4v1c0 .266-.234.5-.5.5h-1c-.266 0-.5-.234-.5-.5v-1c0-.266.234-.5.5-.5h1c.266 0 .5.234.5.5zm18 8v1c0 .266-.234.5-.5.5h-15c-.266 0-.5-.234-.5-.5v-1c0-.266.234-.5.5-.5h15c.266 0 .5.234.5.5zm0-4v1c0 .266-.234.5-.5.5h-15c-.266 0-.5-.234-.5-.5v-1c0-.266.234-.5.5-.5h15c.266 0 .5.234.5.5zm0-4v1c0 .266-.234.5-.5.5h-15c-.266 0-.5-.234-.5-.5v-1c0-.266.234-.5.5-.5h15c.266 0 .5.234.5.5zm2 11v-13c0-.266-.234-.5-.5-.5h-23c-.266 0-.5.234-.5.5v13c0 .266.234.5.5.5h23c.266 0 .5-.234.5-.5zm2-17v17c0 1.375-1.125 2.5-2.5 2.5h-23c-1.375 0-2.5-1.125-2.5-2.5v-17c0-1.375 1.125-2.5 2.5-2.5h23c1.375 0 2.5 1.125 2.5 2.5z"/></svg>