<svg xmlns="http://www.w3.org/2000/svg" width="28" height="28" viewBox="0 0 28 28"><path d="M6 22c0 1.656-1.344 3-3 3s-3-1.344-3-3 1.344-3 3-3 3 1.344 3 3zm0-8c0 1.656-1.344 3-3 3s-3-1.344-3-3 1.344-3 3-3 3 1.344 3 3zm22 6.5v3c0 .266-.234.5-.5.5h-19c-.266 0-.5-.234-.5-.5v-3c0-.266.234-.5.5-.5h19c.266 0 .5.234.5.5zm-22-14.5c0 1.656-1.344 3-3 3s-3-1.344-3-3 1.344-3 3-3 3 1.344 3 3zm22 6.5v3c0 .266-.234.5-.5.5h-19c-.266 0-.5-.234-.5-.5v-3c0-.266.234-.5.5-.5h19c.266 0 .5.234.5.5zm0-8v3c0 .266-.234.5-.5.5h-19c-.266 0-.5-.234-.5-.5v-3c0-.266.234-.5.5-.5h19c.266 0 .5.234.5.5z"/></svg>