<svg xmlns="http://www.w3.org/2000/svg" width="28" height="28" viewBox="0 0 28 28"><path d="M5.953 25.312c0 1.719-1.344 2.688-2.969 2.688-.984 0-1.984-.328-2.688-1.031l.891-1.375c.422.391 1.062.703 1.656.703.547 0 1.125-.266 1.125-.891 0-.875-1-.922-1.641-.875l-.406-.875c.562-.719 1.078-1.516 1.75-2.125v-.016l-1.516.031v.828h-1.656v-2.375h5.203v1.375l-1.484 1.797c1.047.25 1.734 1.062 1.734 2.141zm.031-9.796v2.484h-5.656c-.047-.281-.094-.562-.094-.844 0-2.891 3.531-3.328 3.531-4.641 0-.531-.328-.812-.844-.812-.547 0-1 .469-1.266.906l-1.328-.922c.516-1.078 1.578-1.687 2.766-1.687 1.453 0 2.703.859 2.703 2.406 0 2.312-3.391 2.828-3.437 4.047h1.984v-.938h1.641zm22.016 4.984v3c0 .266-.234.5-.5.5h-19c-.281 0-.5-.234-.5-.5v-3c0-.281.219-.5.5-.5h19c.266 0 .5.219.5.5zm-22-14.047v1.547h-5.234v-1.547h1.672l.016-3.797v-.187h-.031c-.172.344-.484.578-.781.844l-1.109-1.188 2.125-1.984h1.656v6.312h1.687zm22 6.047v3c0 .266-.234.5-.5.5h-19c-.281 0-.5-.234-.5-.5v-3c0-.281.219-.5.5-.5h19c.266 0 .5.219.5.5zm0-8v3c0 .266-.234.5-.5.5h-19c-.281 0-.5-.234-.5-.5v-3c0-.266.219-.5.5-.5h19c.266 0 .5.234.5.5z"/></svg>