<svg xmlns="http://www.w3.org/2000/svg" width="28" height="28" viewBox="0 0 28 28"><path d="M5.234 21.187l-.094-.031c-1.828-1.219-3.656-3.219-4.813-5.078-.219-.313-.328-.688-.328-1.078 0-.812.562-1.469 1.016-2.078 1.813-2.469 4.234-4.5 7.063-5.703-.234-.422-1.719-3.016-1.719-3.297 0-.187.109-.359.266-.453.313-.172 1.719-1 2-1 .172 0 .344.094.438.25l1.937 3.578c.984-.203 2-.297 3-.297 5.656 0 10.687 3.203 13.687 7.922.203.313.313.688.313 1.078s-.109.766-.313 1.078c-1.859 2.922-4.578 5.344-7.766 6.703.234.422 1.719 3.016 1.719 3.297 0 .187-.094.359-.266.453-.313.172-1.719 1-1.984 1-.187 0-.359-.094-.453-.25l-1.937-3.578-1-1.859-6.937-12.812.109-.109c-.531.219-1.047.453-1.547.734.187.359 7.641 14.047 7.641 14.156 0 .078-.063.125-.141.141-.344.078-.781.047-1.125.047-.172 0-.875.031-.938-.109l-7.125-13.141c-.453.328-.875.688-1.281 1.062.344.609 6.312 11.594 6.312 11.688 0 .125-.078.156-.172.156-.266 0-2.344-.641-2.422-.781l-1.656-3.078-3.5-6.453c-.438.531-.844 1.078-1.219 1.656.203.297.469.609.641.922.219.406 2.75 5.016 2.75 5.109 0 .078-.078.156-.156.156zm12.969-1.593l.766 1.422c2.922-1.188 5.328-3.375 7.031-6.016-1.734-2.672-4.203-4.891-7.172-6.078 1.391 1.328 2.172 3.156 2.172 5.078 0 2.203-1.031 4.281-2.797 5.594zm-4.953-9.594c0 .406.344.75.75.75.859 0 1.687.344 2.297.953s.953 1.437.953 2.297c0 .406.344.75.75.75s.75-.344.75-.75c0-2.625-2.125-4.75-4.75-4.75-.406 0-.75.344-.75.75zm5.719-1.016l-.141-.063.109.109z"/></svg>