<svg xmlns="http://www.w3.org/2000/svg" width="28" height="28" viewBox="0 0 28 28"><path d="M28 10c0 .266-.109.516-.297.703l-8 8c-.187.187-.438.297-.703.297-.547 0-1-.453-1-1v-4h-3.5c-6.734 0-11.156 1.297-11.156 8.75 0 .641.031 1.281.078 1.922.016.25.078.531.078.781 0 .297-.187.547-.5.547-.219 0-.328-.109-.438-.266-.234-.328-.406-.828-.578-1.188-.891-2-1.984-4.859-1.984-7.047 0-1.75.172-3.547.828-5.203 2.172-5.391 8.547-6.297 13.672-6.297h3.5v-4c0-.547.453-1 1-1 .266 0 .516.109.703.297l8 8c.187.187.297.438.297.703z"/></svg>