<svg xmlns="http://www.w3.org/2000/svg" width="28" height="28" viewBox="0 0 28 28"><path d="M28 17.5c0 2.188-1.094 5.047-1.984 7.047-.172.359-.344.859-.578 1.188-.109.156-.219.266-.438.266-.313 0-.5-.25-.5-.547 0-.25.063-.531.078-.781.047-.641.078-1.281.078-1.922 0-7.453-4.422-8.75-11.156-8.75h-3.5v4c0 .547-.453 1-1 1-.266 0-.516-.109-.703-.297l-8-8c-.187-.187-.297-.438-.297-.703s.109-.516.297-.703l8-8c.187-.187.438-.297.703-.297.547 0 1 .453 1 1v4h3.5c5.125 0 11.5.906 13.672 6.297.656 1.656.828 3.453.828 5.203z"/></svg>