<svg xmlns="http://www.w3.org/2000/svg" width="32" height="28" viewBox="0 0 32 28"><path d="M31.563.172c.266.187.438.5.438.828v22c0 .406-.25.781-.625.922l-10 4c-.25.109-.5.109-.75 0l-9.625-3.844-9.625 3.844c-.125.063-.25.078-.375.078-.203 0-.391-.063-.562-.172-.266-.187-.438-.5-.438-.828v-22c0-.406.25-.781.625-.922l10-4c.25-.109.5-.109.75 0l9.625 3.844 9.625-3.844c.313-.125.656-.094.938.094zm-20.063 2.109v19.844l9 3.594v-19.844zm-9.5 3.391v19.844l8.5-3.391v-19.844zm28 16.656v-19.844l-8.5 3.391v19.844z"/></svg>