<svg xmlns="http://www.w3.org/2000/svg" width="28" height="28" viewBox="0 0 28 28"><path d="M27.266 4.641c.203.203.203.516 0 .719l-2.203 2.203c-.281.281-.672.438-1.062.438h-21c-.547 0-1-.453-1-1v-4c0-.547.453-1 1-1h9v-1c0-.547.453-1 1-1h2c.547 0 1 .453 1 1v1h8c.391 0 .781.156 1.062.438zm-15.266 14.359h4v8c0 .547-.453 1-1 1h-2c-.547 0-1-.453-1-1v-8zm13-7c.547 0 1 .453 1 1v4c0 .547-.453 1-1 1h-21c-.391 0-.781-.156-1.062-.438l-2.203-2.203c-.203-.203-.203-.516 0-.719l2.203-2.203c.281-.281.672-.438 1.062-.438h8v-3h4v3h9z"/></svg>