<svg xmlns="http://www.w3.org/2000/svg" width="28" height="28" viewBox="0 0 28 28"><path d="M8 0c.266 0 .5.234.5.5v23c0 .187-.109.359-.266.438l-7.5 4c-.078.047-.156.063-.234.063-.266 0-.5-.234-.5-.5v-23c0-.187.109-.359.266-.438l7.5-4c.078-.047.156-.063.234-.063zm19.5 0c.266 0 .5.234.5.5v23c0 .187-.109.359-.266.438l-7.5 4c-.078.047-.156.063-.234.063-.266 0-.5-.234-.5-.5v-23c0-.187.109-.359.266-.438l7.5-4c.078-.047.156-.063.234-.063zm-17.5 0c.078 0 .156.016.219.047l8 4c.172.094.281.266.281.453v23c0 .266-.234.5-.5.5-.078 0-.156-.016-.219-.047l-8-4c-.172-.094-.281-.266-.281-.453v-23c0-.266.234-.5.5-.5z"/></svg>