<svg xmlns="http://www.w3.org/2000/svg" width="30" height="28" viewBox="0 0 30 28"><path d="M29.703 14.297c.391.391.391 1.016 0 1.406l-4.594 4.594c-.187.203-.516.203-.703 0l-.703-.703c-.203-.187-.203-.516 0-.703l2.891-2.891h-4.594v3.5c0 .281-.219.5-.5.5h-1c-.281 0-.5-.219-.5-.5v-3.5h-2.063c-.5 4.5-4.312 8-8.937 8-5.313 0-9.547-4.594-8.937-10.031.469-4.219 3.953-7.594 8.203-7.938 4.953-.391 9.156 3.234 9.672 7.969h2.063v-3.5c0-.281.219-.5.5-.5h1c.281 0 .5.219.5.5v3.5h4.594l-2.891-2.891c-.203-.187-.203-.516 0-.703l.703-.703c.187-.203.516-.203.703 0zm-20.703 7.703c3.859 0 7-3.141 7-7s-3.141-7-7-7-7 3.141-7 7 3.141 7 7 7z"/></svg>