<svg xmlns="http://www.w3.org/2000/svg" width="30" height="28" viewBox="0 0 30 28"><path d="M24 6.5c0-.281.219-.5.5-.5h4.5c.547 0 1 .453 1 1v4.5c0 .281-.219.5-.5.5h-1c-.281 0-.5-.219-.5-.5v-2.094l-3.969 3.984c1.531 1.922 2.297 4.469 1.828 7.203-.656 3.797-3.75 6.781-7.562 7.313-4.469.625-8.422-2.047-9.781-5.938-4.937-.25-8.828-4.5-8.5-9.578.281-4.281 3.672-7.844 7.938-8.328 2.516-.297 4.859.484 6.656 1.906l3.984-3.969h-2.094c-.281 0-.5-.219-.5-.5v-1c0-.281.219-.5.5-.5h4.5c.547 0 1 .453 1 1v4.5c0 .281-.219.5-.5.5h-1c-.281 0-.5-.219-.5-.5v-2.094l-3.969 3.984c.625.781 1.109 1.672 1.453 2.641 1.937.094 3.703.812 5.125 1.937l3.984-3.969h-2.094c-.281 0-.5-.219-.5-.5v-1zm-8 6.5c0-.313-.031-.609-.063-.906-3.359.516-5.938 3.406-5.938 6.906 0 .313.031.609.063.906 3.359-.516 5.938-3.406 5.938-6.906zm-14 0c0 3.531 2.641 6.453 6.047 6.922-.031-.297-.047-.609-.047-.922 0-4.406 3.187-8.078 7.391-8.844-1.094-2.453-3.547-4.156-6.391-4.156-3.859 0-7 3.141-7 7zm15 13c3.859 0 7-3.141 7-7 0-3.531-2.641-6.453-6.047-6.922.031.297.047.609.047.922 0 4.406-3.187 8.078-7.391 8.844 1.094 2.453 3.547 4.156 6.391 4.156z"/></svg>