<svg xmlns="http://www.w3.org/2000/svg" width="28" height="28" viewBox="0 0 28 28"><path d="M9.328 6.578v18.328c0 .484-.234.938-.766.938-.187 0-.359-.047-.516-.125l-7.266-3.641c-.438-.219-.781-.781-.781-1.25v-17.813c0-.391.187-.75.609-.75.25 0 .469.125.688.234l7.984 4 .047.078zm1 1.578l8.344 13.531-8.344-4.156v-9.375zm17.672.281v16.469c0 .516-.297.875-.812.875-.266 0-.516-.078-.734-.203l-6.891-3.437zm-.047-1.874c0 .063-8.078 13.172-8.703 14.172l-6.094-9.906 5.063-8.234c.172-.281.484-.438.812-.438.141 0 .281.031.406.094l8.453 4.219.063.094z"/></svg>