<svg xmlns="http://www.w3.org/2000/svg" width="18" height="28" viewBox="0 0 18 28"><path d="M12.969 4.937c2.969 1.469 5.031 4.531 5.031 8.062 0 4.625-3.5 8.437-8 8.937v2.063h1.5c.281 0 .5.219.5.5v1c0 .281-.219.5-.5.5h-1.5v1.5c0 .281-.219.5-.5.5h-1c-.281 0-.5-.219-.5-.5v-1.5h-1.5c-.281 0-.5-.219-.5-.5v-1c0-.281.219-.5.5-.5h1.5v-2.063c-4.5-.5-8-4.312-8-8.937 0-3.531 2.063-6.594 5.031-8.062-1.641-.953-2.922-2.453-3.563-4.266-.125-.328.125-.672.469-.672h1.078c.203 0 .375.125.453.313.906 2.172 3.047 3.687 5.531 3.687s4.625-1.516 5.531-3.687c.078-.187.25-.313.578-.313h.953c.344 0 .594.344.469.672-.641 1.813-1.922 3.313-3.563 4.266zm-3.969 15.063c3.859 0 7-3.141 7-7s-3.141-7-7-7-7 3.141-7 7 3.141 7 7 7z"/></svg>