<svg xmlns="http://www.w3.org/2000/svg" width="22" height="28" viewBox="0 0 22 28"><path d="M4.234 14.766l-1.578 1.578c-.422-1.031-.656-2.156-.656-3.344v-2c0-.547.453-1 1-1s1 .453 1 1v2c0 .609.094 1.203.234 1.766zm17.407-9.407l-5.641 5.641v2c0 2.75-2.25 5-5 5-.594 0-1.172-.109-1.703-.297l-1.5 1.5c.953.5 2.047.797 3.203.797 3.859 0 7-3.141 7-7v-2c0-.547.453-1 1-1s1 .453 1 1v2c0 4.625-3.5 8.437-8 8.937v2.063h4c.547 0 1 .453 1 1s-.453 1-1 1h-10c-.547 0-1-.453-1-1s.453-1 1-1h4v-2.063c-1.328-.141-2.578-.594-3.672-1.266l-3.969 3.969c-.203.203-.516.203-.719 0l-1.281-1.281c-.203-.203-.203-.516 0-.719l19.281-19.281c.203-.203.516-.203.719 0l1.281 1.281c.203.203.203.516 0 .719zm-5.938-2.062l-9.703 9.703v-8c0-2.75 2.25-5 5-5 2.156 0 4 1.391 4.703 3.297z"/></svg>