<svg xmlns="http://www.w3.org/2000/svg" width="36" height="28" viewBox="0 0 36 28"><path d="M25.703 17.156c0-1.25-.797-2.312-1.891-2.734-.078.484-.203.969-.359 1.437-.156.5-.625.812-1.125.812-.125 0-.25-.016-.375-.047-.641-.219-.969-.891-.766-1.516.234-.719.359-1.469.359-2.234 0-3.906-3.187-7.094-7.109-7.094-2.812 0-5.344 1.672-6.469 4.172 1.094.281 2.109.844 2.938 1.656.469.469.469 1.234 0 1.703s-1.234.469-1.703 0c-.75-.75-1.75-1.172-2.812-1.172-2.203 0-4 1.781-4 3.984s1.797 3.984 4 3.984h16.344c1.641 0 2.969-1.328 2.969-2.953zm2.391 0c0 2.953-2.406 5.344-5.359 5.344h-16.344c-3.531 0-6.391-2.859-6.391-6.375 0-3.203 2.375-5.844 5.453-6.297 1.297-3.813 4.906-6.438 8.984-6.438 4.922 0 8.984 3.766 9.453 8.563 2.391.516 4.203 2.656 4.203 5.203zm3.906 0c0 1.781-.516 3.5-1.516 4.984-.234.344-.609.516-1 .516-.234 0-.469-.063-.672-.203-.547-.359-.688-1.109-.313-1.656.734-1.078 1.109-2.328 1.109-3.641 0-1.297-.375-2.562-1.109-3.641-.375-.547-.234-1.281.313-1.656s1.297-.219 1.672.328c1 1.469 1.516 3.187 1.516 4.969zm4 0c0 2.484-.719 4.875-2.094 6.922-.234.344-.609.531-1 .531-.219 0-.453-.063-.656-.203-.547-.375-.703-1.109-.328-1.656 1.094-1.656 1.687-3.594 1.687-5.594s-.594-3.937-1.687-5.578c-.375-.547-.219-1.297.328-1.656.547-.375 1.281-.234 1.656.328 1.375 2.031 2.094 4.422 2.094 6.906z"/></svg>