<svg xmlns="http://www.w3.org/2000/svg" width="36" height="28" viewBox="0 0 36 28"><path d="M35.953 16.188c.5 4.391-3.078 8.078-7.438 7.797-3.344-.219-6.125-2.891-6.469-6.234-.25-2.375.688-4.516 2.281-5.953l-1.109-1.672c-1.969 1.641-3.219 4.094-3.219 6.844 0 .562-.438 1.031-1 1.031h-5.078c-.484 3.391-3.391 6-6.922 6-3.859 0-7-3.141-7-7s3.141-7 7-7c.828 0 1.625.156 2.375.422l.375-.703c-1.203-1.078-2.781-1.719-4.75-1.719h-1c-.547 0-1-.453-1-1s.453-1 1-1h2c3.5 0 5.281 1.437 6 2h9.797l-1.328-2h-3.469c-.609 0-1.094-.547-.984-1.172.078-.484.547-.828 1.031-.828h3.953c.328 0 .641.172.828.438l1.094 1.641 1.781-1.781c.187-.187.453-.297.719-.297h1.578c.547 0 1 .453 1 1v2c0 .547-.453 1-1 1h-2.797l1.797 2.688c1.266-.609 2.734-.859 4.297-.562 2.984.547 5.313 3.047 5.656 6.062zm-28.953 5.812c2.422 0 4.438-1.719 4.906-4h-4.906c-.344 0-.672-.187-.859-.484-.172-.297-.187-.672-.016-.984l2.297-4.328c-.453-.125-.922-.203-1.422-.203-2.75 0-5 2.25-5 5s2.25 5 5 5zm22 0c2.75 0 5-2.25 5-5s-2.25-5-5-5c-.672 0-1.297.141-1.891.375l2.719 4.062c.313.469.187 1.094-.266 1.391-.172.125-.375.172-.562.172-.328 0-.641-.156-.828-.453l-2.719-4.062c-.891.906-1.453 2.141-1.453 3.516 0 2.75 2.25 5 5 5z"/></svg>