<svg xmlns="http://www.w3.org/2000/svg" width="20" height="28" viewBox="0 0 20 28"><path d="M10 14.172c-3.906 0-7.094-3.172-7.094-7.078 0-3.922 3.187-7.094 7.094-7.094s7.094 3.172 7.094 7.094c0 3.906-3.187 7.078-7.094 7.078zm0-10.578c-1.922 0-3.484 1.563-3.484 3.5 0 1.922 1.563 3.484 3.484 3.484s3.484-1.563 3.484-3.484c0-1.937-1.563-3.5-3.484-3.5zm8.172 11.437c.688 1.406-.094 2.078-1.875 3.234-1.5.953-3.563 1.328-4.922 1.469l1.141 1.125 4.172 4.172c.625.641.625 1.672 0 2.297l-.187.203c-.641.625-1.672.625-2.312 0-1.047-1.062-2.578-2.594-4.172-4.188l-4.172 4.188c-.641.625-1.672.625-2.297 0l-.187-.203c-.641-.625-.641-1.656 0-2.297 1.062-1.062 2.578-2.594 4.172-4.172l1.125-1.125c-1.344-.141-3.437-.5-4.953-1.469-1.781-1.156-2.562-1.828-1.875-3.234.406-.797 1.516-1.469 2.984-.313 0 0 1.984 1.578 5.187 1.578l5.187-1.578c1.469-1.156 2.578-.484 2.984.313z"/></svg>