<svg xmlns="http://www.w3.org/2000/svg" width="28" height="28" viewBox="0 0 28 28"><path d="M23.328 3.563c-1.641-1.094-3.563-1.719-5.609-1.719-3.328 0-6.266 1.703-8.328 4.266-1.5 1.875-2.547 4.531-2.625 7.562v.656c.078 3.031 1.125 5.688 2.625 7.562 2.063 2.562 5 4.266 8.328 4.266 2.047 0 3.969-.625 5.609-1.719-2.469 2.219-5.75 3.563-9.328 3.563-.219 0-.453 0-.672-.016-7.422-.344-13.328-6.469-13.328-13.984 0-7.734 6.266-14 14-14h.047c3.563.016 6.813 1.359 9.281 3.563zm4.672 10.437c0 4.078-1.75 7.734-4.531 10.297-1.062.641-2.234.984-3.469.984-1.437 0-2.797-.469-3.984-1.313 3.172-1.156 5.516-5.172 5.516-9.969 0-4.781-2.328-8.797-5.5-9.969 1.188-.828 2.531-1.297 3.969-1.297 1.266 0 2.453.359 3.531 1.016 2.75 2.562 4.469 6.203 4.469 10.25z"/></svg>