<svg xmlns="http://www.w3.org/2000/svg" width="36" height="28" viewBox="0 0 36 28"><path d="M7.469 26.172c-.156.328-.609.781-1 .938-.547.187-1.219-.172-1.25-.547-.031-.484 1.172-1.359 1.687-1.453.5-.094.734.656.562 1.062zm20.953 0c.141.328.594.781 1 .938.531.187 1.219-.172 1.234-.547.047-.484-1.172-1.359-1.687-1.453-.484-.094-.719.656-.547 1.062zm.75-1.703c.281.562 1.391 1.391 2.094 1.578.953.266 1.859-.187 1.859-.859 0-1.031-1.953-2.406-2.859-2.5-.859-.109-1.422 1.109-1.094 1.781zm-22.485 0c-.281.562-1.375 1.391-2.078 1.578-.953.266-1.859-.187-1.859-.859 0-1.031 1.953-2.406 2.859-2.5.859-.109 1.422 1.109 1.078 1.781zm11.407-17.563h.016c-.422 0-.828.078-1.188.234.547.172.953.672.953 1.25 0 .734-.641 1.328-1.437 1.328-.531 0-1-.281-1.25-.672-.047.219-.078.422-.078.656 0 1.547 1.328 2.797 2.984 2.797s3-1.25 3-2.797-1.344-2.797-3-2.797zm4.75-3.406c-2.063-2.266-4.703-2.766-7.281-1.359 1.453-3.25 7.063-2.812 7.281 1.359zm11.719 19.359c.078.109-.016.391-.172.656.063.203.109.406.109.625.047 1.828-2.562 3.703-4.25 3.766-1 .047-2-.484-2.469-1.359-6.563.234-13.125.281-19.672 0-.484.875-1.484 1.391-2.484 1.359-1.672-.063-4.281-1.937-4.25-3.766.016-.219.047-.422.109-.625-.156-.266-.25-.547-.172-.656.063-.094.266-.094.484-.016.187-.297.406-.547.641-.797-.063-.266-.063-.5.031-.594.109-.094.359-.063.609.063.266-.187.578-.375.922-.531 0-.281.078-.5.203-.578.187-.094.516-.031.797.25.328-.047.656-.047.953.031.203.047.406.156.594.297v-1.141c-.094 0-.172 0-.281-.031-1.016-.187-2.125-.891-2.375-2.063-.094-.391-.094-.812 0-1.266.187-.781.859-1.234 1.453-1.484.047-.344.469-.812.859-.922.438-.109.719.266.812.594h.203c.281.031.734.094.938.359l.078.109.953-.109c-.141-.109-.297-.203-.469-.266-.297-.516-.797-.641-1.422-.672l.016-.156c-1.141-.031-2.547-.328-3.172-1.031-.719-.797-.844-2.156-.703-3.187.125-1.016.547-2.188 1.406-2.797.484-.328 1.25-.047 1.313.562.031.266.078 1.172.328 1.313.281.141.734.203 1.188.187.469-.453.969-.844 1.531-1.156-.859-.078-1.672.094-2.531.219l.734-.719c.719-.688 1.672-1.281 2.547-1.734 1.359-.688 2.891-1.203 4.406-1.344-1.078-.453-2.312-.688-3.453-.953 4.422-.938 10.094-1.281 14.125 2.172 1.047.891 1.875 2.094 2.469 3.469.641.078 1.453.094 1.891-.141h.016c.25-.141.297-1.031.328-1.313.063-.594.828-.891 1.313-.547.859.609 1.281 1.781 1.422 2.781.125 1.031.016 2.391-.719 3.187-.625.703-1.984 1.016-3.109 1.047v.156c-.641.016-1.172.141-1.484.672-.172.063-.328.156-.484.266l.969.109.078-.125c.219-.25.672-.328.938-.359h.203c.094-.313.391-.688.812-.594s.812.578.859.922c.625.25 1.281.703 1.453 1.484.109.469.094.875.016 1.266-.266 1.172-1.375 1.891-2.391 2.063l-.266.031c0 .391 0 .766-.016 1.141.187-.141.375-.25.594-.297.297-.078.625-.078.953-.031.281-.281.625-.344.797-.25.125.078.219.297.219.578.328.156.656.344.922.531.25-.125.484-.156.594-.063.094.094.109.328.031.594.234.25.469.516.641.797.219-.078.406-.078.484.016zm-4.297-14.875c0 .359-.078.672-.141.844 1 .391 1.516 1.281 1.75 2.063.063-.609-.156-2.281-.797-2.953-.422-.422-.812-.297-.812.047zm-1.219 1.563c.75.906.984 2.406.734 3.641.625-.125 1.188-.359 1.516-.703.109-.125.219-.281.281-.438-.063-1.234-.594-2.469-1.719-2.828-.187.187-.531.281-.812.328zm-.578.062c-.219 0-.469 0-.688-.016.438 1.188.719 2.469.828 3.734.203 0 .438-.016.672-.047.344-1.406-.016-2.984-.812-3.672zm-24.438 1.282c.234-.781.75-1.672 1.75-2.063-.063-.172-.141-.484-.141-.844 0-.344-.406-.469-.812-.047-.656.672-.859 2.344-.797 2.953zm.563 1.593c.328.359.891.578 1.516.703-.25-1.234-.016-2.734.734-3.641-.281-.047-.625-.141-.812-.328-1.125.359-1.641 1.594-1.719 2.828.078.156.172.313.281.438zm2.765.844c.141-1.281.531-2.531 1.141-3.672-.297.063-.578.172-.859.281l-.703.297v-.016c-.422.812-.578 1.984-.313 3.063.266.031.5.047.734.047zm15.047.609c.203 1.031.281 2.063.438 3.094.063.359.172.438.516.266.922-.469 1.313-2.266 1.328-3.297-.75-.047-1.516-.047-2.281-.063zm-4.406-10.015c-2.422 0-4.406 1.969-4.406 4.391 0 2.438 1.984 4.406 4.406 4.406s4.406-1.969 4.406-4.406c0-2.422-1.984-4.391-4.406-4.391zm3.562 9.984c-1.094-.016-2.203-.016-3.297 0v-.016c-.016.297.016 2.203.25 2.375.641.313 2.281.266 2.953.063.313-.094.141-2.141.094-2.422zm-4.187 3.11c.266-.141.141-2.625.078-3.109v-.016c-1.125.016-2.234.016-3.344.047-.109.531-.266 2.828.109 2.984.75.328 2.406.297 3.156.094zm-6.156-2.953c-.313 1.141.016 2.609 1.281 3.172.313.141.5.141.562-.25.109-.5.141-2.125.281-3.016-.703.016-1.422.047-2.125.094zm-1.985 1.968c.031.281-.219.453-.531.562 2.531 2.719 5.359 4.953 9.016 6.156 3.906-1.109 6.687-3.469 9.438-6.188-.281-.109-.5-.297-.469-.531l.047-.141-1.531-.156c-.547 1.906-2.078 3.063-2.703 1.828-.156-.297-.203-.672-.266-.969-.219.484-.766.469-1.422.516-.766.063-1.828.078-2.547-.172-.172.75-.641.75-1.547.828-.812.078-2.812.234-3.172-.625-.063 1.656-2.031.578-2.609-.406-.187-.328-.313-.656-.406-1.016-.453.047-.906.094-1.359.156l.063.156zm-1.312 9.813c.031-.141.047-.297.047-.469-.328-1.344-1.078-2.875-1.937-3.125-1.297-.391-3.984 1.359-3.828 3.156.734 1.125 2.312 2.063 3.422 2.109 1.031.047 2.078-.641 2.297-1.672zm.047-2.672c.187.516.375 1.203.422 1.859 1.937-1.125 4-2.063 6.125-2.719-2.234-1.188-3.938-2.766-5.625-4.453-.125.078-.297.141-.453.203l-.031.141c.266.156.453.344.344.578-.125.234-.5.438-.875.531-.125.156-.297.281-.453.375h-.016c-.016.781-.016 1.563.016 2.344.219.391.406.797.547 1.141zm1.078 2.594c5.969.234 11.937.203 17.891 0-2.125-1.234-4.281-2.391-6.687-3.063-.797.359-1.609.656-2.438.891-.125.047-.125.047-.25 0-.688-.219-1.344-.469-2.016-.766-2.328.672-4.469 1.687-6.5 2.938h-.016v.016l.016-.016zm18.5-.719c.047-.656.25-1.359.438-1.875.125-.344.297-.734.516-1.109l-.016.016c.031-.797.047-1.594.047-2.391-.172-.094-.328-.234-.469-.391-.375-.078-.75-.297-.875-.516-.109-.234.078-.438.344-.594l-.031-.141c-.172-.047-.313-.109-.438-.187-1.828 1.703-3.781 3.281-5.984 4.438 2.25.672 4.391 1.625 6.469 2.75zm6.125.359c.172-1.797-2.516-3.547-3.828-3.156-.844.25-1.609 1.781-1.937 3.125 0 .172.016.328.047.469.219 1.031 1.266 1.719 2.297 1.672 1.109-.047 2.688-.984 3.422-2.109z"/></svg>