<svg xmlns="http://www.w3.org/2000/svg" width="22" height="28" viewBox="0 0 22 28"><path d="M21.906 17.234c-3.141 7.797-10.672 3.078-10.672 3.078-2.312 4.672-6.125 7.672-10.531 7.688-.391 0-.703-.313-.703-.703s.313-.688.703-.688c3.672-.016 6.875-2.438 8.969-6.281-2.344.906-6.766 1.594-9.219-4.688 6.219-2.562 9.078.641 10.172 2.594.562-1.391.969-2.906 1.234-4.547 0 0-7.969 1.25-8.531-5.594 6.797-2.734 8.703 4.375 8.703 4.375.094-.953.187-3 .187-3.047 0 0-6.062-4.203-2.172-9.422 7.109 2.453 3.5 9.266 3.5 9.266.031.094.031 1.359 0 1.906 0 0 2.578-5.078 7.781-3.281-.234 7.641-8.094 6.062-8.094 6.062-.25 1.563-.641 3.047-1.141 4.422 0 0 4.734-5.234 9.812-1.141z"/></svg>