<svg xmlns="http://www.w3.org/2000/svg" width="22" height="28" viewBox="0 0 22 28"><path d="M21.938 21.641c0 2.438-1.859 4.297-4.297 4.297-1.375 0-2.703-.594-3.672-1.563l-12.141-12.125c-1.109-1.125-1.766-2.656-1.766-4.234 0-3.313 2.609-5.953 5.922-5.953 1.594 0 3.125.641 4.266 1.766l9.453 9.469c.094.094.156.219.156.344 0 .328-.875 1.203-1.203 1.203-.141 0-.266-.063-.359-.156l-9.469-9.484c-.75-.734-1.766-1.203-2.828-1.203-2.219 0-3.938 1.797-3.938 4 0 1.062.438 2.078 1.188 2.828l12.125 12.141c.594.594 1.422.984 2.266.984 1.328 0 2.312-.984 2.312-2.312 0-.859-.391-1.672-.984-2.266l-9.078-9.078c-.25-.234-.594-.375-.938-.375-.594 0-1.047.438-1.047 1.047 0 .344.156.672.391.922l6.406 6.406c.094.094.156.219.156.344 0 .328-.891 1.219-1.219 1.219-.125 0-.25-.063-.344-.156l-6.406-6.406c-.625-.609-.984-1.469-.984-2.328 0-1.719 1.344-3.062 3.063-3.062.875 0 1.719.359 2.328.984l9.078 9.078c.984.969 1.563 2.297 1.563 3.672z"/></svg>