<svg xmlns="http://www.w3.org/2000/svg" width="26" height="28" viewBox="0 0 26 28"><path d="M12.187 7.375c0 1.75-.906 3.828-2.922 3.828-2.531 0-4.062-3.187-4.062-5.375 0-1.75.906-3.828 2.922-3.828 2.547 0 4.062 3.187 4.062 5.375zm-5.343 7.547c0 1.516-.797 3.094-2.516 3.094-2.5 0-4.328-3.063-4.328-5.328 0-1.516.812-3.109 2.516-3.109 2.5 0 4.328 3.078 4.328 5.344zm6.156-.422c3.828 0 9 5.516 9 9.203 0 1.984-1.625 2.297-3.219 2.297-2.094 0-3.781-1.406-5.781-1.406-2.094 0-3.875 1.391-6.141 1.391-1.516 0-2.859-.516-2.859-2.281 0-3.703 5.172-9.203 9-9.203zm3.734-3.297c-2.016 0-2.922-2.078-2.922-3.828 0-2.188 1.516-5.375 4.062-5.375 2.016 0 2.922 2.078 2.922 3.828 0 2.188-1.531 5.375-4.062 5.375zm6.75-1.625c1.703 0 2.516 1.594 2.516 3.109 0 2.266-1.828 5.328-4.328 5.328-1.719 0-2.516-1.578-2.516-3.094 0-2.266 1.828-5.344 4.328-5.344z"/></svg>