<svg xmlns="http://www.w3.org/2000/svg" width="24" height="28" viewBox="0 0 24 28"><path d="M20 18.641c0-.078 0-.172-.031-.25-.094-.281-2.375-1.437-2.812-1.687-.297-.172-.656-.516-1.016-.516-.688 0-1.703 2.047-2.312 2.047-.313 0-.703-.281-.984-.438-2.063-1.156-3.484-2.578-4.641-4.641-.156-.281-.438-.672-.438-.984 0-.609 2.047-1.625 2.047-2.312 0-.359-.344-.719-.516-1.016-.25-.438-1.406-2.719-1.687-2.812-.078-.031-.172-.031-.25-.031-.406 0-1.203.187-1.578.344-1.031.469-1.781 2.438-1.781 3.516 0 1.047.422 2 .781 2.969 1.25 3.422 4.969 7.141 8.391 8.391.969.359 1.922.781 2.969.781 1.078 0 3.047-.75 3.516-1.781.156-.375.344-1.172.344-1.578zm4-12.141v15c0 2.484-2.016 4.5-4.5 4.5h-15c-2.484 0-4.5-2.016-4.5-4.5v-15c0-2.484 2.016-4.5 4.5-4.5h15c2.484 0 4.5 2.016 4.5 4.5z"/></svg>