<svg xmlns="http://www.w3.org/2000/svg" width="24" height="28" viewBox="0 0 24 28"><path d="M24 14c0 6.625-5.375 12-12 12-1.188 0-2.312-.172-3.406-.5.453-.719.969-1.641 1.219-2.562 0 0 .141-.531.844-3.297.406.797 1.625 1.5 2.922 1.5 3.859 0 6.484-3.516 6.484-8.234 0-3.547-3.016-6.875-7.609-6.875-5.688 0-8.563 4.094-8.563 7.5 0 2.063.781 3.906 2.453 4.594.266.109.516 0 .594-.313l.25-.953c.078-.313.047-.406-.172-.672-.484-.578-.797-1.313-.797-2.359 0-3.031 2.266-5.75 5.906-5.75 3.219 0 5 1.969 5 4.609 0 3.453-1.531 6.375-3.813 6.375-1.25 0-2.188-1.031-1.891-2.312.359-1.516 1.062-3.156 1.062-4.25 0-.984-.531-1.813-1.625-1.813-1.281 0-2.312 1.328-2.312 3.109 0 0 0 1.141.391 1.906-1.313 5.563-1.547 6.531-1.547 6.531-.219.906-.234 1.922-.203 2.766-4.234-1.859-7.187-6.078-7.187-11 0-6.625 5.375-12 12-12s12 5.375 12 12z"/></svg>