<svg xmlns="http://www.w3.org/2000/svg" width="24" height="28" viewBox="0 0 24 28"><path d="M15.531 18.625c0 1.031-.109 2.063-.266 3.078-.234 1.625-.469 3.297-.859 4.891-.281 1.141-1.344 1.406-2.375 1.406s-2.094-.266-2.375-1.406c-.391-1.594-.625-3.266-.859-4.891-.156-1.016-.266-2.047-.266-3.078 0-2.109 1.703-2.625 3.5-2.625s3.5.516 3.5 2.625zm8.469-6.625c0 5.063-3.125 9.391-7.562 11.156-.172.063-.359-.094-.328-.281.047-.328.094-.672.156-1.031l.094-.734c.016-.094.063-.156.141-.187 3.25-1.656 5.5-5.031 5.5-8.922 0-5.703-4.781-10.297-10.547-9.984-5.281.281-9.484 4.781-9.453 10.063.031 3.891 2.297 7.25 5.563 8.875.078.031.125.109.141.187l.094.703.172 1.062c.031.187-.172.344-.344.266-4.641-1.813-7.875-6.438-7.609-11.766.297-6.047 5.172-11 11.219-11.375 6.969-.438 12.766 5.094 12.766 11.969zm-8.469-.5c0 1.937-1.563 3.5-3.5 3.5s-3.5-1.563-3.5-3.5 1.563-3.5 3.5-3.5 3.5 1.563 3.5 3.5zm4.5.5c0 2.578-1.234 4.891-3.125 6.344-.156.125-.375.016-.406-.187-.047-.438-.172-.953-.453-1.437-.063-.094-.047-.219.047-.313 1.188-1.094 1.937-2.656 1.937-4.406 0-3.531-3.078-6.359-6.687-5.969-2.766.313-5.016 2.594-5.281 5.375-.203 1.969.578 3.781 1.906 5 .094.094.109.219.047.313-.281.484-.406 1-.453 1.453-.031.187-.25.297-.406.172-1.937-1.5-3.172-3.859-3.125-6.516.094-4.156 3.469-7.625 7.609-7.812 4.594-.219 8.391 3.437 8.391 7.984z"/></svg>