<svg xmlns="http://www.w3.org/2000/svg" width="26" height="28" viewBox="0 0 26 28"><path d="M6 24h14v-4h-14v4zm0-10h14v-6h-2.5c-.828 0-1.5-.672-1.5-1.5v-2.5h-10v10zm18 1c0-.547-.453-1-1-1s-1 .453-1 1 .453 1 1 1 1-.453 1-1zm2 0v6.5c0 .266-.234.5-.5.5h-3.5v2.5c0 .828-.672 1.5-1.5 1.5h-15c-.828 0-1.5-.672-1.5-1.5v-2.5h-3.5c-.266 0-.5-.234-.5-.5v-6.5c0-1.641 1.359-3 3-3h1v-8.5c0-.828.672-1.5 1.5-1.5h10.5c.828 0 1.969.469 2.562 1.062l2.375 2.375c.594.594 1.062 1.734 1.062 2.562v4h1c1.641 0 3 1.359 3 3z"/></svg>