<svg xmlns="http://www.w3.org/2000/svg" width="34" height="28" viewBox="0 0 34 28"><path d="M17.859 27.078l-.172-.063s-5.141-3.016-6.875-7.891c-.578-.094-1.797-.375-2.734-.578 1.359 4.422 5.141 7.797 9.781 8.531zm-10.015-9.469l2.625.438c-.891-2.672-1-5.719-1-5.719-1.047 1.016-1.609 2.406-1.891 3.5.047.609.125 1.203.266 1.781zm1.718-9.515c-.484.719-.875 1.5-1.203 2.312.516-.547.938-.906 1.156-1.062-.031-.469.047-1.25.047-1.25zm22.454 6.781c0-6.813-5.5-12.344-12.25-12.344-3.125 0-5.969 1.188-8.141 3.141-.328.641-.547 1.453-.703 2.5 3.328-2.828 9.266-2.125 9.266-2.125 1.484.063 1.313 1.375 1.297 1.781-5.406-.453-8.062 1.094-10.687 3.328 0 0 .516 5 1.703 7.031 6.844.313 12.047-3.406 12.047-3.406.656-.469 1.234-.516 1.359.297.094.656.141 1.547-.609 1.891-2.281 1.062-4.797 1.734-7.297 2.094-1.625.234-2.531.297-4.953.25 2.312 5.375 8.094 6.844 8.094 6.844 1.813.297 3.187.063 4.109-.234 4-2.031 6.766-6.219 6.766-11.047zm1.156-.578c-.109 1.062-.281 2.297-.625 3.313-1.406 4.172-3.359 6.891-7.812 9.375-.406.281-.844.547-1.281.688-.797.281-1.656.344-2.547.25-.375.031-.75.047-1.141.047-5.953 0-10.984-4.062-12.5-9.609l-.141-.016c-.359 2.812 1.719 6.609 1.719 6.609l.844 1.281c-3.984-2.109-4.094-8.328-4.094-8.328-.953-.359-4.266-1.484-4.844-2.406 0 0 2.594 1.422 4.828 1.703-.016-.016.031-.5.031-.5.141-1.906.797-3.391 1.469-4.531.438-2.141 1.406-4.078 2.75-5.703.234-.969.609-2.125 1.266-3.344.281-.531.547-.875 1.266-1.203 4.75-2.219 9.438-2.781 14.25-.281 4.609 2.406 7.109 7.438 6.563 12.656z"/></svg>