<svg xmlns="http://www.w3.org/2000/svg" width="24" height="28" viewBox="0 0 24 28"><path d="M24 4v7c0 .547-.453 1-1 1h-7c-.406 0-.766-.25-.922-.625-.156-.359-.078-.797.219-1.078l2.156-2.156c-1.469-1.359-3.406-2.141-5.453-2.141-4.406 0-8 3.594-8 8s3.594 8 8 8c2.484 0 4.781-1.125 6.312-3.109.078-.109.219-.172.359-.187.141 0 .281.047.391.141l2.141 2.156c.187.172.187.469.031.672-2.281 2.75-5.656 4.328-9.234 4.328-6.609 0-12-5.391-12-12s5.391-12 12-12c3.078 0 6.062 1.234 8.266 3.313l2.031-2.016c.281-.297.719-.375 1.094-.219.359.156.609.516.609.922z"/></svg>