<svg xmlns="http://www.w3.org/2000/svg" width="24" height="28" viewBox="0 0 24 28"><path d="M24 14c0 6.609-5.391 12-12 12-3.578 0-6.953-1.578-9.234-4.328-.156-.203-.141-.5.031-.672l2.141-2.156c.109-.094.25-.141.391-.141.141.016.281.078.359.187 1.531 1.984 3.828 3.109 6.312 3.109 4.406 0 8-3.594 8-8s-3.594-8-8-8c-2.047 0-3.984.781-5.437 2.141l2.141 2.156c.297.281.375.719.219 1.078-.156.375-.516.625-.922.625h-7c-.547 0-1-.453-1-1v-7c0-.406.25-.766.625-.922.359-.156.797-.078 1.078.219l2.031 2.016c2.203-2.078 5.187-3.313 8.266-3.313 6.609 0 12 5.391 12 12z"/></svg>