<svg xmlns="http://www.w3.org/2000/svg" width="24" height="28" viewBox="0 0 24 28"><path d="M8 20c0-1.109-.891-2-2-2s-2 .891-2 2 .891 2 2 2 2-.891 2-2zm5.484 1.469c-.266-4.844-4.109-8.687-8.953-8.953-.141-.016-.281.047-.375.141s-.156.219-.156.359v2c0 .266.203.484.469.5 3.203.234 5.781 2.812 6.016 6.016.016.266.234.469.5.469h2c.141 0 .266-.063.359-.156s.156-.234.141-.375zm6 .015c-.266-8.125-6.844-14.703-14.969-14.969-.156-.016-.266.031-.359.141-.094.094-.156.219-.156.359v2c0 .266.219.484.484.5 6.484.234 11.766 5.516 12 12 .016.266.234.484.5.484h2c.141 0 .266-.063.359-.156.109-.094.156-.219.141-.359zm4.516-14.984v15c0 2.484-2.016 4.5-4.5 4.5h-15c-2.484 0-4.5-2.016-4.5-4.5v-15c0-2.484 2.016-4.5 4.5-4.5h15c2.484 0 4.5 2.016 4.5 4.5z"/></svg>