<svg xmlns="http://www.w3.org/2000/svg" width="24" height="28" viewBox="0 0 24 28"><path d="M15.703 17.203l5.5-5.5c.391-.391.391-1.016 0-1.406l-5.5-5.5c-.281-.297-.719-.375-1.078-.219-.375.156-.625.516-.625.922v2.5c-8.969 0-10 5.141-10 9 0 3.141 2.516 6.188 2.609 6.312.109.125.25.187.391.187l.203-.047c.203-.078.328-.297.297-.516-.469-3.766-.172-6.109.969-7.391.953-1.078 2.609-1.547 5.531-1.547v2.5c0 .406.25.766.625.922.109.047.25.078.375.078.266 0 .516-.109.703-.297zm8.297-10.703v15c0 2.484-2.016 4.5-4.5 4.5h-15c-2.484 0-4.5-2.016-4.5-4.5v-15c0-2.484 2.016-4.5 4.5-4.5h15c2.484 0 4.5 2.016 4.5 4.5z"/></svg>