<svg xmlns="http://www.w3.org/2000/svg" width="32" height="28" viewBox="0 0 32 28"><path d="M28.297 24.297c.391-.391 1.016-.391 1.406 0l2 2-1.406 1.406-1.297-1.297-1.297 1.297c-.187.203-.453.297-.703.297s-.516-.094-.703-.297l-1.297-1.297-1.297 1.297c-.391.391-1.016.391-1.406 0l-1.297-1.297-1.297 1.297c-.391.391-1.016.391-1.406 0l-1.297-1.297-1.297 1.297c-.391.391-1.016.391-1.406 0l-1.297-1.297-1.297 1.297c-.391.391-1.016.391-1.406 0l-1.297-1.297-1.297 1.297c-.391.391-1.016.391-1.406 0l-1.297-1.297-1.297 1.297c-.391.391-1.016.391-1.406 0l-2-2 1.406-1.406 1.297 1.297 1.297-1.297c.391-.391 1.016-.391 1.406 0l1.297 1.297 1.297-1.297c.391-.391 1.016-.391 1.406 0l1.297 1.297 1.297-1.297c.391-.391 1.016-.391 1.406 0l1.297 1.297 1.297-1.297c.391-.391 1.016-.391 1.406 0l1.297 1.297 1.297-1.297c.391-.391 1.016-.391 1.406 0l1.297 1.297 1.297-1.297c.391-.391 1.016-.391 1.406 0l1.297 1.297zm-24.594-.594c-.391.391-1.016.391-1.406 0l-2-2 1.406-1.406 1.297 1.281 1.297-1.281c.391-.391 1.016-.391 1.406 0l1.297 1.281 1-1v-4.578l-3.281-4.906c-.359-.547-.109-1.297.516-1.516l2.766-.906v-4.672h2v-2h4v-2h4v2h4v2h2v4.672l2.766.906c.625.219.875.969.516 1.516l-3.281 4.906v4.578l.297-.281c.391-.391 1.016-.391 1.406 0l1.297 1.281 1.297-1.281c.391-.391 1.016-.391 1.406 0l2 2-1.406 1.406-1.297-1.297-1.297 1.297c-.187.203-.453.297-.703.297s-.516-.094-.703-.297l-1.297-1.297-1.297 1.297c-.391.391-1.016.391-1.406 0l-1.297-1.297-1.297 1.297c-.391.391-1.016.391-1.406 0l-1.297-1.297-1.297 1.297c-.391.391-1.016.391-1.406 0l-1.297-1.297-1.297 1.297c-.391.391-1.016.391-1.406 0l-1.297-1.297-1.297 1.297c-.391.391-1.016.391-1.406 0l-1.297-1.297zm6.297-17.703v2l6-2 6 2v-2h-2v-2h-8v2h-2z"/></svg>