<svg xmlns="http://www.w3.org/2000/svg" width="24" height="28" viewBox="0 0 24 28"><path d="M0 0h24v21.75l-12.125 5.281-11.875-5.281v-21.75zm22.437 20.734v-14.469h-20.875v14.469l10.328 4.594zm0-16.031v-3.141h-20.875v3.141h20.875zm-19.609 4.656v1.797h-.578v-1.797h.578zm0 2.313v1.797h-.578v-1.797h.578zm0 2.312v1.797h-.578v-1.797h.578zm0 2.313v1.797h-.578v-1.797h.578zm0 2.312v1.797h-.578v-1.797h.578zm.406 2.235l.234-.531 1.641.734-.234.516zm2.125.937l.234-.531 1.641.719-.234.531zm2.11.938l.234-.531 1.641.719-.234.531zm2.125.922l.234-.516 1.625.719-.234.531zm2.859.203l1.641-.719.234.516-1.641.734zm2.109-.938l1.641-.719.234.531-1.641.719zm2.126-.937l1.641-.719.234.531-1.641.719zm2.109-.922l1.641-.734.234.531-1.641.719zm-14.75-18.75v.562h-1.781v-.562h1.781zm2.531 0v.562h-1.797v-.562h1.797zm2.531 0v.562h-1.797v-.562h1.797zm2.516 0v.562h-1.781v-.562h1.781zm2.531 0v.562h-1.781v-.562h1.781zm2.532 0v.562h-1.797v-.562h1.797zm2.531 0v.562h-1.797v-.562h1.797zm2.515 0v.562h-1.781v-.562h1.781zm-18.906 5.312v1.234h-.578v-1.797h1.797v.562h-1.219zm3.75-.562v.562h-1.797v-.562h1.797zm2.531 0v.562h-1.797v-.562h1.797zm2.516 0v.562h-1.781v-.562h1.781zm2.531 0v.562h-1.781v-.562h1.781zm2.532 0v.562h-1.797v-.562h1.797zm2.531 0v.562h-1.797v-.562h1.797zm1.953 1.797v-1.234h-1.219v-.562h1.797v1.797h-.578zm0 2.312v-1.797h.578v1.797h-.578zm0 2.313v-1.797h.578v1.797h-.578zm0 2.312v-1.797h.578v1.797h-.578zm0 2.313v-1.797h.578v1.797h-.578zm0 2.312v-1.797h.578v1.797h-.578zm-9.297-.547c-2.688 0-4.891-2.188-4.891-4.891 0-2.688 2.203-4.891 4.891-4.891 2.703 0 4.891 2.203 4.891 4.891 0 2.703-2.188 4.891-4.891 4.891zm-2.578-5.953c0 2.375 4.156.641 4.156 2.031 0 .703-1.281.766-1.75.766-.656 0-1.594-.141-1.922-.797h-.047l-.484.984c.797.5 1.563.656 2.531.656 1.047 0 2.734-.313 2.734-1.672 0-2.578-4.203-.875-4.203-2.031 0-.703 1.109-.797 1.594-.797.578 0 1.563.172 1.906.703h.047l.469-.906c-.812-.328-1.469-.641-2.375-.641-1.078 0-2.656.344-2.656 1.703z"/></svg>