<svg xmlns="http://www.w3.org/2000/svg" width="26" height="28" viewBox="0 0 26 28"><path d="M12.984 10.516c.328 0 .641.094.922.281l3.469 2.312c.641.422 1.219.938 1.719 1.516l2.281 2.656c.391.453.562 1.062.453 1.656l-1.125 6.453c-.125.656-.656 1.156-1.328 1.234l-8.234.875-5.5.5h-.141c-.812 0-1.5-.656-1.5-1.5 0-.781.656-1.406 1.437-1.5l4.062-.5h-7c-.859 0-1.547-.719-1.5-1.578.047-.812.766-1.422 1.578-1.422l6.906-.016-8.141-1c-.844-.094-1.453-.859-1.328-1.719.125-.75.812-1.25 1.563-1.25h.156l7.516.938-5.484-1.469c-.781-.203-1.375-.922-1.25-1.719.125-.75.766-1.266 1.484-1.266l.313.031 7 1.5 3.391.578.094.016c.469 0 .703-.641.281-.922l-2.906-1.953c-.719-.484-.891-1.453-.375-2.141.281-.391.734-.594 1.188-.594zm-1.093 3.156l2.906 1.953-3.406-.578-.078-.031-.562-.594-3.719-4.094-.078-.109c-.484-.641-.375-1.578.297-2.094.625-.484 1.516-.328 2.063.25l2.219 2.297-.141.125c-.328.453-.453 1-.359 1.547.094.531.406 1.016.859 1.328zm13.859-7.094l.234 4.156c.047.766-.016 1.547-.172 2.297l-.75 3.422c-.125.594-.5 1.078-1.047 1.359l-1.656.844c.016-.625-.187-1.219-.609-1.703l-2.281-2.656c-.531-.609-1.141-1.156-1.828-1.609l-3.469-2.312c-.344-.234-.75-.359-1.188-.359-.531 0-1.016.219-1.375.578l-3.672-4.875c-.516-.688-.359-1.656.359-2.141.672-.469 1.594-.25 2.094.406l4.156 5.5-4.094-7.109c-.438-.734-.187-1.687.578-2.094.719-.375 1.625-.078 2.031.625l3.766 6.563-2.125-5.266c-.297-.75-.094-1.656.625-2.031.766-.406 1.703-.078 2.063.703l3.016 6.484 1.578 3.063c.25.484.984.281.953-.25l-.187-3.5c-.047-.859.625-1.578 1.484-1.594.812 0 1.469.688 1.516 1.5z"/></svg>