<svg xmlns="http://www.w3.org/2000/svg" width="32" height="28" viewBox="0 0 32 28"><path d="M22.344 9.109zm4.062 3.188c3.031 0 5.594 2.266 5.594 5.359 0 3.297-2.625 5.719-5.875 5.719-8.297 0-9.828-12.484-17.984-12.484-3.156 0-5.453 2.016-5.453 5.25 0 3.344 2.5 5.359 5.734 5.359 2.125 0 4.547-.891 6.266-2.125.281-.203.844-.812 1.141-.812s.547.25.547.547c0 .391-.656.953-.938 1.203-2.047 1.781-5.016 3.063-7.734 3.063-4.172 0-7.703-2.953-7.703-7.25s3.375-7.453 7.641-7.453c9.266 0 11.125 12.297 18.094 12.297 2.094 0 3.672-1.359 3.672-3.5 0-1.984-1.531-3.484-3.5-3.484-.875 0-1.75.578-2.344.578-.422 0-.797-.359-.797-.781 0-.578.266-1.188.266-1.813 0-3.328-2.547-5.734-5.844-5.734-2.656 0-4 1.844-4.438 1.844-.313 0-.562-.25-.562-.562 0-.281.203-.516.391-.719 1.266-1.437 3.234-2.188 5.141-2.188 3.969 0 6.953 2.922 6.953 6.891 0 .344-.016.688-.063 1.031.594-.156 1.203-.234 1.797-.234z"/></svg>