<svg xmlns="http://www.w3.org/2000/svg" width="26" height="28" viewBox="0 0 26 28"><path d="M23.734 12.125c1.281 0 2.266.938 2.266 2.219 0 1-.516 1.703-1.453 2.031l-2.688.922.875 2.609c.078.234.109.484.109.734 0 1.234-1 2.266-2.234 2.266-.984 0-1.859-.609-2.172-1.547l-.859-2.578-4.844 1.656.859 2.562c.078.234.125.484.125.734 0 1.219-1 2.266-2.25 2.266-.984 0-1.844-.609-2.156-1.547l-.859-2.547-2.391.828c-.25.078-.516.141-.781.141-1.266 0-2.219-.938-2.219-2.203 0-.969.625-1.844 1.547-2.156l2.438-.828-1.641-4.891-2.438.844c-.25.078-.5.125-.75.125-1.25 0-2.219-.953-2.219-2.203 0-.969.625-1.844 1.547-2.156l2.453-.828-.828-2.484c-.078-.234-.125-.484-.125-.734 0-1.234 1-2.266 2.25-2.266.984 0 1.844.609 2.156 1.547l.844 2.5 4.844-1.641-.844-2.5c-.078-.234-.125-.484-.125-.734 0-1.234 1.016-2.266 2.25-2.266.984 0 1.859.625 2.172 1.547l.828 2.516 2.531-.859c.219-.063.438-.094.672-.094 1.219 0 2.266.906 2.266 2.156 0 .969-.75 1.781-1.625 2.078l-2.453.844 1.641 4.937 2.562-.875c.234-.078.484-.125.719-.125zm-12.406 4.094l4.844-1.641-1.641-4.922-4.844 1.672z"/></svg>