<svg xmlns="http://www.w3.org/2000/svg" width="26" height="28" viewBox="0 0 26 28"><path d="M18.609 6.375h2.766l-1.125-3.406-.187-.734-.031-.313h-.063l-.047.313c-.047.187-.063.422-.172.734zm-7.109 16.125c0 .141-.063.266-.156.375l-4.984 4.984c-.109.094-.234.141-.359.141s-.25-.047-.359-.141l-5-5c-.141-.156-.187-.359-.109-.547s.266-.313.469-.313h3v-21.5c0-.281.219-.5.5-.5h3c.281 0 .5.219.5.5v21.5h3c.281 0 .5.219.5.5zm13.063 1.859v3.641h-9.125v-1.406l5.766-8.266c.125-.187.25-.344.328-.422l.172-.141v-.047l-.219.016c-.125.031-.281.047-.469.047h-3.625v1.797h-1.875v-3.578h8.859v1.391l-5.766 8.281c-.094.141-.219.281-.328.406l-.172.172v.031l.219-.031c.141-.031.281-.031.469-.031h3.875v-1.859h1.891zm1.39-14.015v1.656h-4.5v-1.656h1.172l-.734-2.25h-3.797l-.734 2.25h1.172v1.656h-4.484v-1.656h1.094l3.594-10.344h2.531l3.594 10.344h1.094z"/></svg>