<svg xmlns="http://www.w3.org/2000/svg" width="24" height="28" viewBox="0 0 24 28"><path d="M21.031 20.516c0-1.281-1.047-2.641-2.297-2.641-1.094 0-1.781.891-1.781 2.047 0 1.125.719 2.078 2.203 2.078 1.016 0 1.875-.609 1.875-1.484zm-9.531 1.984c0 .141-.063.266-.156.375l-4.984 4.984c-.109.094-.234.141-.359.141s-.25-.047-.359-.141l-5-5c-.141-.156-.187-.359-.109-.547s.266-.313.469-.313h3v-21.5c0-.281.219-.5.5-.5h3c.281 0 .5.219.5.5v21.5h3c.281 0 .5.219.5.5zm11.719-1.078c0 3.156-1.719 6.578-5.437 6.578-.703 0-1.281-.109-1.687-.25-.25-.078-.469-.156-.656-.234l.609-1.766c.141.063.313.125.484.172.313.109.719.203 1.172.203 1.875 0 2.844-1.563 3.141-3.187h-.031c-.438.469-1.359.797-2.281.797-2.266 0-3.75-1.781-3.75-3.813 0-2.156 1.656-3.922 3.953-3.922 2.484 0 4.484 2.031 4.484 5.422zm-.469-11.203v1.781h-7.328v-1.781h2.609v-6.75l.016-.562v-.25h-.031l-.109.187c-.078.125-.203.281-.406.484l-.969.906-1.281-1.344 3-2.891h1.922v10.219h2.578z"/></svg>