<svg xmlns="http://www.w3.org/2000/svg" width="34" height="28" viewBox="0 0 34 28"><path d="M9.688 17.5c-1.078.625-2.547 1-4.188 1h-2v-1h-1c-.281 0-.5-.562-.5-1.25 0-.281.047-.547.109-.766-1.203-.031-2.109-.234-2.109-.484s.906-.453 2.109-.484c-.063-.219-.109-.484-.109-.766 0-.688.219-1.25.5-1.25h1v-1h2c1.641 0 3.109.375 4.188 1h17.391c1.156.203 2.203.375 2.922.5 3 .5 4 1.5 4 2s-1 1.5-4 2c-.719.125-1.766.297-2.922.5h-17.391zm17.484-3.937c.5.344.828.859.828 1.437s-.328 1.094-.828 1.437l1.266.469c.641-.453 1.062-1.141 1.062-1.906s-.422-1.453-1.062-1.906zm-17.406 4.187h15.859s-3.391.594-7.125 1.25c-2 0-3.5 1.5-3.5 1.5l-4.5 4.5s-1.516 1-2.5 1h-1.5l-1.453-7.25h.453c1.594 0 3.109-.359 4.266-1zm-4.266-6.5h-.453l1.453-7.25h1.5c1.016 0 2 .5 2.5 1l4.5 4.5s1.5 1.5 3.5 1.5c3.734.656 7.125 1.25 7.125 1.25h-15.859c-1.156-.641-2.672-1-4.266-1z"/></svg>