<svg xmlns="http://www.w3.org/2000/svg" width="26" height="28" viewBox="0 0 26 28"><path d="M17.766 15.687l4.781-4.641-6.594-.969-2.953-5.969-2.953 5.969-6.594.969 4.781 4.641-1.141 6.578 5.906-3.109 5.891 3.109zm8.234-5.578c0 .281-.203.547-.406.75l-5.672 5.531 1.344 7.812.016.313c0 .422-.187.781-.641.781-.219 0-.438-.078-.625-.187l-7.016-3.687-7.016 3.687c-.203.109-.406.187-.625.187-.453 0-.656-.375-.656-.781l.031-.313 1.344-7.812-5.688-5.531c-.187-.203-.391-.469-.391-.75 0-.469.484-.656.875-.719l7.844-1.141 3.516-7.109c.141-.297.406-.641.766-.641s.625.344.766.641l3.516 7.109 7.844 1.141c.375.063.875.25.875.719z"/></svg>