<svg xmlns="http://www.w3.org/2000/svg" width="24" height="28" viewBox="0 0 24 28"><path d="M17 0c3.859 0 7 2.234 7 5v14c0 2.703-2.984 4.891-6.734 4.984l3.328 3.156c.328.313.109.859-.344.859h-16.5c-.453 0-.672-.547-.344-.859l3.328-3.156c-3.75-.094-6.734-2.281-6.734-4.984v-14c0-2.766 3.141-5 7-5h10zm-12.5 20.5c1.375 0 2.5-1.125 2.5-2.5s-1.125-2.5-2.5-2.5-2.5 1.125-2.5 2.5 1.125 2.5 2.5 2.5zm6.5-8.5v-8h-8.5v8h8.5zm8.5 8.5c1.375 0 2.5-1.125 2.5-2.5s-1.125-2.5-2.5-2.5-2.5 1.125-2.5 2.5 1.125 2.5 2.5 2.5zm2.5-8.5v-8h-9v8h9z"/></svg>