<svg xmlns="http://www.w3.org/2000/svg" width="26" height="28" viewBox="0 0 26 28"><path d="M8 21.5v-3c0-.281-.219-.5-.5-.5h-5c-.281 0-.5.219-.5.5v3c0 .281.219.5.5.5h5c.281 0 .5-.219.5-.5zm0-6v-3c0-.281-.219-.5-.5-.5h-5c-.281 0-.5.219-.5.5v3c0 .281.219.5.5.5h5c.281 0 .5-.219.5-.5zm8 6v-3c0-.281-.219-.5-.5-.5h-5c-.281 0-.5.219-.5.5v3c0 .281.219.5.5.5h5c.281 0 .5-.219.5-.5zm-8-12v-3c0-.281-.219-.5-.5-.5h-5c-.281 0-.5.219-.5.5v3c0 .281.219.5.5.5h5c.281 0 .5-.219.5-.5zm8 6v-3c0-.281-.219-.5-.5-.5h-5c-.281 0-.5.219-.5.5v3c0 .281.219.5.5.5h5c.281 0 .5-.219.5-.5zm8 6v-3c0-.281-.219-.5-.5-.5h-5c-.281 0-.5.219-.5.5v3c0 .281.219.5.5.5h5c.281 0 .5-.219.5-.5zm-8-12v-3c0-.281-.219-.5-.5-.5h-5c-.281 0-.5.219-.5.5v3c0 .281.219.5.5.5h5c.281 0 .5-.219.5-.5zm8 6v-3c0-.281-.219-.5-.5-.5h-5c-.281 0-.5.219-.5.5v3c0 .281.219.5.5.5h5c.281 0 .5-.219.5-.5zm0-6v-3c0-.281-.219-.5-.5-.5h-5c-.281 0-.5.219-.5.5v3c0 .281.219.5.5.5h5c.281 0 .5-.219.5-.5zm2-5v17c0 1.375-1.125 2.5-2.5 2.5h-21c-1.375 0-2.5-1.125-2.5-2.5v-17c0-1.375 1.125-2.5 2.5-2.5h21c1.375 0 2.5 1.125 2.5 2.5z"/></svg>