<svg xmlns="http://www.w3.org/2000/svg" width="25" height="28" viewBox="0 0 25 28"><path d="M4 9c0 .547-.453 1-1 1-.562 0-1-.453-1-1 0-.562.438-1 1-1 .547 0 1 .438 1 1zm2.5 8v-10c0-.547-.453-1-1-1h-4.5c-.547 0-1 .453-1 1v10c0 .547.453 1 1 1h4.5c.547 0 1-.453 1-1zm17.641-2.328c.531.594.859 1.5.859 2.328-.016 1.625-1.375 3-3 3h-4.328c.125.5.281.656.453 1 .406.812.875 1.719.875 3 0 1.203 0 4-3.5 4-.266 0-.516-.109-.703-.297-.672-.656-.859-1.625-1.031-2.547-.187-.906-.359-1.844-.969-2.453-.484-.484-1.016-1.156-1.578-1.875-.688-.906-2.188-2.766-2.766-2.812-.516-.047-.953-.484-.953-1v-10.016c0-.547.469-.984 1-1 .547-.016 1.484-.344 2.469-.688 1.687-.578 3.797-1.313 6.031-1.313h2.016c1.375.016 2.406.422 3.078 1.219.594.703.859 1.656.766 2.828.391.375.688.891.844 1.469.172.625.172 1.25 0 1.828.469.625.703 1.359.672 2.141 0 .219-.063.688-.234 1.188z"/></svg>