<svg xmlns="http://www.w3.org/2000/svg" width="24" height="28" viewBox="0 0 24 28"><path d="M4 21c0-.547-.453-1-1-1s-1 .453-1 1 .453 1 1 1 1-.453 1-1zm18-9c0-1.062-.953-2-2-2h-5.5c0-1.828 1.5-3.156 1.5-5 0-1.828-.359-3-2.5-3-1 1.016-.484 3.406-2 5-.438.453-.812.938-1.203 1.422-.703.906-2.562 3.578-3.797 3.578h-.5v10h.5c.875 0 2.312.562 3.156.859 1.719.594 3.5 1.141 5.344 1.141h1.891c1.766 0 3-.703 3-2.609 0-.297-.031-.594-.078-.875.656-.359 1.016-1.25 1.016-1.969 0-.375-.094-.75-.281-1.078.531-.5.828-1.125.828-1.859 0-.5-.219-1.234-.547-1.609.734-.016 1.172-1.422 1.172-2zm2-.016c0 .906-.266 1.797-.766 2.547.094.344.141.719.141 1.078 0 .781-.203 1.563-.594 2.25.031.219.047.453.047.672 0 1-.328 2-.938 2.781.031 2.953-1.984 4.688-4.875 4.688h-2.016c-2.219 0-4.281-.656-6.344-1.375-.453-.156-1.719-.625-2.156-.625h-4.5c-1.109 0-2-.891-2-2v-10c0-1.109.891-2 2-2h4.281c.609-.406 1.672-1.813 2.141-2.422.531-.688 1.078-1.359 1.672-2 .938-1 .438-3.469 2-5 .375-.359.875-.578 1.406-.578 1.625 0 3.187.578 3.953 2.094.484.953.547 1.859.547 2.906 0 1.094-.281 2.031-.75 3h2.75c2.156 0 4 1.828 4 3.984z"/></svg>