<svg xmlns="http://www.w3.org/2000/svg" width="24" height="28" viewBox="0 0 24 28"><path d="M4 7c0-.547-.453-1-1-1s-1 .453-1 1 .453 1 1 1 1-.453 1-1zm18 9c0-.578-.438-1.984-1.172-2 .328-.375.547-1.109.547-1.609 0-.734-.297-1.359-.828-1.859.187-.328.281-.703.281-1.078 0-.719-.359-1.609-1.016-1.969.047-.281.078-.578.078-.875 0-1.828-1.156-2.609-2.891-2.609h-2c-1.844 0-3.625.547-5.344 1.141-.844.297-2.281.859-3.156.859h-.5v10h.5c1.234 0 3.094 2.672 3.797 3.578.391.484.766.969 1.203 1.422 1.516 1.594 1 3.984 2 5 2.141 0 2.5-1.172 2.5-3 0-1.844-1.5-3.172-1.5-5h5.5c1.047 0 2-.938 2-2zm2 .016c0 2.156-1.844 3.984-4 3.984h-2.75c.469.969.75 1.906.75 3 0 1.031-.063 1.969-.547 2.906-.766 1.516-2.328 2.094-3.953 2.094-.531 0-1.031-.219-1.406-.578-1.563-1.531-1.078-4-2-5.016-.594-.625-1.141-1.297-1.672-1.984-.469-.609-1.531-2.016-2.141-2.422h-4.281c-1.109 0-2-.891-2-2v-10c0-1.109.891-2 2-2h4.5c.438 0 1.703-.469 2.156-.625 2.25-.781 4.203-1.375 6.609-1.375h1.75c2.844 0 4.891 1.687 4.875 4.609v.078c.609.781.938 1.781.938 2.781 0 .219-.016.453-.047.672.391.688.594 1.469.594 2.25 0 .359-.047.734-.141 1.078.5.75.766 1.641.766 2.547z"/></svg>