<svg xmlns="http://www.w3.org/2000/svg" width="24" height="28" viewBox="0 0 24 28"><path d="M17.953 17.531c0-.266-.109-.516-.297-.703l-2.828-2.828 2.828-2.828c.187-.187.297-.438.297-.703s-.109-.531-.297-.719l-1.406-1.406c-.187-.187-.453-.297-.719-.297s-.516.109-.703.297l-2.828 2.828-2.828-2.828c-.187-.187-.438-.297-.703-.297s-.531.109-.719.297l-1.406 1.406c-.187.187-.297.453-.297.719s.109.516.297.703l2.828 2.828-2.828 2.828c-.187.187-.297.438-.297.703s.109.531.297.719l1.406 1.406c.187.187.453.297.719.297s.516-.109.703-.297l2.828-2.828 2.828 2.828c.187.187.438.297.703.297s.531-.109.719-.297l1.406-1.406c.187-.187.297-.453.297-.719zm6.047-3.531c0 6.625-5.375 12-12 12s-12-5.375-12-12 5.375-12 12-12 12 5.375 12 12z"/></svg>