<svg xmlns="http://www.w3.org/2000/svg" width="28" height="28" viewBox="0 0 28 28"><path d="M19.641 17.359l-2.281 2.281c-.203.203-.516.203-.719 0l-2.641-2.641-2.641 2.641c-.203.203-.516.203-.719 0l-2.281-2.281c-.203-.203-.203-.516 0-.719l2.641-2.641-2.641-2.641c-.203-.203-.203-.516 0-.719l2.281-2.281c.203-.203.516-.203.719 0l2.641 2.641 2.641-2.641c.203-.203.516-.203.719 0l2.281 2.281c.203.203.203.516 0 .719l-2.641 2.641 2.641 2.641c.203.203.203.516 0 .719zm-15.641 4.641h20v-16h-20v16zm24-17.5v19c0 1.375-1.125 2.5-2.5 2.5h-23c-1.375 0-2.5-1.125-2.5-2.5v-19c0-1.375 1.125-2.5 2.5-2.5h23c1.375 0 2.5 1.125 2.5 2.5z"/></svg>