<svg xmlns="http://www.w3.org/2000/svg" width="36" height="28" viewBox="0 0 36 28"><path d="M10.172 15.578c0 .812-.656 1.469-1.453 1.469-.812 0-1.469-.656-1.469-1.469 0-.797.656-1.453 1.469-1.453.797 0 1.453.656 1.453 1.453zm18.031-.015c0 .812-.656 1.469-1.469 1.469s-1.469-.656-1.469-1.469.656-1.453 1.469-1.453 1.469.641 1.469 1.453zm-16.25.015c0-1.656-1.359-3.016-3.016-3.016-1.672 0-3.016 1.359-3.016 3.016 0 1.672 1.344 3.016 3.016 3.016 1.656 0 3.016-1.344 3.016-3.016zm18.016-.015c0-1.656-1.344-3.016-3.016-3.016-1.656 0-3.016 1.359-3.016 3.016 0 1.672 1.359 3.016 3.016 3.016 1.672 0 3.016-1.344 3.016-3.016zm-16.688.015c0 2.406-1.937 4.359-4.344 4.359s-4.359-1.953-4.359-4.359c0-2.391 1.953-4.344 4.359-4.344s4.344 1.953 4.344 4.344zm18.032-.015c0 2.406-1.953 4.344-4.359 4.344-2.391 0-4.344-1.937-4.344-4.344s1.953-4.344 4.344-4.344c2.406 0 4.359 1.937 4.359 4.344zm-15.063.046c0-3.984-3.234-7.219-7.219-7.219-3.969 0-7.203 3.234-7.203 7.219s3.234 7.219 7.203 7.219c3.984 0 7.219-3.234 7.219-7.219zm10.438-8.953c-2.578-1.125-5.484-1.734-8.687-1.734s-6.391.609-8.953 1.719c4.953.016 8.953 4.016 8.953 8.969 0-4.859 3.859-8.813 8.687-8.953zm7.484 8.953c0-3.984-3.219-7.219-7.203-7.219s-7.219 3.234-7.219 7.219 3.234 7.219 7.219 7.219 7.203-3.234 7.203-7.219zm-4.156-8.843h5.984c-.938 1.094-1.625 2.562-1.797 3.578 1.078 1.484 1.719 3.297 1.719 5.266 0 4.953-4.016 8.953-8.953 8.953-2.812 0-5.313-1.281-6.953-3.297 0 0-.734.875-2.016 2.797-.219-.453-1.328-2.031-2-2.812-1.641 2.031-4.156 3.313-6.969 3.313-4.937 0-8.953-4-8.953-8.953 0-1.969.641-3.781 1.719-5.266-.172-1.016-.859-2.484-1.797-3.578h5.703c3.063-2.047 7.516-3.328 12.297-3.328s8.953 1.281 12.016 3.328z"/></svg>