<svg xmlns="http://www.w3.org/2000/svg" width="29" height="28" viewBox="0 0 29 28"><path d="M10 22c0-1.094-.906-2-2-2s-2 .906-2 2 .906 2 2 2 2-.906 2-2zm-6-8h6v-4h-2.469c-.063 0-.297.094-.344.141l-3.047 3.047c-.047.047-.141.281-.141.344v.469zm20 8c0-1.094-.906-2-2-2s-2 .906-2 2 .906 2 2 2 2-.906 2-2zm4-17v16c0 1.156-1.219 1-2 1 0 2.203-1.797 4-4 4s-4-1.797-4-4h-6c0 2.203-1.797 4-4 4s-4-1.797-4-4h-1c-.781 0-2 .156-2-1 0-.547.453-1 1-1v-5c0-1.109-.156-2.344.703-3.203l3.094-3.094c.391-.391 1.141-.703 1.703-.703h2.5v-3c0-.547.453-1 1-1h16c.547 0 1 .453 1 1z"/></svg>