<svg xmlns="http://www.w3.org/2000/svg" width="26" height="28" viewBox="0 0 26 28"><path d="M20 23c0-.547-.453-1-1-1s-1 .453-1 1 .453 1 1 1 1-.453 1-1zm4 0c0-.547-.453-1-1-1s-1 .453-1 1 .453 1 1 1 1-.453 1-1zm2-3.5v5c0 .828-.672 1.5-1.5 1.5h-23c-.828 0-1.5-.672-1.5-1.5v-5c0-.828.672-1.5 1.5-1.5h6.672c.422 1.156 1.531 2 2.828 2h4c1.297 0 2.406-.844 2.828-2h6.672c.828 0 1.5.672 1.5 1.5zm-5.078-10.125c-.156.375-.516.625-.922.625h-4v7c0 .547-.453 1-1 1h-4c-.547 0-1-.453-1-1v-7h-4c-.406 0-.766-.25-.922-.625-.156-.359-.078-.797.219-1.078l7-7c.187-.203.453-.297.703-.297s.516.094.703.297l7 7c.297.281.375.719.219 1.078z"/></svg>