<svg xmlns="http://www.w3.org/2000/svg" width="22" height="28" viewBox="0 0 22 28"><path d="M6 21c0 .547-.453 1-1 1s-1-.453-1-1 .453-1 1-1 1 .453 1 1zm16 .953c0 2.547-1.672 4.047-4.172 4.047h-13.656c-2.5 0-4.172-1.5-4.172-4.047 0-3.109.625-8.016 4.344-8.828-.25.594-.344 1.234-.344 1.875v3.172c-1.203.422-2 1.563-2 2.828 0 1.656 1.344 3 3 3s3-1.344 3-3c0-1.266-.812-2.406-2-2.828v-3.172c0-.516.047-1.031.391-1.453 1.313 1.031 2.938 1.625 4.609 1.625s3.297-.594 4.609-1.625c.344.422.391.938.391 1.453v1c-2.203 0-4 1.797-4 4v1.391c-.313.281-.5.688-.5 1.109 0 .828.672 1.5 1.5 1.5s1.5-.672 1.5-1.5c0-.422-.187-.828-.5-1.109v-1.391c0-1.094.906-2 2-2s2 .906 2 2v1.391c-.313.281-.5.688-.5 1.109 0 .828.672 1.5 1.5 1.5s1.5-.672 1.5-1.5c0-.422-.187-.828-.5-1.109v-1.391c0-1.422-.766-2.75-2-3.453 0-1.141.109-2.359-.344-3.422 3.719.812 4.344 5.719 4.344 8.828zm-5-13.953c0 3.313-2.688 6-6 6s-6-2.688-6-6 2.688-6 6-6 6 2.688 6 6z"/></svg>