<svg xmlns="http://www.w3.org/2000/svg" width="24" height="28" viewBox="0 0 24 28"><path d="M18.766 12.25c2.203.641 5.234 2.812 5.234 9.922 0 3.219-2.391 5.828-5.328 5.828h-13.344c-2.938 0-5.328-2.609-5.328-5.828 0-7.109 3.031-9.281 5.234-9.922-.781-1.234-1.234-2.688-1.234-4.25 0-4.406 3.594-8 8-8s8 3.594 8 8c0 1.563-.453 3.016-1.234 4.25zm-6.766-10.25c-3.313 0-6 2.688-6 6s2.688 6 6 6 6-2.688 6-6-2.688-6-6-6zm6.672 24c1.828 0 3.328-1.703 3.328-3.828 0-4.922-1.656-8-4.75-8.156-1.406 1.234-3.234 1.984-5.25 1.984s-3.844-.75-5.25-1.984c-3.094.156-4.75 3.234-4.75 8.156 0 2.125 1.5 3.828 3.328 3.828h13.344z"/></svg>