<svg xmlns="http://www.w3.org/2000/svg" width="28" height="28" viewBox="0 0 28 28"><path d="M27.969 8.266c.391 4.953-3.234 9.156-7.969 9.672v4.062h3.5c.281 0 .5.219.5.5v1c0 .281-.219.5-.5.5h-3.5v3.5c0 .281-.219.5-.5.5h-1c-.281 0-.5-.219-.5-.5v-3.5h-8v3.5c0 .281-.219.5-.5.5h-1c-.281 0-.5-.219-.5-.5v-3.5h-3.5c-.281 0-.5-.219-.5-.5v-1c0-.281.219-.5.5-.5h3.5v-4.062c-4.734-.516-8.359-4.719-7.969-9.672.344-4.297 3.797-7.812 8.078-8.219 2.188-.219 4.234.359 5.891 1.469 1.656-1.109 3.703-1.687 5.891-1.469 4.281.406 7.734 3.922 8.078 8.219zm-13.969 5.625c1.234-1.266 2-2.984 2-4.891s-.766-3.625-2-4.891c-1.234 1.266-2 2.984-2 4.891s.766 3.625 2 4.891zm-5 2.109c1.234 0 2.391-.328 3.406-.891-1.5-1.609-2.406-3.75-2.406-6.109s.922-4.5 2.406-6.109c-1.016-.562-2.172-.891-3.406-.891-3.859 0-7 3.141-7 7s3.141 7 7 7zm9 6v-4.062c-1.469-.156-2.828-.688-4-1.469-1.172.781-2.531 1.313-4 1.469v4.062h8zm1-6c3.859 0 7-3.141 7-7s-3.141-7-7-7c-1.234 0-2.391.328-3.406.891 1.484 1.609 2.406 3.75 2.406 6.109s-.906 4.5-2.406 6.109c1.016.562 2.172.891 3.406.891z"/></svg>