<svg xmlns="http://www.w3.org/2000/svg" width="24" height="28" viewBox="0 0 24 28"><path d="M23.391 12.922v3.094c-1.094.25-2.188.359-3.094.359-2.188 4.594-6.109 8.531-7.422 9.266-.828.469-1.609.5-2.531-.047-1.609-.969-7.703-5.969-9.734-21.688h4.422c1.109 9.438 3.828 14.281 6.813 17.906 1.656-1.656 3.25-3.859 4.484-6.344-2.953-1.5-4.75-4.797-4.75-8.641 0-3.891 2.234-6.828 6.062-6.828 3.719 0 5.75 2.312 5.75 6.297 0 1.484-.313 3.172-.906 4.469 0 0-2.75.547-3.766-1.219.203-.672.484-1.828.484-2.875 0-1.859-.672-2.766-1.687-2.766-1.078 0-1.828 1.016-1.828 2.969 0 3.984 2.531 6.266 5.812 6.266.578 0 1.234-.063 1.891-.219z"/></svg>