<svg xmlns="http://www.w3.org/2000/svg" width="36" height="28" viewBox="0 0 36 28"><path d="M23.344 25.609l-4.609-10.859c-1.828 3.578-3.844 7.313-5.578 10.859-.016.016-.844 0-.844-.016-2.641-6.172-5.406-12.297-8.047-18.484-.641-1.5-2.781-3.938-4.25-3.922l-.016-.797h9.109v.781c-1.078.063-2.969.75-2.438 1.922 1.234 2.797 5.828 13.516 7.063 16.234.844-1.672 3.25-6.141 4.234-8.031-.781-1.594-3.297-7.531-4.094-9-.547-1-2.031-1.094-3.141-1.109v-.781l8.016.016v.734c-1.094.031-2.141.438-1.656 1.469 1.062 2.25 1.719 3.828 2.703 5.891.313-.609 1.953-3.906 2.703-5.672.5-1.156-.219-1.609-2.172-1.656l.016-.766c2.5-.016 6.25-.016 6.922-.031v.766c-1.266.047-2.578.719-3.266 1.781l-3.328 6.906c.359.906 3.563 8.031 3.891 8.813l6.891-15.891c-.484-1.297-2.047-1.578-2.656-1.594v-.781l7.187.063.016.031-.016.688c-1.578.047-2.531.891-3.141 2.266-1.406 3.25-5.812 13.5-8.734 20.172h-.766z"/></svg>