<svg xmlns="http://www.w3.org/2000/svg" width="28" height="28" viewBox="0 0 28 28"><path d="M1.984 14c0-1.734.375-3.391 1.047-4.891l5.734 15.703c-4.016-1.953-6.781-6.062-6.781-10.813zm20.125-.609c0 1.031-.422 2.219-.922 3.891l-1.188 4-4.344-12.906s.719-.047 1.375-.125c.641-.078.562-1.031-.078-.984-1.953.141-3.203.156-3.203.156s-1.172-.016-3.156-.156c-.656-.047-.734.938-.078.984l1.25.125 1.875 5.125-2.625 7.875-4.375-13s.719-.047 1.375-.125c.641-.078.562-1.031-.078-.984-1.937.141-3.203.156-3.203.156l-.766-.016c2.141-3.266 5.828-5.422 10.031-5.422 3.125 0 5.969 1.203 8.109 3.156h-.156c-1.172 0-2.016 1.016-2.016 2.125 0 .984.578 1.813 1.188 2.812.469.797.984 1.828.984 3.313zm-7.906 1.656l3.703 10.109.078.172c-1.25.438-2.578.688-3.984.688-1.172 0-2.312-.172-3.391-.5zm10.328-6.813c.938 1.719 1.484 3.672 1.484 5.766 0 4.438-2.406 8.297-5.984 10.375l3.672-10.594c.609-1.75.922-3.094.922-4.312 0-.438-.031-.844-.094-1.234zm-10.531-8.234c7.719 0 14 6.281 14 14s-6.281 14-14 14-14-6.281-14-14 6.281-14 14-14zm0 27.359c7.359 0 13.359-6 13.359-13.359s-6-13.359-13.359-13.359-13.359 6-13.359 13.359 6 13.359 13.359 13.359z"/></svg>