<svg xmlns="http://www.w3.org/2000/svg" width="22" height="28" viewBox="0 0 22 28"><path d="M9.328 10.422s-.156.266-4.016 7.125c-.203.344-.469.719-1.016.719h-3.734c-.219 0-.391-.109-.484-.266s-.109-.359 0-.562l3.953-7v-.016l-2.516-4.359c-.109-.203-.125-.422-.016-.578.094-.156.281-.234.5-.234h3.734c.562 0 .844.375 1.031.703 2.547 4.453 2.562 4.469 2.562 4.469zm12.594-10.031c.109.156.109.375 0 .578l-8.25 14.594v.016l5.25 9.609c.109.203.109.422.016.578-.109.156-.281.234-.5.234h-3.734c-.562 0-.859-.375-1.031-.703-5.297-9.703-5.297-9.719-5.297-9.719s.266-.469 8.297-14.719c.203-.359.438-.703 1-.703h3.766c.219 0 .391.078.484.234z"/></svg>