<svg xmlns="http://www.w3.org/2000/svg" width="24" height="28" viewBox="0 0 24 28"><path d="M12.078 20.609v1.984c-.016 4.406-.016 4.562-.094 4.766-.125.328-.406.547-.797.625-1.125.187-4.641-1.109-5.375-1.984-.156-.172-.234-.375-.266-.562-.016-.141.016-.281.063-.406.078-.219.219-.391 3.359-4.109 0 0 .016 0 .938-1.094.313-.391.875-.516 1.391-.328.516.203.797.641.781 1.109zm-2.328-3.921c-.031.547-.344.953-.812 1.094l-1.875.609c-4.203 1.344-4.344 1.375-4.562 1.375-.344-.016-.656-.219-.844-.562-.125-.25-.219-.672-.266-1.172-.172-1.531.031-3.828.484-4.547.219-.344.531-.516.875-.5.234 0 .422.094 4.953 1.937 0 0-.016.016 1.313.531.469.187.766.672.734 1.234zm12.906 4.64c-.156 1.125-2.484 4.078-3.547 4.5-.359.141-.719.109-.984-.109-.187-.141-.375-.422-2.875-4.484l-.734-1.203c-.281-.438-.234-1 .125-1.437.344-.422.844-.562 1.297-.406 0 0 .016.016 1.859.625 4.203 1.375 4.344 1.422 4.516 1.563.281.219.406.547.344.953zm-10.5-9.875c.078 1.625-.609 1.828-.844 1.906-.219.063-.906.266-1.781-1.109-5.75-9.078-5.906-9.344-5.906-9.344-.078-.328.016-.688.297-.969.859-.891 5.531-2.203 6.75-1.891.391.094.672.344.766.703.063.391.625 8.813.719 10.703zm10.344 1.688c.031.391-.109.719-.406.922-.187.125-.375.187-5.141 1.344-.766.172-1.188.281-1.422.359l.016-.031c-.469.125-1-.094-1.297-.562s-.281-.984 0-1.359c0 0 .016-.016 1.172-1.594 2.562-3.5 2.688-3.672 2.875-3.797.297-.203.656-.203 1.016-.031 1.016.484 3.063 3.531 3.187 4.703v.047z"/></svg>