<svg xmlns="http://www.w3.org/2000/svg" width="26" height="28" viewBox="0 0 26 28"><path d="M5.297 3.406h10.797l-.406 1.125h-10.391c-2.297 0-4.172 1.891-4.172 4.188v12.047c0 1.969 1.406 3.703 3.344 4.109.5.109 1.016.078 1.531.078v1.125h-.703c-2.922 0-5.297-2.391-5.297-5.313v-12.047c0-2.922 2.375-5.313 5.297-5.313zm13.297-3.406h3.859l-7.531 20.219c-1.406 3.75-3.109 7.656-7.734 7.781v-3.047c1.734-.281 2.844-1.234 3.437-2.844.203-.531.313-1.078.313-1.641s-.109-1.125-.313-1.656l-4.453-11.453h3.563l2.922 9.141zm7.406 8.719v17.359h-12.422c.25-.375.516-.734.703-1.141h10.594v-16.219c0-1.781-1.125-3.375-2.797-3.969l.391-1.047c2.125.719 3.531 2.781 3.531 5.016z"/></svg>