<svg xmlns="http://www.w3.org/2000/svg" width="24" height="28" viewBox="0 0 24 28"><path d="M14.359 20.359v-2.453c0-.516-.156-.781-.453-.781-.172 0-.344.078-.516.25v3.5c.172.172.344.25.516.25.297 0 .453-.25.453-.766zm2.875-1.906h1.031v-.531c0-.531-.172-.797-.516-.797s-.516.266-.516.797v.531zm-8.921-4.156v1.094h-1.25v6.609h-1.156v-6.609h-1.219v-1.094h3.625zm3.14 1.969v5.734h-1.047v-.625c-.406.469-.797.703-1.188.703-.328 0-.562-.141-.656-.438-.063-.172-.094-.438-.094-.844v-4.531h1.031v4.219c0 .234 0 .375.016.406.016.156.094.234.234.234.219 0 .422-.156.656-.484v-4.375h1.047zm3.938 1.734v2.281c0 .516-.031.906-.109 1.141-.125.438-.406.656-.828.656-.359 0-.719-.219-1.062-.641v.562h-1.047v-7.703h1.047v2.516c.328-.406.688-.625 1.062-.625.422 0 .703.219.828.656.078.234.109.609.109 1.156zm3.922 2.016v.141c0 .344-.016.562-.031.672-.031.234-.109.438-.234.625-.281.422-.719.625-1.25.625-.547 0-.969-.203-1.266-.594-.219-.281-.328-.734-.328-1.344v-2.016c0-.609.094-1.047.313-1.344.297-.391.719-.594 1.25-.594.516 0 .938.203 1.219.594.219.297.328.734.328 1.344v1.188h-2.078v1.016c0 .531.172.797.531.797.25 0 .406-.141.469-.406 0-.063.016-.297.016-.703h1.062zm-7.047-12.875v2.438c0 .531-.172.797-.5.797-.344 0-.5-.266-.5-.797v-2.438c0-.531.156-.812.5-.812.328 0 .5.281.5.812zm8.328 11.14c0-1.344 0-2.766-.297-4.062-.219-.922-.969-1.594-1.859-1.687-2.125-.234-4.281-.234-6.438-.234-2.141 0-4.297 0-6.422.234-.906.094-1.656.766-1.859 1.687-.297 1.297-.313 2.719-.313 4.062 0 1.328 0 2.75.313 4.062.203.906.953 1.578 1.844 1.687 2.141.234 4.297.234 6.438.234s4.297 0 6.438-.234c.891-.109 1.641-.781 1.844-1.687.313-1.313.313-2.734.313-4.062zm-11.797-10.172l1.406-4.625h-1.172l-.797 3.047-.828-3.047h-1.219l.734 2.156c.375 1.094.609 1.906.719 2.469v3.141h1.156v-3.141zm4.515 1.266v-2.031c0-.609-.109-1.062-.328-1.359-.297-.391-.703-.594-1.219-.594-.531 0-.938.203-1.219.594-.219.297-.328.75-.328 1.359v2.031c0 .609.109 1.062.328 1.359.281.391.688.594 1.219.594.516 0 .922-.203 1.219-.594.219-.281.328-.75.328-1.359zm2.829 1.875h1.047v-5.781h-1.047v4.422c-.234.328-.453.484-.656.484-.141 0-.234-.078-.25-.25-.016-.031-.016-.156-.016-.406v-4.25h-1.047v4.578c0 .406.031.672.094.859.109.281.344.422.672.422.391 0 .781-.234 1.203-.703v.625zm7.859-4.75v15c0 2.484-2.016 4.5-4.5 4.5h-15c-2.484 0-4.5-2.016-4.5-4.5v-15c0-2.484 2.016-4.5 4.5-4.5h15c2.484 0 4.5 2.016 4.5 4.5z"/></svg>