<?xml version="1.0" encoding="UTF-8"?>
<svg width="16px" height="16px" viewBox="0 0 16 16" version="1.1" xmlns="http://www.w3.org/2000/svg" xmlns:xlink="http://www.w3.org/1999/xlink">
    <!-- Generator: Sketch 40.3 (33839) - http://www.bohemiancoding.com/sketch -->
    <title>Icons / Edit</title>
    <desc>Created with Sketch.</desc>
    <defs/>
    <g id="Symbols" stroke="none" stroke-width="1" fill="none" fill-rule="evenodd">
        <g id="Icons-/-Edit" fill="#4A90E2">
            <g id="Shape">
                <path d="M15.0712381,0.928634921 C14.4886349,0.345904762 13.7867937,0.0544761905 12.9660952,0.0544761905 L3.03403175,0.0544761905 C2.21333333,0.0544761905 1.51149206,0.345904762 0.928634921,0.928634921 C0.345904762,1.51149206 0.0544761905,2.21333333 0.0544761905,3.03403175 L0.0544761905,12.9659683 C0.0544761905,13.7866667 0.345904762,14.4885079 0.928634921,15.0713651 C1.51149206,15.6542222 2.21333333,15.9456508 3.03403175,15.9456508 L12.9659683,15.9456508 C13.7866667,15.9456508 14.4885079,15.6542222 15.0711111,15.0713651 C15.6539683,14.4885079 15.9453968,13.7866667 15.9453968,12.9659683 L15.9453968,3.03403175 C15.9453968,2.21333333 15.6539683,1.51136508 15.0712381,0.928634921 L15.0712381,0.928634921 Z M5.68253968,13.2970159 L2.70285714,13.2970159 L2.70285714,10.3174603 L8.33104762,4.68939683 L11.3104762,7.66895238 L5.68253968,13.2970159 L5.68253968,13.2970159 Z M12.9245714,6.05498413 L11.9728254,7.00685714 L8.99326984,4.0271746 L9.94488889,3.07542857 C10.1380317,2.8824127 10.3724444,2.78577778 10.6485079,2.78577778 C10.9243175,2.78577778 11.1588571,2.88228571 11.351873,3.07542857 L12.9245714,4.648 C13.1175873,4.84101587 13.2142222,5.07555556 13.2142222,5.35149206 C13.2142222,5.62742857 13.1177143,5.86184127 12.9245714,6.05498413 L12.9245714,6.05498413 Z"/>
                <polygon points="3.69625397 10.7313016 3.69625397 11.3104762 4.68939683 11.3104762 4.68939683 12.303873 5.26869841 12.303873 5.80673016 11.7658413 4.23415873 10.1931429"/>
                <path d="M5.19644444,9.20012698 C5.07911111,9.31720635 5.0688254,9.42057143 5.16533333,9.51034921 C5.25498413,9.60698413 5.35847619,9.59669841 5.47568254,9.47936508 L8.48634921,6.46869841 C8.60355556,6.35161905 8.61384127,6.24812698 8.51733333,6.15847619 C8.42755556,6.06184127 8.32419048,6.07212698 8.20698413,6.18946032 L5.19644444,9.20012698 L5.19644444,9.20012698 Z"/>
            </g>
        </g>
    </g>
</svg>