<svg width="16" height="16" viewBox="0 0 16 16" xmlns="http://www.w3.org/2000/svg"><title>Artboard</title><g fill="none" fill-rule="evenodd"><rect fill="#EEE" width="16" height="16" rx="3.636"/><path d="M6.545 9.225c.567 0 1.051-.2 1.452-.602.4-.4.601-.884.601-1.451 0-.567-.2-1.05-.601-1.452-.401-.4-.885-.6-1.452-.6-.566 0-1.05.2-1.451.6a1.978 1.978 0 0 0-.602 1.452c0 .567.2 1.05.602 1.451.4.401.885.602 1.451.602z" fill="#777"/><path d="M10.29 11.393a5.467 5.467 0 0 0-.216-1.163 2.747 2.747 0 0 0-.23-.521 1.878 1.878 0 0 0-.332-.433 1.395 1.395 0 0 0-.457-.286 1.606 1.606 0 0 0-.596-.107c-.032 0-.107.038-.224.115-.118.076-.25.162-.399.256-.148.095-.34.18-.577.257a2.307 2.307 0 0 1-.714.115c-.239 0-.476-.039-.713-.115a2.527 2.527 0 0 1-.578-.257c-.148-.094-.28-.18-.398-.256-.118-.077-.193-.115-.225-.115-.217 0-.416.035-.596.107-.18.07-.332.166-.457.286a1.88 1.88 0 0 0-.331.433 2.777 2.777 0 0 0-.23.52 5.431 5.431 0 0 0-.217 1.163 8.01 8.01 0 0 0-.018.554c0 .428.13.765.39 1.013.26.248.606.372 1.037.372h4.673c.43 0 .777-.124 1.037-.372.26-.248.39-.585.39-1.013 0-.189-.006-.373-.019-.553zm1.507-6.662V2.835h-.589V4.73H9.321v.589h1.887v1.896h.589V5.32h1.887v-.59z" fill="#777"/></g></svg>