<svg xmlns="http://www.w3.org/2000/svg" xmlns:xlink="http://www.w3.org/1999/xlink" width="264" height="203" viewBox="0 0 264 203"><svg width="11" height="18" viewBox="0 0 11 18"><title>Shape</title><path d="M3.228 9l7.089-7.088a.57.57 0 0 0 0-.83L9.415.18A.57.57 0 0 0 9 0a.57.57 0 0 0-.415.18L.18 8.585a.57.57 0 0 0 0 .83l8.405 8.405a.57.57 0 0 0 .83 0l.901-.902a.57.57 0 0 0 0-.83L3.228 9z" fill-rule="evenodd"/></svg><svg width="16" height="16" viewBox="0 0 16 16" x="11" y="18"><title>Icons / Edit</title><g fill="#4A90E2" fill-rule="evenodd"><path d="M15.071.929a2.87 2.87 0 0 0-2.105-.875H3.034A2.87 2.87 0 0 0 .929.93a2.87 2.87 0 0 0-.875 2.105v9.932c0 .82.292 1.523.875 2.105a2.87 2.87 0 0 0 2.105.875h9.932c.82 0 1.523-.292 2.105-.875a2.87 2.87 0 0 0 .874-2.105V3.034a2.87 2.87 0 0 0-.874-2.105zM5.683 13.297h-2.98v-2.98L8.33 4.69l2.98 2.98-5.628 5.628zm7.242-7.242l-.952.952-2.98-2.98.952-.952a.958.958 0 0 1 .704-.29c.275 0 .51.097.703.29l1.573 1.573c.193.193.29.428.29.703a.96.96 0 0 1-.29.704z"/><path d="M3.696 10.731v.58h.993v.993h.58l.538-.538-1.573-1.573zm1.5-1.531c-.117.117-.127.22-.03.31.089.097.192.087.31-.03l3.01-3.011c.118-.117.128-.22.031-.31-.09-.097-.193-.087-.31.03L5.197 9.2z"/></g></svg><svg width="16" height="16" viewBox="0 0 16 16" x="27" y="34"><title>Artboard</title><g fill="none" fill-rule="evenodd"><rect fill="#EEE" width="16" height="16" rx="3.636"/><path d="M6.545 9.225c.567 0 1.051-.2 1.452-.602.4-.4.601-.884.601-1.451 0-.567-.2-1.05-.601-1.452-.401-.4-.885-.6-1.452-.6-.566 0-1.05.2-1.451.6a1.978 1.978 0 0 0-.602 1.452c0 .567.2 1.05.602 1.451.4.401.885.602 1.451.602z" fill="#777"/><path d="M10.29 11.393a5.467 5.467 0 0 0-.216-1.163 2.747 2.747 0 0 0-.23-.521 1.878 1.878 0 0 0-.332-.433 1.395 1.395 0 0 0-.457-.286 1.606 1.606 0 0 0-.596-.107c-.032 0-.107.038-.224.115-.118.076-.25.162-.399.256-.148.095-.34.18-.577.257a2.307 2.307 0 0 1-.714.115c-.239 0-.476-.039-.713-.115a2.527 2.527 0 0 1-.578-.257c-.148-.094-.28-.18-.398-.256-.118-.077-.193-.115-.225-.115-.217 0-.416.035-.596.107-.18.07-.332.166-.457.286a1.88 1.88 0 0 0-.331.433 2.777 2.777 0 0 0-.23.52 5.431 5.431 0 0 0-.217 1.163 8.01 8.01 0 0 0-.018.554c0 .428.13.765.39 1.013.26.248.606.372 1.037.372h4.673c.43 0 .777-.124 1.037-.372.26-.248.39-.585.39-1.013 0-.189-.006-.373-.019-.553zm1.507-6.662V2.835h-.589V4.73H9.321v.589h1.887v1.896h.589V5.32h1.887v-.59z" fill="#777"/></g></svg><svg width="18" height="18" viewBox="0 0 18 18" x="43" y="50"><title>Artboard</title><path d="M15.66 8.54a1.098 1.098 0 0 0-.827-.358h-.389V5.727c0-1.568-.534-2.914-1.604-4.04C11.77.564 10.49 0 9 0 7.509 0 6.229.563 5.16 1.688c-1.07 1.125-1.605 2.471-1.605 4.04v2.454h-.388c-.324 0-.6.12-.827.358-.227.238-.34.528-.34.87v7.363c0 .34.113.63.34.87a1.1 1.1 0 0 0 .827.357h11.666c.325 0 .6-.12.827-.358a1.22 1.22 0 0 0 .34-.87V9.41c0-.34-.114-.63-.34-.87zm-3.549-.358H5.889V5.727c0-.903.304-1.675.911-2.314.608-.639 1.341-.958 2.2-.958.859 0 1.592.32 2.2.958.607.64.911 1.41.911 2.314v2.455z" fill-rule="evenodd"/></svg><svg width="18" height="18" viewBox="0 0 18 18" x="61" y="68"><title>menu</title><path d="M0 3h18v2H0zm0 10h18v2H0zm0-5h18v2H0z" fill="#1A1919" fill-rule="evenodd"/></svg><svg width="11" height="11" viewBox="0 0 11 11" x="79" y="86"><title>+</title><path d="M6.812 5.719l4.05-4.05L9.599.407l-4.05 4.05L1.504.408.245 1.667l4.047 4.047-4.05 4.05 1.263 1.262 4.05-4.05 4.047 4.047 1.257-1.257z" fill="#FFF" fill-rule="evenodd"/></svg><svg width="16" height="16" viewBox="0 0 16 16" x="90" y="97"><title>+</title><path d="M9.333 6.667V0H6.667v6.667H0v2.666h6.667V16h2.666V9.333H16V6.667z" fill="#FFF" fill-rule="evenodd"/></svg><svg width="20" height="20" viewBox="0 0 20 20" x="106" y="113"><title>Artboard</title><path d="M18.6 16.642l-3.71-3.71a7.408 7.408 0 0 0 1.341-4.316c0-1.032-.2-2.018-.6-2.959a7.612 7.612 0 0 0-1.623-2.434A7.612 7.612 0 0 0 11.574 1.6c-.941-.4-1.927-.6-2.959-.6-1.03 0-2.017.2-2.958.6a7.6 7.6 0 0 0-2.434 1.623A7.614 7.614 0 0 0 1.6 5.657c-.4.941-.6 1.927-.6 2.959 0 1.03.2 2.017.6 2.958a7.61 7.61 0 0 0 1.623 2.434 7.614 7.614 0 0 0 2.434 1.623c.941.4 1.927.6 2.958.6a7.408 7.408 0 0 0 4.317-1.342l3.71 3.7c.26.274.584.411.973.411.375 0 .7-.137.974-.411a1.33 1.33 0 0 0 .411-.974c0-.382-.133-.706-.4-.973zm-6.56-4.603c-.95.949-2.09 1.423-3.425 1.423-1.334 0-2.475-.475-3.423-1.423-.949-.948-1.423-2.09-1.423-3.424s.475-2.475 1.423-3.423c.948-.949 2.09-1.423 3.423-1.423 1.335 0 2.476.475 3.424 1.423.949.948 1.423 2.09 1.423 3.423 0 1.335-.475 2.476-1.423 3.424z" fill="#1A1919" fill-rule="evenodd"/></svg><svg width="16" height="16" viewBox="0 0 16 16" x="126" y="133"><title>Artboard</title><g fill="none" fill-rule="evenodd"><rect fill="#4E91DE" width="16" height="16" rx="3.636"/><path d="M6.545 9.225c.567 0 1.051-.2 1.452-.602.4-.4.601-.884.601-1.451 0-.567-.2-1.05-.601-1.452-.401-.4-.885-.6-1.452-.6-.566 0-1.05.2-1.451.6a1.978 1.978 0 0 0-.602 1.452c0 .567.2 1.05.602 1.451.4.401.885.602 1.451.602z" fill="#FFF"/><path d="M10.29 11.393a5.467 5.467 0 0 0-.216-1.163 2.747 2.747 0 0 0-.23-.521 1.878 1.878 0 0 0-.332-.433 1.395 1.395 0 0 0-.457-.286 1.606 1.606 0 0 0-.596-.107c-.032 0-.107.038-.224.115-.118.076-.25.162-.399.256-.148.095-.34.18-.577.257a2.307 2.307 0 0 1-.714.115c-.239 0-.476-.039-.713-.115a2.527 2.527 0 0 1-.578-.257c-.148-.094-.28-.18-.398-.256-.118-.077-.193-.115-.225-.115-.217 0-.416.035-.596.107-.18.07-.332.166-.457.286a1.88 1.88 0 0 0-.331.433 2.777 2.777 0 0 0-.23.52 5.431 5.431 0 0 0-.217 1.163 8.01 8.01 0 0 0-.018.554c0 .428.13.765.39 1.013.26.248.606.372 1.037.372h4.673c.43 0 .777-.124 1.037-.372.26-.248.39-.585.39-1.013 0-.189-.006-.373-.019-.553zm1.629-6.368l1.34-1.34-.416-.417-1.34 1.341-1.335-1.335-.416.417 1.334 1.334-1.34 1.341.416.416 1.34-1.34 1.335 1.334.416-.416z" fill="#FFF"/></g></svg><svg width="16" height="16" viewBox="0 0 16 16" x="142" y="149"><title>Upvote</title><g fill="none" fill-rule="evenodd"><rect fill="#EEE" width="16" height="16" rx="3.636"/><path d="M12.343 8.48c.207-.237.31-.518.31-.841 0-.294-.107-.548-.321-.762a1.041 1.041 0 0 0-.762-.322h-1.563a.953.953 0 0 1 .107-.26 4.66 4.66 0 0 0 .212-.418c.035-.082.071-.195.107-.338.036-.142.053-.286.053-.428 0-.09 0-.164-.002-.22a2.429 2.429 0 0 0-.029-.255 1.418 1.418 0 0 0-.067-.282 1.313 1.313 0 0 0-.136-.254.792.792 0 0 0-.226-.228 1.236 1.236 0 0 0-.338-.147 1.686 1.686 0 0 0-.466-.06.347.347 0 0 0-.254.108.982.982 0 0 0-.192.282c-.052.113-.09.211-.11.294a5.46 5.46 0 0 0-.07.344c-.034.158-.06.272-.077.341-.017.07-.05.161-.098.274a.865.865 0 0 1-.175.27c-.124.125-.314.35-.57.678-.185.24-.375.468-.57.683-.196.214-.339.325-.43.333a.37.37 0 0 0-.242.116.34.34 0 0 0-.101.245v3.617c0 .098.035.182.107.251.071.07.156.107.254.11.131.004.429.087.891.249.29.098.517.172.68.223.164.05.393.105.686.163.293.059.564.088.812.088h.728c.5-.008.871-.154 1.112-.44.218-.26.31-.6.277-1.022a1.1 1.1 0 0 0 .304-.53 1.16 1.16 0 0 0 0-.66 1.17 1.17 0 0 0 .243-.773c0-.12-.028-.264-.084-.43zM5.61 7.278H3.985a.347.347 0 0 0-.254.107.347.347 0 0 0-.107.254v3.612c0 .097.036.182.107.253a.348.348 0 0 0 .254.108H5.61a.347.347 0 0 0 .254-.108.347.347 0 0 0 .108-.253V7.639a.347.347 0 0 0-.108-.254.347.347 0 0 0-.254-.107z" fill="#777"/></g></svg><svg width="16" height="16" viewBox="0 0 16 16" x="158" y="165"><title>Group</title><g fill="none" fill-rule="evenodd"><rect fill="#4A90E2" width="16" height="16" rx="3.636"/><path d="M10.043 9.854a1.03 1.03 0 0 0 .259-.7.87.87 0 0 0-.268-.635.867.867 0 0 0-.635-.268H8.097a.794.794 0 0 1 .09-.216l.046-.085c.056-.107.1-.195.13-.264a2.04 2.04 0 0 0 .089-.282c.03-.119.044-.238.044-.357 0-.076 0-.137-.002-.184a2.024 2.024 0 0 0-.024-.211 1.181 1.181 0 0 0-.056-.235 1.094 1.094 0 0 0-.113-.212.66.66 0 0 0-.188-.19 1.03 1.03 0 0 0-.282-.123 1.405 1.405 0 0 0-.388-.05.29.29 0 0 0-.212.09.818.818 0 0 0-.16.235 1.403 1.403 0 0 0-.092.245 12.03 12.03 0 0 1-.122.571 1.513 1.513 0 0 1-.082.228.72.72 0 0 1-.146.226 6.949 6.949 0 0 0-.475.564c-.154.2-.312.39-.475.57-.163.178-.282.27-.357.277a.308.308 0 0 0-.203.096.284.284 0 0 0-.084.205v3.014c0 .082.03.151.09.21.059.057.13.088.21.091.11.003.358.072.744.207.241.082.43.144.566.186.137.042.327.088.572.136.244.049.47.073.677.073H8.5c.417-.006.725-.128.926-.367.182-.216.258-.5.23-.85a.915.915 0 0 0 .254-.443.966.966 0 0 0 0-.55.976.976 0 0 0 .202-.644c0-.1-.023-.22-.07-.358zm-5.61-1.001H3.079a.29.29 0 0 0-.212.089.29.29 0 0 0-.09.212v3.01c0 .08.03.151.09.21.06.06.13.09.212.09h1.354a.29.29 0 0 0 .212-.09.29.29 0 0 0 .089-.21v-3.01a.29.29 0 0 0-.09-.212.29.29 0 0 0-.211-.09zm7.486-3.828l1.34-1.34-.416-.417-1.34 1.341-1.335-1.335-.416.417 1.334 1.334-1.34 1.341.416.416 1.34-1.34 1.335 1.334.416-.416z" fill="#FFF"/></g></svg><svg width="90" height="22" viewBox="0 0 90 22" x="174" y="181"><title>Group 4</title><g fill="none" fill-rule="evenodd"><rect fill="#4ACA7E" width="90" height="22" rx="11"/><text font-family="Helvetica" font-size="11" fill="#FFF"><tspan x="28.135" y="15">VERIFIED</tspan></text><path d="M18.23 8.075l-.952-.952a.648.648 0 0 0-.476-.196.648.648 0 0 0-.476.196l-4.593 4.6-2.059-2.065a.648.648 0 0 0-.476-.196.648.648 0 0 0-.476.196l-.952.952a.648.648 0 0 0-.196.476c0 .187.065.345.196.476l2.534 2.535.953.952c.13.13.289.196.476.196a.649.649 0 0 0 .476-.196l.952-.952 5.07-5.07a.648.648 0 0 0 .195-.476.648.648 0 0 0-.196-.476z" fill="#FFF"/></g></svg></svg>