<svg xmlns="http://www.w3.org/2000/svg" xmlns:xlink="http://www.w3.org/1999/xlink" width="267" height="233" viewBox="0 0 267 233"><svg width="48" height="82" viewBox="0 0 48 82"><title>Shape</title><path d="M14.875 41l32.02-32.019c.543-.543.814-1.168.814-1.874 0-.706-.271-1.331-.814-1.873L42.821 1.16c-.543-.543-1.168-.815-1.873-.815-.706 0-1.331.272-1.874.815L1.107 39.126C.564 39.669.293 40.294.293 41c0 .706.271 1.331.814 1.874L39.073 80.84c.543.544 1.168.815 1.874.815.705 0 1.33-.271 1.873-.815l4.074-4.072c.543-.543.814-1.168.814-1.875 0-.705-.271-1.33-.814-1.873L14.875 41z" fill-rule="evenodd"/></svg><svg width="22" height="22" viewBox="0 0 22 22" x="48" y="82"><title>Group</title><g fill="none" fill-rule="evenodd"><rect fill="#EEE" width="22" height="22" rx="5"/><path d="M9 12.684a2.72 2.72 0 0 0 1.996-.827 2.72 2.72 0 0 0 .827-1.996 2.72 2.72 0 0 0-.827-1.995A2.72 2.72 0 0 0 9 7.039a2.72 2.72 0 0 0-1.996.827 2.72 2.72 0 0 0-.827 1.995c0 .78.276 1.445.827 1.996A2.72 2.72 0 0 0 9 12.684z" fill="#777"/><path d="M14.15 15.665a7.517 7.517 0 0 0-.104-.801 6.225 6.225 0 0 0-.195-.798 3.778 3.778 0 0 0-.316-.717 2.582 2.582 0 0 0-.456-.595 1.918 1.918 0 0 0-.628-.393 2.209 2.209 0 0 0-.82-.147c-.044 0-.147.052-.309.158l-.547.353c-.203.13-.468.247-.794.352a3.173 3.173 0 0 1-.981.158c-.329 0-.656-.052-.982-.158a3.474 3.474 0 0 1-.794-.352l-.547-.353c-.162-.106-.265-.158-.309-.158-.299 0-.572.049-.82.147a1.927 1.927 0 0 0-.628.393 2.584 2.584 0 0 0-.456.595 3.785 3.785 0 0 0-.316.717 7.468 7.468 0 0 0-.298 1.599 11.11 11.11 0 0 0-.025.76c0 .589.179 1.053.536 1.394.358.34.834.51 1.427.51h6.424c.593 0 1.069-.17 1.426-.51.358-.34.537-.805.537-1.393 0-.26-.009-.514-.026-.761zm2.07-9.16V3.898h-.809v2.607h-2.595v.81h2.595v2.607h.81V7.315h2.595v-.81z" fill="#777"/></g></svg><svg width="11" height="11" viewBox="0 0 11 11" x="70" y="104"><title>+</title><path d="M6.812 5.719l4.05-4.05L9.599.407l-4.05 4.05L1.504.408.245 1.667l4.047 4.047-4.05 4.05 1.263 1.262 4.05-4.05 4.047 4.047 1.257-1.257z" fill="#FFF" fill-rule="evenodd"/></svg><svg width="12" height="12" viewBox="0 0 12 12" x="81" y="115"><title>+</title><path fill="#FFF" d="M7 5V0H5v5H0v2h5v5h2V7h5V5z" fill-rule="evenodd"/></svg><svg width="18" height="18" viewBox="0 0 18 18" x="93" y="127"><title>Shape</title><path d="M17.573 15.621l-3.7-3.699a7.384 7.384 0 0 0 1.338-4.302c0-1.028-.2-2.011-.598-2.95a7.588 7.588 0 0 0-1.618-2.426A7.588 7.588 0 0 0 10.57.627 7.46 7.46 0 0 0 7.62.028c-1.027 0-2.01.2-2.949.599a7.588 7.588 0 0 0-2.426 1.617A7.59 7.59 0 0 0 .627 4.671 7.459 7.459 0 0 0 .028 7.62c0 1.028.2 2.01.599 2.949a7.588 7.588 0 0 0 1.617 2.426 7.59 7.59 0 0 0 2.426 1.618 7.459 7.459 0 0 0 2.95.598 7.384 7.384 0 0 0 4.302-1.337l3.699 3.688c.259.273.582.41.97.41.374 0 .698-.137.97-.41.274-.273.41-.597.41-.97a1.32 1.32 0 0 0-.398-.971zm-6.54-4.588c-.946.945-2.083 1.418-3.413 1.418-1.33 0-2.468-.473-3.413-1.418-.946-.946-1.418-2.083-1.418-3.413 0-1.33.472-2.468 1.418-3.413.945-.946 2.083-1.418 3.413-1.418 1.33 0 2.467.473 3.413 1.418.945.945 1.418 2.083 1.418 3.413 0 1.33-.473 2.467-1.418 3.413z" fill="#1A1919" fill-rule="evenodd"/></svg><svg width="22" height="22" viewBox="0 0 22 22" x="111" y="145"><title>Plus</title><defs><rect id="a" width="22" height="22" rx="5"/></defs><g fill="none" fill-rule="evenodd"><mask id="b" fill="#fff"><use xlink:href="#a"/></mask><use fill="#4A90E2" xlink:href="#a"/><g transform="translate(3 7)" mask="url(#b)" fill="#FFF"><path d="M6 5.684a2.72 2.72 0 0 0 1.996-.827 2.72 2.72 0 0 0 .827-1.996A2.72 2.72 0 0 0 7.996.866 2.72 2.72 0 0 0 6 .039a2.72 2.72 0 0 0-1.996.827 2.72 2.72 0 0 0-.827 1.995c0 .78.276 1.445.827 1.996A2.72 2.72 0 0 0 6 5.684z"/><path d="M11.15 8.665a7.517 7.517 0 0 0-.104-.801 6.225 6.225 0 0 0-.195-.798 3.778 3.778 0 0 0-.316-.717 2.582 2.582 0 0 0-.456-.595 1.918 1.918 0 0 0-.628-.393 2.209 2.209 0 0 0-.82-.147c-.044 0-.147.052-.309.158l-.547.353c-.203.13-.468.247-.794.352A3.173 3.173 0 0 1 6 6.235c-.329 0-.656-.052-.982-.158a3.474 3.474 0 0 1-.794-.352l-.547-.353c-.162-.106-.265-.158-.309-.158-.299 0-.572.049-.82.147a1.927 1.927 0 0 0-.628.393 2.584 2.584 0 0 0-.456.595 3.785 3.785 0 0 0-.316.717A7.468 7.468 0 0 0 .85 8.665a11.11 11.11 0 0 0-.025.76c0 .589.179 1.053.536 1.394.358.34.834.51 1.427.51h6.424c.593 0 1.069-.17 1.426-.51.358-.34.537-.805.537-1.393 0-.26-.009-.514-.026-.761z"/></g><path fill="#FFF" mask="url(#b)" transform="rotate(45 15.816 6.91)" d="M16.22 6.505V3.898h-.809v2.607h-2.595v.81h2.595v2.607h.81V7.315h2.595v-.81z"/></g></svg><svg width="22" height="22" viewBox="0 0 22 22" x="133" y="167"><title>Upvote</title><g fill="none" fill-rule="evenodd"><rect fill="#EEE" width="22" height="22" rx="5"/><path d="M16.971 11.66a1.7 1.7 0 0 0 .427-1.157c0-.403-.148-.752-.442-1.047a1.431 1.431 0 0 0-1.047-.443h-2.15a1.31 1.31 0 0 1 .147-.357 6.408 6.408 0 0 0 .291-.574c.05-.114.099-.269.148-.465.05-.197.074-.393.074-.59a3.34 3.34 0 0 0-.043-.652 1.95 1.95 0 0 0-.093-.388 1.806 1.806 0 0 0-.186-.349 1.089 1.089 0 0 0-.31-.314 1.7 1.7 0 0 0-.466-.202 2.318 2.318 0 0 0-.64-.081.48.48 0 0 0-.35.147 1.35 1.35 0 0 0-.264.388c-.072.155-.123.29-.151.404-.028.113-.06.271-.097.473-.047.217-.081.374-.105.47a2.496 2.496 0 0 1-.136.376 1.19 1.19 0 0 1-.24.372c-.17.17-.432.481-.784.931-.253.331-.515.644-.784.939-.269.295-.465.447-.59.458a.509.509 0 0 0-.333.159.468.468 0 0 0-.14.337v4.974c0 .135.05.25.148.345a.513.513 0 0 0 .349.152c.181.005.59.119 1.226.341.398.135.71.237.935.307.225.07.54.145.942.225.404.08.776.12 1.118.12h1.001c.688-.01 1.197-.212 1.528-.605.3-.357.427-.825.38-1.404a1.51 1.51 0 0 0 .42-.73 1.594 1.594 0 0 0 0-.908c.238-.315.349-.67.333-1.063 0-.165-.038-.362-.116-.59zm-9.257-1.653H5.48a.477.477 0 0 0-.35.147.477.477 0 0 0-.147.35v4.966c0 .134.05.25.147.349a.478.478 0 0 0 .35.147h2.234c.135 0 .251-.05.35-.147a.478.478 0 0 0 .147-.35v-4.966a.48.48 0 0 0-.148-.349.477.477 0 0 0-.349-.147z" fill="#777"/></g></svg><svg width="22" height="22" viewBox="0 0 22 22" x="155" y="189"><title>Icons / Upvote remove</title><g fill="none" fill-rule="evenodd"><use fill="#4A90E2" xlink:href="#a"/><g transform="translate(3 8)" mask="url(#b)" fill="#FFF"><path d="M10.81 5.55c.236-.272.355-.593.355-.964 0-.336-.123-.627-.368-.873a1.193 1.193 0 0 0-.873-.369H8.133a1.092 1.092 0 0 1 .123-.297 5.34 5.34 0 0 0 .242-.478c.041-.095.082-.225.123-.388.04-.164.061-.328.061-.492 0-.103 0-.187-.003-.252a2.783 2.783 0 0 0-.032-.291 1.624 1.624 0 0 0-.078-.323 1.505 1.505 0 0 0-.155-.291.908.908 0 0 0-.259-.262 1.416 1.416 0 0 0-.388-.168 1.931 1.931 0 0 0-.533-.068.398.398 0 0 0-.291.123 1.12 1.12 0 0 0-.22.323 1.93 1.93 0 0 0-.126.336 6.057 6.057 0 0 0-.081.395 16.54 16.54 0 0 1-.088.39 2.08 2.08 0 0 1-.113.314.991.991 0 0 1-.2.31c-.142.143-.36.402-.653.777-.212.276-.43.536-.653.782-.225.246-.388.373-.492.382a.424.424 0 0 0-.278.132.39.39 0 0 0-.116.282v4.144c0 .112.04.208.123.288.082.08.179.122.29.126.151.005.492.1 1.022.285.332.112.592.197.78.255.187.058.449.12.785.188.336.066.647.1.931.1h.834c.574-.009.998-.177 1.274-.504.25-.298.356-.688.317-1.17.168-.16.284-.363.349-.609a1.329 1.329 0 0 0 0-.756c.198-.263.291-.558.278-.886 0-.138-.032-.302-.097-.491zM3.095 4.172H1.233a.398.398 0 0 0-.291.123.398.398 0 0 0-.123.291v4.139c0 .112.041.209.123.29a.398.398 0 0 0 .291.123h1.862a.398.398 0 0 0 .291-.122.398.398 0 0 0 .123-.291V4.586a.398.398 0 0 0-.123-.29.398.398 0 0 0-.29-.124z"/></g><path fill="#FFF" mask="url(#b)" transform="rotate(45 15.816 6.91)" d="M16.22 6.505V3.898h-.809v2.607h-2.595v.81h2.595v2.607h.81V7.315h2.595v-.81z"/></g></svg><svg width="90" height="22" viewBox="0 0 90 22" x="177" y="211"><title>Group 4</title><g fill="none" fill-rule="evenodd"><rect fill="#4ACA7E" width="90" height="22" rx="11"/><text font-family="Helvetica" font-size="11" fill="#FFF"><tspan x="28.135" y="15">VERIFIED</tspan></text><path d="M18.23 8.075l-.952-.952a.648.648 0 0 0-.476-.196.648.648 0 0 0-.476.196l-4.593 4.6-2.059-2.065a.648.648 0 0 0-.476-.196.648.648 0 0 0-.476.196l-.952.952a.648.648 0 0 0-.196.476c0 .187.065.345.196.476l2.534 2.535.953.952c.13.13.289.196.476.196a.649.649 0 0 0 .476-.196l.952-.952 5.07-5.07a.648.648 0 0 0 .195-.476.648.648 0 0 0-.196-.476z" fill="#FFF"/></g></svg></svg>