<svg width="18" height="18" viewBox="0 0 18 18" xmlns="http://www.w3.org/2000/svg"><title>Artboard</title><path d="M15.66 8.54a1.098 1.098 0 0 0-.827-.358h-.389V5.727c0-1.568-.534-2.914-1.604-4.04C11.77.564 10.49 0 9 0 7.509 0 6.229.563 5.16 1.688c-1.07 1.125-1.605 2.471-1.605 4.04v2.454h-.388c-.324 0-.6.12-.827.358-.227.238-.34.528-.34.87v7.363c0 .34.113.63.34.87a1.1 1.1 0 0 0 .827.357h11.666c.325 0 .6-.12.827-.358a1.22 1.22 0 0 0 .34-.87V9.41c0-.34-.114-.63-.34-.87zm-3.549-.358H5.889V5.727c0-.903.304-1.675.911-2.314.608-.639 1.341-.958 2.2-.958.859 0 1.592.32 2.2.958.607.64.911 1.41.911 2.314v2.455z" fill-rule="evenodd"/></svg>