<svg xmlns="http://www.w3.org/2000/svg" viewBox="0 0 134.35 34.65"><title>logo</title><path d="M10.19 34.05q-2.56-5-5.19-11.7T0 7.75h7.9q.5 2 1.18 4.23t1.41 4.6q.73 2.32 1.46 4.52t1.43 4q.65-1.8 1.4-4t1.48-4.52q.73-2.33 1.41-4.6t1.18-4.23h7.7q-2.36 7.9-5 14.6t-5.19 11.7zm42.76-.9a41.42 41.42 0 0 1-4.9 1 40.27 40.27 0 0 1-6.3.47 14.94 14.94 0 0 1-5.58-.9 8.46 8.46 0 0 1-3.53-2.5 9.85 9.85 0 0 1-1.85-3.88 20.82 20.82 0 0 1-.55-5V7.75h7.45V21.5a10.65 10.65 0 0 0 1 5.2q.95 1.6 3.55 1.6.8 0 1.7-.08t1.6-.17V7.75h7.45zM59.7 1.2L67.15 0v7.75h9v6.2h-9v9.25a7.36 7.36 0 0 0 .83 3.75q.82 1.4 3.32 1.4a14.2 14.2 0 0 0 2.48-.23 12.62 12.62 0 0 0 2.33-.62l1 5.8a21.08 21.08 0 0 1-3 .95 17.51 17.51 0 0 1-4.05.4 13.34 13.34 0 0 1-5-.82 7.91 7.91 0 0 1-3.2-2.3 8.54 8.54 0 0 1-1.67-3.58 21 21 0 0 1-.48-4.65zm58.29 32.85q-2.56-5-5.19-11.7t-5-14.6h7.9q.5 2 1.18 4.23t1.41 4.6q.73 2.32 1.46 4.52t1.43 4q.65-1.8 1.4-4t1.48-4.52q.73-2.33 1.41-4.6t1.17-4.23h7.7q-2.36 7.9-5 14.6t-5.19 11.7zm-36.09-.9a41.38 41.38 0 0 0 4.9 1 40.26 40.26 0 0 0 6.3.47 14.94 14.94 0 0 0 5.58-.9 8.46 8.46 0 0 0 3.53-2.52 9.84 9.84 0 0 0 1.85-3.88 20.8 20.8 0 0 0 .55-5V7.75h-7.46V21.5a10.65 10.65 0 0 1-1 5.2q-.95 1.6-3.55 1.6-.8 0-1.7-.08t-1.6-.17V7.75h-7.4z" fill="#1a1918"/></svg>