<?xml version="1.0" encoding="UTF-8"?>
<svg width="16px" height="16px" viewBox="0 0 16 16" version="1.1" xmlns="http://www.w3.org/2000/svg" xmlns:xlink="http://www.w3.org/1999/xlink">
    <!-- Generator: Sketch 40.3 (33839) - http://www.bohemiancoding.com/sketch -->
    <title>Group</title>
    <desc>Created with Sketch.</desc>
    <defs/>
    <g id="Page-1" stroke="none" stroke-width="1" fill="none" fill-rule="evenodd">
        <g id="upvote-remove" transform="translate(-3.000000, 0.000000)">
            <g id="Symbols">
                <g id="Icons-/-Upvote-remove">
                    <g id="Group" transform="translate(3.000000, 0.000000)">
                        <rect id="path-1" fill="#4A90E2" x="0" y="0" width="16" height="16" rx="3.63636364"/>
                        <path d="M10.0431746,9.85425685 C10.2155844,9.65673881 10.3018182,9.42320346 10.3018182,9.15353535 C10.3018182,8.90903319 10.2123521,8.69743145 10.0340548,8.51861472 C9.85535353,8.3398557 9.64375178,8.25050505 9.39924964,8.25050505 L8.09662337,8.25050505 C8.10914863,8.2066378 8.1217316,8.16900433 8.13419913,8.13766233 C8.14666667,8.10632035 8.16404041,8.07180375 8.18591631,8.03417028 C8.20779221,7.9965368 8.22349207,7.96831169 8.23290044,7.94955267 C8.28929293,7.84300144 8.33246753,7.75515151 8.36225108,7.68623377 C8.39203463,7.61720057 8.42170274,7.5231746 8.45154401,7.40404041 C8.48138528,7.28496393 8.49621934,7.16577201 8.49621934,7.0466378 C8.49621934,6.97142857 8.49535353,6.91024531 8.49385281,6.86326119 C8.49235209,6.81621934 8.48438673,6.74568543 8.47036075,6.65160173 C8.45621934,6.55757576 8.4374026,6.47919192 8.41391053,6.41650794 C8.39036075,6.35382395 8.35272727,6.28323232 8.30106782,6.20490621 C8.24929293,6.12646465 8.18660895,6.0630303 8.11290044,6.01443001 C8.03919192,5.96582973 7.94516594,5.92507937 7.83070707,5.89217893 C7.7162482,5.8592785 7.58695527,5.84282828 7.44265512,5.84282828 C7.3611544,5.84282828 7.29067821,5.87261183 7.23105339,5.93217893 C7.16836941,5.99486291 7.11503607,6.07324675 7.07111111,6.16727273 C7.02724387,6.26135642 6.99665224,6.34285714 6.97939394,6.41183261 C6.96213564,6.48080808 6.94251082,6.57645022 6.92063492,6.6987013 C6.89235209,6.83041847 6.87122655,6.92519481 6.85708513,6.98320346 C6.84294372,7.04121212 6.81546897,7.11722944 6.77477633,7.21125541 C6.73396825,7.30533911 6.68542569,7.38054834 6.62897547,7.43699856 C6.52554113,7.5404329 6.367215,7.72854257 6.15399711,8.00126984 C6.00034632,8.20190476 5.8420202,8.39157287 5.67901876,8.57027417 C5.51595959,8.74903319 5.3968254,8.84150072 5.32161616,8.84779221 C5.24329004,8.85402597 5.17587302,8.88617604 5.1194228,8.94418471 C5.06297258,9.00219336 5.03474748,9.07041847 5.03474748,9.14874459 L5.03474748,12.1631746 C5.03474748,12.2446753 5.06453103,12.3144012 5.12409812,12.3724098 C5.18366522,12.4304185 5.25419913,12.4610101 5.33569985,12.464127 C5.44542569,12.4673016 5.69310245,12.5362193 6.07873016,12.6711111 C6.32011544,12.7525541 6.50897547,12.8145455 6.64536796,12.8567965 C6.78170274,12.8991053 6.97223665,12.9445887 7.21662337,12.993189 C7.46124098,13.0417893 7.68692641,13.0661472 7.89379509,13.0661472 L7.97373737,13.0661472 L8.33113997,13.0661472 L8.5004329,13.0661472 C8.91751804,13.0599134 9.22620491,12.9376046 9.42689755,12.6993939 C9.60871571,12.4830592 9.68548342,12.1993074 9.657316,11.8481962 C9.77956713,11.7321789 9.86430015,11.5848773 9.91122655,11.406176 C9.96450218,11.2150072 9.96450218,11.0315729 9.91122655,10.8560462 C10.0554689,10.6648196 10.122886,10.4500433 10.1134199,10.2117749 C10.1137085,10.111342 10.0902742,9.99226551 10.0431746,9.85425685 L10.0431746,9.85425685 L10.0431746,9.85425685 Z" id="Shape" fill="#FFFFFF"/>
                        <path d="M4.43290044,8.85258297 L3.078557,8.85258297 C2.99699856,8.85258297 2.92646465,8.88236652 2.86689755,8.94193362 C2.80733045,9.00150072 2.7775469,9.07203463 2.7775469,9.15353535 L2.7775469,12.1633478 C2.7775469,12.2447908 2.80733045,12.3153247 2.86689755,12.3749495 C2.92652236,12.4344589 2.99705628,12.4642424 3.078557,12.4642424 L4.43290044,12.4642424 C4.51440116,12.4642424 4.58493506,12.4344589 4.64450217,12.3749495 C4.70406927,12.3153247 4.73385281,12.2447908 4.73385281,12.1633478 L4.73385281,9.15353535 C4.73385281,9.07203463 4.70406927,9.00150072 4.64450217,8.94193362 C4.58493506,8.88236652 4.51440116,8.85258297 4.43290044,8.85258297 L4.43290044,8.85258297 L4.43290044,8.85258297 Z" id="Shape" fill="#FFFFFF"/>
                        <polygon id="+" fill="#FFFFFF" transform="translate(11.502546, 5.025385) rotate(45.000000) translate(-11.502546, -5.025385) " points="11.7969179 4.73101304 11.7969179 2.83490914 11.2081733 2.83490914 11.2081733 4.73101304 9.3207274 4.73101304 9.3207274 5.31975763 11.2081733 5.31975763 11.2081733 7.21586152 11.7969179 7.21586152 11.7969179 5.31975763 13.6843638 5.31975763 13.6843638 4.73101304"/>
                    </g>
                </g>
            </g>
        </g>
    </g>
</svg>