<svg width="48" height="82" viewBox="0 0 48 82" xmlns="http://www.w3.org/2000/svg"><title>Shape</title><path d="M14.875 41l32.02-32.019c.543-.543.814-1.168.814-1.874 0-.706-.271-1.331-.814-1.873L42.821 1.16c-.543-.543-1.168-.815-1.873-.815-.706 0-1.331.272-1.874.815L1.107 39.126C.564 39.669.293 40.294.293 41c0 .706.271 1.331.814 1.874L39.073 80.84c.543.544 1.168.815 1.874.815.705 0 1.33-.271 1.873-.815l4.074-4.072c.543-.543.814-1.168.814-1.875 0-.705-.271-1.33-.814-1.873L14.875 41z" fill-rule="evenodd"/></svg>