<svg width="16" height="16" viewBox="0 0 16 16" xmlns="http://www.w3.org/2000/svg"><title>Upvote</title><g fill="none" fill-rule="evenodd"><rect fill="#EEE" width="16" height="16" rx="3.636"/><path d="M12.343 8.48c.207-.237.31-.518.31-.841 0-.294-.107-.548-.321-.762a1.041 1.041 0 0 0-.762-.322h-1.563a.953.953 0 0 1 .107-.26 4.66 4.66 0 0 0 .212-.418c.035-.082.071-.195.107-.338.036-.142.053-.286.053-.428 0-.09 0-.164-.002-.22a2.429 2.429 0 0 0-.029-.255 1.418 1.418 0 0 0-.067-.282 1.313 1.313 0 0 0-.136-.254.792.792 0 0 0-.226-.228 1.236 1.236 0 0 0-.338-.147 1.686 1.686 0 0 0-.466-.06.347.347 0 0 0-.254.108.982.982 0 0 0-.192.282c-.052.113-.09.211-.11.294a5.46 5.46 0 0 0-.07.344c-.034.158-.06.272-.077.341-.017.07-.05.161-.098.274a.865.865 0 0 1-.175.27c-.124.125-.314.35-.57.678-.185.24-.375.468-.57.683-.196.214-.339.325-.43.333a.37.37 0 0 0-.242.116.34.34 0 0 0-.101.245v3.617c0 .098.035.182.107.251.071.07.156.107.254.11.131.004.429.087.891.249.29.098.517.172.68.223.164.05.393.105.686.163.293.059.564.088.812.088h.728c.5-.008.871-.154 1.112-.44.218-.26.31-.6.277-1.022a1.1 1.1 0 0 0 .304-.53 1.16 1.16 0 0 0 0-.66 1.17 1.17 0 0 0 .243-.773c0-.12-.028-.264-.084-.43zM5.61 7.278H3.985a.347.347 0 0 0-.254.107.347.347 0 0 0-.107.254v3.612c0 .097.036.182.107.253a.348.348 0 0 0 .254.108H5.61a.347.347 0 0 0 .254-.108.347.347 0 0 0 .108-.253V7.639a.347.347 0 0 0-.108-.254.347.347 0 0 0-.254-.107z" fill="#777"/></g></svg>