<svg width="90" height="22" viewBox="0 0 90 22" xmlns="http://www.w3.org/2000/svg"><title>Group 4</title><g fill="none" fill-rule="evenodd"><rect fill="#4ACA7E" width="90" height="22" rx="11"/><text font-family="Helvetica" font-size="11" fill="#FFF"><tspan x="28.135" y="15">VERIFIED</tspan></text><path d="M18.23 8.075l-.952-.952a.648.648 0 0 0-.476-.196.648.648 0 0 0-.476.196l-4.593 4.6-2.059-2.065a.648.648 0 0 0-.476-.196.648.648 0 0 0-.476.196l-.952.952a.648.648 0 0 0-.196.476c0 .187.065.345.196.476l2.534 2.535.953.952c.13.13.289.196.476.196a.649.649 0 0 0 .476-.196l.952-.952 5.07-5.07a.648.648 0 0 0 .195-.476.648.648 0 0 0-.196-.476z" fill="#FFF"/></g></svg>