<?xml version="1.0" encoding="utf-8"?>
<!-- Generator: Adobe Illustrator 18.1.0, SVG Export Plug-In . SVG Version: 6.00 Build 0)  -->
<!DOCTYPE svg PUBLIC "-//W3C//DTD SVG 1.1//EN" "http://www.w3.org/Graphics/SVG/1.1/DTD/svg11.dtd">
<svg version="1.1" id="Layer_1" xmlns="http://www.w3.org/2000/svg" xmlns:xlink="http://www.w3.org/1999/xlink" x="0px" y="0px"
   viewBox="0 0 595.3 841.9" enable-background="new 0 0 595.3 841.9" xml:space="preserve">
<path d="M154.3,468c-4.1-8-8.3-17.4-12.5-28.1c-4.2-10.7-8.2-22.4-12-35h19c0.8,3.1,1.7,6.5,2.8,10.1c1.1,3.6,2.2,7.3,3.4,11
  c1.2,3.7,2.3,7.3,3.5,10.9c1.2,3.5,2.3,6.7,3.4,9.6c1-2.9,2.2-6.1,3.4-9.6c1.2-3.5,2.4-7.1,3.6-10.9c1.2-3.7,2.3-7.4,3.4-11
  c1.1-3.6,2-7,2.8-10.1h18.5c-3.8,12.6-7.8,24.3-12,35c-4.2,10.7-8.4,20.1-12.5,28.1H154.3z"/>
<path d="M256.9,465.8c-3,0.9-7,1.7-11.8,2.5c-4.8,0.8-9.8,1.1-15.1,1.1c-5.4,0-9.8-0.7-13.4-2.2c-3.6-1.4-6.4-3.5-8.5-6.1
  c-2.1-2.6-3.6-5.7-4.4-9.3c-0.9-3.6-1.3-7.6-1.3-11.9v-35.2h17.9v33c0,5.8,0.8,9.9,2.3,12.5c1.5,2.6,4.4,3.8,8.5,3.8
  c1.3,0,2.6-0.1,4.1-0.2c1.4-0.1,2.7-0.3,3.8-0.4v-48.7h17.9V465.8z"/>
<path d="M273.1,389.2l17.9-2.9v18.6h21.5v14.9H291V442c0,3.8,0.7,6.8,2,9c1.3,2.2,4,3.4,8,3.4c1.9,0,3.9-0.2,5.9-0.5
  c2-0.4,3.9-0.9,5.6-1.5l2.5,13.9c-2.2,0.9-4.6,1.6-7.2,2.3c-2.6,0.6-5.9,1-9.7,1c-4.9,0-8.9-0.7-12.1-2c-3.2-1.3-5.8-3.2-7.7-5.5
  c-1.9-2.4-3.3-5.2-4-8.6c-0.8-3.4-1.1-7.1-1.1-11.2V389.2z"/>
<path d="M413,468c-4.1-8-8.3-17.4-12.5-28.1c-4.2-10.7-8.2-22.4-12-35h19c0.8,3.1,1.7,6.5,2.8,10.1c1.1,3.6,2.2,7.3,3.4,11
  c1.2,3.7,2.3,7.3,3.5,10.9c1.2,3.5,2.3,6.7,3.4,9.6c1-2.9,2.2-6.1,3.4-9.6c1.2-3.5,2.4-7.1,3.6-10.9c1.2-3.7,2.3-7.4,3.4-11
  c1.1-3.6,2-7,2.8-10.1h18.5c-3.8,12.6-7.8,24.3-12,35c-4.2,10.7-8.4,20.1-12.5,28.1H413z"/>
<path d="M326.4,465.8c3,0.9,7,1.7,11.8,2.5c4.8,0.8,9.8,1.1,15.1,1.1c5.4,0,9.8-0.7,13.4-2.2c3.6-1.4,6.4-3.5,8.5-6.1
  c2.1-2.6,3.6-5.7,4.4-9.3c0.9-3.6,1.3-7.6,1.3-11.9v-35.2H363v33c0,5.8-0.8,9.9-2.3,12.5c-1.5,2.6-4.4,3.8-8.5,3.8
  c-1.3,0-2.6-0.1-4.1-0.2c-1.4-0.1-2.7-0.3-3.8-0.4v-48.7h-17.9V465.8z"/>
</svg>
